<svg width="160" height="160" viewBox="0 0 160 160" xmlns="http://www.w3.org/2000/svg"><title>discussion icon</title><g fill="none" fill-rule="evenodd"><path d="M160 80c0 44.183-35.817 80-80 80S0 124.183 0 80 35.817 0 80 0s80 35.817 80 80z" fill="#FFF" fill-rule="nonzero"/><g transform="translate(40 42)"><ellipse fill="#418DBC" fill-rule="nonzero" cx="18.567" cy="37.566" rx="1.567" ry="1.566"/><ellipse fill="#418DBC" fill-rule="nonzero" cx="35.567" cy="37.566" rx="1.567" ry="1.566"/><ellipse fill="#418DBC" fill-rule="nonzero" cx="53.567" cy="9.566" rx="1.567" ry="1.566"/><ellipse fill="#418DBC" fill-rule="nonzero" cx="65.567" cy="9.566" rx="1.567" ry="1.566"/><path d="M29.234 66.102h12.243c7.445-.022 13.476-6.05 13.498-13.494V38.493C54.953 31.05 48.922 25.021 41.477 25H13.498C6.052 25.021.021 31.05 0 38.493v14.115c.021 7.443 6.052 13.472 13.498 13.494h6.271l7.67 13.857" stroke="#418DBC" stroke-width="1.5" stroke-linecap="round"/><path d="M40 24.332V9.707C40.016 4.352 44.355.015 49.711 0h20.237c5.356.016 9.694 4.353 9.71 9.707v10.155c-.016 5.354-4.353 9.691-9.71 9.708h-1.227l-5.823 10.075M60.122 29H52M66.526 20.3A6.265 6.265 0 1 0 54 20.3M19 44a8.378 8.378 0 0 0 8.38 8.331A8.378 8.378 0 0 0 35.76 44" stroke="#418DBC" stroke-width="1.5" stroke-linecap="round"/></g></g></svg>