<svg width="160" height="160" viewBox="0 0 160 160" xmlns="http://www.w3.org/2000/svg"><title>askdev icon</title><g fill="none" fill-rule="evenodd"><path d="M80 160c-44.183 0-80-35.817-80-80S35.817 0 80 0s80 35.817 80 80-35.817 80-80 80z" fill="#FFF"/><g stroke="#00A78F" stroke-width="1.5" stroke-linecap="round"><path d="M77.357 107.119H59.693c-10.757-.025-19.484-8.712-19.553-19.465V67.117c.069-10.753 8.796-19.441 19.553-19.466h40.365a19.36 19.36 0 0 1 13.756 5.693 19.347 19.347 0 0 1 5.643 13.773v20.537c.003 10.723-8.672 19.428-19.399 19.465h-8.811l-11.449 19.822"/><path stroke-linejoin="round" d="M68.763 83.458l-6.094-6.093 6.094-6.095M90.993 71.27l6.095 6.095-6.095 6.093M76.166 83.922l7.426-13.116"/></g></g></svg>