<svg width="160" height="160" viewBox="0 0 160 160" xmlns="http://www.w3.org/2000/svg"><title>idea</title><g fill="none" fill-rule="evenodd"><path d="M160 80c0 44.183-35.817 80-80 80S0 124.183 0 80 35.817 0 80 0s80 35.817 80 80z" fill="#FFF"/><path d="M70.1 107.75a.75.75 0 1 1 0-1.5h19.052a.75.75 0 1 1 0 1.5H70.099zm.75-7.883h17.552v-.568c0-5.407 1.886-9.624 7.28-15.233a26.636 26.636 0 0 0 8.03-17.918c.045-13.345-10.74-24.2-24.089-24.247a.75.75 0 0 1 .005-1.5c14.178.05 25.632 11.579 25.582 25.782a28.134 28.134 0 0 1-8.463 18.94c-5.122 5.326-6.845 9.178-6.845 14.176v1.318a.75.75 0 0 1-.75.75H70.099a.75.75 0 0 1-.75-.75v-1.318c0-4.998-1.723-8.85-6.827-14.159a28.166 28.166 0 0 1-8.482-18.987C53.99 51.98 65.445 40.45 79.623 40.401a.75.75 0 1 1 .005 1.5c-13.35.047-24.134 10.902-24.089 24.218a26.668 26.668 0 0 0 8.047 17.964c5.377 5.593 7.263 9.809 7.263 15.216v.568zm-.75 13.883a.75.75 0 1 1 0-1.5h19.052a.75.75 0 1 1 0 1.5H70.099zm3.703 7a.75.75 0 1 1 0-1.5h11.646a.75.75 0 1 1 0 1.5H73.803z" fill="#8B5BDC" fill-rule="nonzero"/></g></svg>