<?xml version="1.0" encoding="UTF-8"?>
<svg width="383px" height="377px" viewBox="0 0 383 377" version="1.1" xmlns="http://www.w3.org/2000/svg" xmlns:xlink="http://www.w3.org/1999/xlink">
    <title>ToDo-Dropdown actions</title>
    <defs>
        <path d="M144.9,0 L350.1,0 L350.1,1.42108547e-14 C363.520519,1.17455453e-14 374.4,10.8794806 374.4,24.3 L374.4,24.3 L374.4,24.3 C374.4,37.7205194 363.520519,48.6 350.1,48.6 L144.9,48.6 L144.9,48.6 C131.479481,48.6 120.6,37.7205194 120.6,24.3 L120.6,24.3 L120.6,24.3 C120.6,10.8794806 131.479481,2.46530942e-15 144.9,0 Z" id="path-1"></path>
        <path d="M5.4,0 L363.6,0 L363.6,7.10542736e-15 C366.582338,6.55758082e-15 369,2.41766235 369,5.4 L369,307.8 L369,307.8 C369,310.782338 366.582338,313.2 363.6,313.2 L5.4,313.2 L5.4,313.2 C2.41766235,313.2 4.80612312e-15,310.782338 4.4408921e-15,307.8 L0,5.4 L0,5.4 C-3.65231026e-16,2.41766235 2.41766235,5.87691706e-15 5.4,5.32907052e-15 Z" id="path-2"></path>
        <filter x="-3.5%" y="-2.6%" width="107.0%" height="108.3%" filterUnits="objectBoundingBox" id="filter-4">
            <feOffset dx="0" dy="5" in="SourceAlpha" result="shadowOffsetOuter1"></feOffset>
            <feGaussianBlur stdDeviation="3.5" in="shadowOffsetOuter1" result="shadowBlurOuter1"></feGaussianBlur>
            <feColorMatrix values="0 0 0 0 0   0 0 0 0 0   0 0 0 0 0  0 0 0 0.2 0" type="matrix" in="shadowBlurOuter1"></feColorMatrix>
        </filter>
        <polygon id="path-5" points="1.27858744 0.219387807 0.0486059476 0.219387807 0.0486059476 4.89839422 1.27858744 4.89839422 1.27858744 0.219387807"></polygon>
        <polygon id="path-7" points="4.74991925 3.21377225 4.74991925 0.2528934 0.569801987 0.2528934 0.569801987 3.21377225 4.74991925 3.21377225"></polygon>
        <polygon id="path-9" points="22.5911225 22.4570196 22.5911225 0.0844069154 0.414687772 0.0844069154 0.414687772 22.4570196"></polygon>
        <path d="M0,0 L0,24.8571429 L6.75,18.6428571 L12.375,29 L14.625,29 C14.625,29 16.0777355,27.6527108 15.75,26.9285714 C14.2027355,23.5098536 10.125,16.5714286 10.125,16.5714286 L18,16.5714286 L0,0 Z" id="path-11"></path>
        <filter x="-43.1%" y="-23.3%" width="186.1%" height="153.4%" filterUnits="objectBoundingBox" id="filter-12">
            <feMorphology radius="1.25" operator="dilate" in="SourceAlpha" result="shadowSpreadOuter1"></feMorphology>
            <feOffset dx="0" dy="1" in="shadowSpreadOuter1" result="shadowOffsetOuter1"></feOffset>
            <feGaussianBlur stdDeviation="2" in="shadowOffsetOuter1" result="shadowBlurOuter1"></feGaussianBlur>
            <feComposite in="shadowBlurOuter1" in2="SourceAlpha" operator="out" result="shadowBlurOuter1"></feComposite>
            <feColorMatrix values="0 0 0 0 0   0 0 0 0 0   0 0 0 0 0  0 0 0 1 0" type="matrix" in="shadowBlurOuter1"></feColorMatrix>
        </filter>
    </defs>
    <g id="Page-2" stroke="none" stroke-width="1" fill="none" fill-rule="evenodd">
        <g id="InternalSite-Developers" transform="translate(-837.000000, -2261.000000)">
            <g id="Group-26" transform="translate(184.000000, 1215.000000)">
                <g id="Group-23">
                    <g id="Group-22" transform="translate(338.000000, 1047.000000)">
                        <g id="ToDo-Dropdown-actions" transform="translate(322.000000, 0.000000)">
                            <g id="Rectangle-9">
                                <use fill="#FFFFFF" fill-rule="evenodd" xlink:href="#path-1"></use>
                                <path stroke="#ECECEC" stroke-width="1.8" d="M144.9,0.9 C131.976537,0.9 121.5,11.3765369 121.5,24.3 C121.5,37.2234631 131.976537,47.7 144.9,47.7 L350.1,47.7 C363.023463,47.7 373.5,37.2234631 373.5,24.3 C373.5,11.3765369 363.023463,0.9 350.1,0.9 L144.9,0.9 Z"></path>
                            </g>
                            <path d="M340.198987,38.2750875 C338.945512,38.2750875 337.926937,37.2544875 337.926937,36.0030375 C337.926937,34.7495625 338.947537,33.7289625 340.198987,33.7289625 C341.450437,33.7289625 342.473062,34.7495625 342.473062,36.0030375 C342.473062,37.2544875 341.452462,38.2750875 340.198987,38.2750875 M340.198987,31.6796625 C337.815562,31.6796625 335.875612,33.6175875 335.875612,36.0030375 C335.875612,38.3864625 337.815562,40.3243875 340.198987,40.3243875 C342.584437,40.3243875 344.524388,38.3864625 344.524388,36.0030375 C344.524388,33.6175875 342.584437,31.6796625 340.198987,31.6796625 M340.198987,26.3984625 C338.943487,26.3964375 337.924912,25.3778625 337.924912,24.1223625 C337.924912,22.8648375 338.945512,21.8462625 340.201012,21.8482875 C341.456512,21.8482875 342.475087,22.8668625 342.475087,24.1243875 C342.475087,25.3798875 341.454487,26.3984625 340.198987,26.3984625 M340.198987,19.8010125 C337.811512,19.8030375 335.877637,21.7369125 335.875612,24.1243875 C335.875612,26.5078125 337.815562,28.4477625 340.198987,28.4477625 C342.584437,28.4477625 344.524388,26.5078125 344.524388,24.1243875 C344.524388,21.7389375 342.584437,19.8010125 340.198987,19.8010125 M340.198987,14.5218375 C338.943487,14.4853875 337.955287,13.4364375 337.993762,12.1809375 C338.030212,10.9780875 338.996137,10.0101375 340.198987,9.9736875 C341.452462,9.9736875 342.473062,10.9942875 342.473062,12.2477625 C342.473062,13.4992125 341.452462,14.5218375 340.198987,14.5218375 M340.198987,7.9243875 C337.813537,7.9264125 335.879662,9.8602875 335.875612,12.2477625 C335.875612,14.6332125 337.815562,16.5711375 340.198987,16.5711375 C342.584437,16.5711375 344.524388,14.6332125 344.524388,12.2477625 C344.522363,9.8602875 342.586462,7.9264125 340.198987,7.9243875" id="Fill-1-Copy" fill="#777677" transform="translate(340.200000, 24.124388) rotate(-270.000000) translate(-340.200000, -24.124388) "></path>
                            <g id="Group-2" transform="translate(201.600000, 7.200000)">
                                <g id="emoji" transform="translate(7.200000, 7.200000)">
                                    <path d="M8.273475,8.86095 C8.273475,8.316 7.832475,7.875 7.287525,7.875 C6.742575,7.875 6.3,8.316 6.3,8.86095 C6.3,9.4059 6.742575,9.8469 7.287525,9.8469 C7.832475,9.8469 8.273475,9.4059 8.273475,8.86095" id="Fill-330" fill="#777677"></path>
                                    <path d="M18.828495,8.86095 C18.828495,8.316 18.387495,7.875 17.842545,7.875 C17.297595,7.875 16.85502,8.316 16.85502,8.86095 C16.85502,9.4059 17.297595,9.8469 17.842545,9.8469 C18.387495,9.8469 18.828495,9.4059 18.828495,8.86095" id="Fill-331" fill="#777677"></path>
                                    <path d="M12.56409,18.871335 C9.27864,18.871335 6.60429,16.19856 6.60429,12.911535 C6.60429,12.53511 6.90984,12.22956 7.286265,12.22956 C7.664265,12.22956 7.969815,12.53511 7.969815,12.911535 C7.969815,15.44571 10.029915,17.507385 12.56409,17.507385 C15.098265,17.507385 17.15994,15.44571 17.15994,12.911535 C17.15994,12.53511 17.46549,12.22956 17.841915,12.22956 C18.21834,12.22956 18.52389,12.53511 18.52389,12.911535 C18.52389,16.19856 15.84954,18.871335 12.56409,18.871335" id="Fill-338" fill="#777677"></path>
                                    <path d="M0,12.6 C0,9.12143822 1.40962854,5.97211282 3.68881873,3.69209069 C5.96909937,1.4109777 9.11977394,0 12.6,0 C19.5587878,0 25.2,5.64121215 25.2,12.6 C25.2,19.5587878 19.5587878,25.2 12.6,25.2" id="Oval-2" stroke="#777677" stroke-width="1.8" stroke-linecap="round" stroke-linejoin="round" transform="translate(12.600000, 12.600000) rotate(-270.000000) translate(-12.600000, -12.600000) "></path>
                                </g>
                                <path d="M5.4,9 L5.4,12.6 C5.4,13.5941125 6.20588745,14.4 7.2,14.4 C8.19411255,14.4 9,13.5941125 9,12.6 L9,9 L12.6,9 C13.5941125,9 14.4,8.19411255 14.4,7.2 C14.4,6.20588745 13.5941125,5.4 12.6,5.4 L9,5.4 L9,1.8 C9,0.80588745 8.19411255,0 7.2,0 C6.20588745,0 5.4,0.80588745 5.4,1.8 L5.4,5.4 L1.8,5.4 C0.80588745,5.4 0,6.20588745 0,7.2 C0,8.19411255 0.80588745,9 1.8,9 L5.4,9 Z" id="Combined-Shape" stroke="#777677" stroke-width="1.8" fill-rule="nonzero"></path>
                            </g>
                            <path d="M186.3,0.75234375 L186.3,47.4219191" id="Line" stroke="#ECECEC" stroke-width="1.8" stroke-linecap="square"></path>
                            <path d="M249.3,0.75234375 L249.3,47.4219191" id="Line" stroke="#ECECEC" stroke-width="1.8" stroke-linecap="square"></path>
                            <path d="M310.5,0.75234375 L310.5,47.4219191" id="Line-Copy-2" stroke="#ECECEC" stroke-width="1.8" stroke-linecap="square"></path>
                            <g id="History_16" transform="translate(138.600000, 14.400000)" fill="#777677">
                                <g id="Group">
                                    <path d="M2.8026,10.1898 L12.966075,1.820475 C13.3977684,1.46483124 13.4594188,0.826568375 13.103775,0.394875 C12.7481312,-0.0368183747 12.1098684,-0.0984687647 11.678175,0.257175 L0.567,9.40815 C0.33413372,9.60049427 0.199295583,9.88675601 0.199295583,10.1887875 C0.199295583,10.490819 0.33413372,10.7770807 0.567,10.969425 L11.678175,20.1204 C11.8847241,20.2924798 12.1516369,20.3745741 12.4191895,20.3483136 C12.686742,20.3220531 12.9325998,20.18963 13.10175,19.980675 C13.2730063,19.7739427 13.3547665,19.5074597 13.3289201,19.240254 C13.3030738,18.9730482 13.1717543,18.727176 12.96405,18.5571 L2.8026,10.1898 L2.8026,10.1898 Z" id="Shape"></path>
                                    <path d="M25.13835,9.1125 L11.5425,9.1125 L20.397825,1.81845 C20.6770817,1.58838883 20.8123893,1.22682188 20.7527788,0.86994793 C20.6931683,0.513073981 20.4476959,0.215110676 20.1088288,0.0882979134 C19.7699616,-0.0385148489 19.3891816,0.0250888076 19.109925,0.25515 L8.000775,9.40815 C7.76516062,9.59924808 7.62831732,9.88643123 7.62831732,10.1898 C7.62831732,10.4931688 7.76516062,10.7803519 8.000775,10.97145 L19.11195,20.122425 C19.3182432,20.2947359 19.5849942,20.3771717 19.8525352,20.3512929 C20.1200763,20.3254141 20.366082,20.1933802 20.535525,19.984725 C20.7068947,19.77766 20.7887067,19.5108521 20.7628651,19.2433157 C20.7370235,18.9757794 20.605658,18.7295625 20.397825,18.559125 L11.3886,11.1375 L25.13835,11.1375 C27.9183649,11.1408474 30.1711776,13.3936601 30.174525,16.173675 C30.174525,16.7328633 30.6278367,17.186175 31.187025,17.186175 C31.7462133,17.186175 32.199525,16.7328633 32.199525,16.173675 C32.1961754,12.275284 29.036741,9.11584961 25.13835,9.1125 L25.13835,9.1125 Z" id="Shape"></path>
                                </g>
                            </g>
                            <g id="Watson-avatar" transform="translate(264.600000, 9.000000)">
                                <path d="M0.923227758,9.32927935 C0.62657174,9.15998797 0.253469748,9.25787754 0.0823220451,9.55730447 C-0.0871141807,9.85327647 0.0132924716,10.2333183 0.308237013,10.4060646 L3.25711193,12.1254662 C3.35409563,12.180745 3.46020721,12.2072328 3.56460731,12.2072328 C3.77625996,12.2072328 3.98334868,12.0966751 4.09801765,11.8968653 C4.26745387,11.6008933 4.16704722,11.2214272 3.87153219,11.0481051 L0.923227758,9.32927935 Z" id="Fill-1" fill="#9950D7"></path>
                                <path d="M8.07469157,6.80793187 C8.18936053,7.00774176 8.39644925,7.11829939 8.60810191,7.11829939 C8.71250201,7.11829939 8.81861358,7.09123581 8.91559728,7.03595699 C9.21054182,6.86493815 9.31151897,6.48316881 9.14151225,6.18719681 L7.43859261,3.20962634 C7.26744491,2.91019941 6.89263144,2.81173402 6.59768689,2.9810254 C6.30274235,3.15262006 6.20176521,3.53381357 6.37177193,3.82978557 L8.07469157,6.80793187 Z" id="Fill-3" fill="#9950D7"></path>
                                <g id="Group-7" transform="translate(14.832801, 0.356376)">
                                    <mask id="mask-6" fill="white">
                                        <use xlink:href="#path-5"></use>
                                    </mask>
                                    <g id="Clip-6"></g>
                                    <path d="M0.663596693,4.89839422 C1.00303964,4.89839422 1.27858744,4.62027266 1.27858744,4.27765916 L1.27858744,0.840007697 C1.27858744,0.497394193 1.00303964,0.219272643 0.663596693,0.219272643 C0.324153749,0.219272643 0.0486059476,0.497394193 0.0486059476,0.840007697 L0.0486059476,4.27765916 C0.0486059476,4.62027266 0.324153749,4.89839422 0.663596693,4.89839422" id="Fill-5" fill="#9950D7" mask="url(#mask-6)"></path>
                                </g>
                                <path d="M22.9179895,6.8078167 L24.6209092,3.83024623 C24.7909159,3.53427423 24.6899388,3.1525049 24.3949942,2.98148605 C24.1000497,2.81161885 23.7235247,2.91008425 23.5540885,3.20951118 L21.8511689,6.18765747 C21.6817326,6.48362947 21.7821393,6.86482298 22.0770838,7.03641765 C22.174638,7.09169646 22.2801791,7.11818423 22.3845792,7.11818423 C22.5968024,7.11818423 22.8033206,7.00762659 22.9179895,6.8078167 Z" id="Fill-8" fill="#9950D7"></path>
                                <g id="Group-12" transform="translate(26.242648, 8.993691)">
                                    <mask id="mask-8" fill="white">
                                        <use xlink:href="#path-7"></use>
                                    </mask>
                                    <g id="Clip-11"></g>
                                    <path d="M4.66776835,0.563843938 C4.49662065,0.26441701 4.1200957,0.165951617 3.82686264,0.335818816 L0.878558208,2.05464455 C0.583043174,2.22739085 0.482636522,2.60743272 0.652072748,2.90340472 C0.766741709,3.10321462 0.973830429,3.21377225 1.18548309,3.21377225 C1.28988319,3.21377225 1.39599476,3.18670866 1.49297846,3.13142985 L4.44185338,1.41260412 C4.73679792,1.23985781 4.83720457,0.85981594 4.66776835,0.563843938" id="Fill-10" fill="#9950D7" mask="url(#mask-8)"></path>
                                </g>
                                <g id="Group-15" transform="translate(3.993446, 7.266228)">
                                    <mask id="mask-10" fill="white">
                                        <use xlink:href="#path-9"></use>
                                    </mask>
                                    <g id="Clip-14"></g>
                                    <path d="M21.2142142,12.9706563 C20.7635252,15.5883386 19.3310189,17.8726206 17.1791218,19.402577 C16.8528002,19.6340571 16.4985245,19.8039243 16.1528061,19.9910661 C14.8960115,20.5847376 13.2934985,20.4275384 11.5734641,19.4860711 C10.8489388,19.0887546 10.1546496,18.5446037 9.4843211,17.9382642 C10.9733061,17.4925787 12.5558519,16.8188681 14.145814,15.8935238 C17.6480665,13.8516624 20.1542394,11.24089 21.078437,8.95315306 C21.3882143,10.2533569 21.446975,11.6134462 21.2142142,12.9706563 M9.82091158,21.0730338 C7.86811629,20.7327236 6.10301298,19.8252297 4.70245428,18.4714744 C5.0441792,18.5198434 5.39560248,18.5589992 5.77726186,18.5589992 C6.47041005,18.5589992 7.23829275,18.4518965 8.03584104,18.2935458 C8.9554747,19.2292549 9.94984285,20.010644 10.9852865,20.5778277 C11.4217131,20.8167934 11.8518643,20.9981771 12.2785926,21.1553762 C11.4662115,21.2175649 10.6458435,21.2175649 9.82091158,21.0730338 M1.79180235,9.57388811 C2.04453046,8.10266542 2.63613102,6.75812335 3.46277442,5.57250788 C2.9653051,8.21667798 3.58657126,11.6151736 5.4167107,14.8178901 C5.91132756,15.6827733 6.48353138,16.4618591 7.08425981,17.1966067 C5.13659896,17.466091 3.68640742,17.1591784 3.09765932,16.3800925 C1.87338276,14.3330488 1.38390033,11.9543322 1.79180235,9.57388811 M11.4890312,1.32870699 C14.5873751,1.32870699 17.6417911,2.7976264 19.5586454,5.54371683 C19.7685866,5.84314376 19.9169146,6.17136173 20.0903442,6.48863911 C20.8046007,8.2471965 18.395982,11.98082 13.5308233,14.8161626 C11.7354839,15.8630052 10.0068921,16.542474 8.4711267,16.9276983 C7.74374896,16.1163665 7.06429258,15.2123275 6.48410187,14.1977309 C3.81990263,9.53991467 3.82560755,4.49341929 6.43332805,2.77804849 C8.00731642,1.82045814 9.75074102,1.32870699 11.4890312,1.32870699 M20.5655644,4.82681966 C18.8592218,2.38418691 16.3136849,0.758068367 13.3950461,0.246163484 C10.8067224,-0.196067056 8.20584776,0.274378714 5.96267187,1.58494735 C5.66031093,1.76345186 5.38419263,1.9344707 5.11663172,2.12564328 C2.69603271,3.84619647 1.08496234,6.41781313 0.579506122,9.36141016 C0.131669633,11.9739101 0.604037293,14.6002298 1.90418934,16.8649338 C2.08218295,17.170119 2.25218967,17.4482405 2.43988165,17.7171489 C4.5969132,20.8058528 8.03298858,22.4573075 11.5186968,22.4573075 C13.3397084,22.4573075 15.1652838,21.9793761 16.8396789,21.046546 C16.905856,21.0125726 16.9805905,21.0004803 17.0450561,20.9624762 C17.317181,20.766697 17.6121255,20.6169836 17.8893848,20.4189011 C20.3094133,18.6983479 21.9210542,16.1267313 22.4259399,13.1825584 C22.8726354,10.5792716 22.4059727,7.96158927 21.115519,5.70264343 C20.9352434,5.39054844 20.7589613,5.10321375 20.5655644,4.82681966 Z" id="Fill-13" fill="#9950D7" mask="url(#mask-10)"></path>
                                </g>
                            </g>
                        </g>
                    </g>
                </g>
            </g>
        </g>
    </g>
</svg>