<svg width="387" height="50" viewBox="10 0 387 50" xmlns="http://www.w3.org/2000/svg" xmlns:xlink="http://www.w3.org/1999/xlink"><title>ToDo-Dropdown actions</title><defs><path d="M144.9 0h205.2c13.42 0 24.3 10.88 24.3 24.3s-10.88 24.3-24.3 24.3H144.9c-13.42 0-24.3-10.88-24.3-24.3S131.48 0 144.9 0z" id="a"/><path id="b" d="M1.279.22H.049v4.678h1.23V.22z"/><path id="d" d="M4.75 3.214V.253H.57v2.96h4.18z"/><path id="f" d="M22.591 22.457V.084H.415v22.373z"/></defs><g fill="none" fill-rule="evenodd"><g transform="translate(7 1)"><use fill="#FFF" xlink:href="#a"/><path stroke="#ECECEC" stroke-width="1.8" d="M144.9.9c-12.923 0-23.4 10.477-23.4 23.4 0 12.923 10.477 23.4 23.4 23.4h205.2c12.923 0 23.4-10.477 23.4-23.4 0-12.923-10.477-23.4-23.4-23.4H144.9z"/></g><path d="M333.05 25.123a2.275 2.275 0 0 1 2.271-2.272 2.277 2.277 0 0 1 2.274 2.272 2.279 2.279 0 0 1-2.274 2.274 2.277 2.277 0 0 1-2.272-2.274m6.596 0a4.328 4.328 0 0 0-4.324-4.323A4.327 4.327 0 0 0 331 25.123a4.328 4.328 0 0 0 4.321 4.326 4.328 4.328 0 0 0 4.324-4.326m5.28 0a2.278 2.278 0 0 1 2.277-2.274 2.275 2.275 0 1 1-2.276 2.274m6.597 0A4.326 4.326 0 0 0 347.2 20.8a4.329 4.329 0 0 0-4.323 4.323 4.33 4.33 0 0 0 4.323 4.326 4.328 4.328 0 0 0 4.323-4.326m5.28 0a2.273 2.273 0 0 1 2.34-2.205 2.276 2.276 0 0 1 2.208 2.205 2.277 2.277 0 0 1-2.274 2.274 2.279 2.279 0 0 1-2.274-2.274m6.597 0a4.329 4.329 0 0 0-4.323-4.323 4.328 4.328 0 0 0-4.324 4.323 4.328 4.328 0 0 0 4.324 4.326 4.328 4.328 0 0 0 4.323-4.326M224.073 24.26a.987.987 0 1 0-.986.986.985.985 0 0 0 .986-.985M234.628 24.26a.987.987 0 1 0-.986.986.985.985 0 0 0 .986-.985M228.364 34.271a5.967 5.967 0 0 1-5.96-5.96.682.682 0 0 1 1.366 0 4.6 4.6 0 0 0 4.594 4.596 4.601 4.601 0 0 0 4.596-4.595.682.682 0 0 1 1.364 0 5.967 5.967 0 0 1-5.96 5.96" fill="#777677"/><path d="M228.4 15.4a12.56 12.56 0 0 1 8.908 3.689A12.56 12.56 0 0 1 241 28c0 6.959-5.641 12.6-12.6 12.6s-12.6-5.641-12.6-12.6" stroke="#777677" stroke-width="1.8" stroke-linecap="round" stroke-linejoin="round"/><path d="M214 17.2v3.6a1.8 1.8 0 0 0 3.6 0v-3.6h3.6a1.8 1.8 0 0 0 0-3.6h-3.6V10a1.8 1.8 0 1 0-3.6 0v3.6h-3.6a1.8 1.8 0 1 0 0 3.6h3.6z" stroke="#777677" stroke-width="1.8"/><path d="M193.3 1.752v46.67M256.3 1.752v46.67M317.5 1.752v46.67" stroke="#ECECEC" stroke-width="1.8" stroke-linecap="square"/><g fill="#777677"><path d="M148.403 25.59l10.163-8.37a1.013 1.013 0 1 0-1.288-1.563l-11.111 9.151a1.013 1.013 0 0 0 0 1.561l11.111 9.151a1.004 1.004 0 0 0 1.424-.14 1.008 1.008 0 0 0-.138-1.423l-10.161-8.367z"/><path d="M170.738 24.513h-13.596l8.856-7.295a1.013 1.013 0 1 0-1.288-1.563l-11.11 9.153a1.006 1.006 0 0 0 0 1.563l11.112 9.151a1.004 1.004 0 0 0 1.424-.137 1.01 1.01 0 0 0-.138-1.426l-9.01-7.422h13.75a5.042 5.042 0 0 1 5.037 5.037 1.013 1.013 0 0 0 2.025 0 7.067 7.067 0 0 0-7.062-7.062z"/></g><g><path d="M272.523 19.33a.612.612 0 0 0-.84.227.625.625 0 0 0 .225.85l2.95 1.718a.615.615 0 0 0 .84-.229.625.625 0 0 0-.226-.848l-2.949-1.719zM279.675 16.808a.615.615 0 0 0 .84.228.624.624 0 0 0 .227-.849l-1.703-2.977a.613.613 0 0 0-.841-.229.625.625 0 0 0-.226.849l1.703 2.978z" fill="#9950D7"/><g transform="translate(286.433 10.356)"><mask id="c" fill="#fff"><use xlink:href="#b"/></mask><path d="M.664 4.898c.339 0 .615-.278.615-.62V.84A.618.618 0 0 0 .664.22a.618.618 0 0 0-.615.62v3.438c0 .342.275.62.615.62" fill="#9950D7" mask="url(#c)"/></g><path d="M294.518 16.808l1.703-2.978a.624.624 0 0 0-.226-.849.612.612 0 0 0-.84.229l-1.704 2.978a.625.625 0 0 0 .226.848.614.614 0 0 0 .84-.229z" fill="#9950D7"/><g transform="translate(297.843 18.994)"><mask id="e" fill="#fff"><use xlink:href="#d"/></mask><path d="M4.668.564a.613.613 0 0 0-.841-.228L.879 2.055a.625.625 0 0 0-.227.848.615.615 0 0 0 .841.228l2.949-1.718a.625.625 0 0 0 .226-.85" fill="#9950D7" mask="url(#e)"/></g><g transform="translate(275.593 17.266)"><mask id="g" fill="#fff"><use xlink:href="#f"/></mask><path d="M21.214 12.97a9.896 9.896 0 0 1-4.035 6.433c-.326.231-.68.4-1.026.588-1.257.594-2.86.437-4.58-.505-.724-.397-1.418-.941-2.089-1.548a21.7 21.7 0 0 0 4.662-2.044c3.502-2.042 6.008-4.653 6.932-6.94a10 10 0 0 1 .136 4.017M9.821 21.073a9.741 9.741 0 0 1-5.119-2.602c.342.049.694.088 1.075.088.693 0 1.461-.107 2.259-.265.92.935 1.914 1.717 2.95 2.284.436.239.866.42 1.293.577-.813.063-1.633.063-2.458-.082m-8.03-11.5c.254-1.47.845-2.815 1.672-4-.498 2.644.124 6.042 1.954 9.245a17.436 17.436 0 0 0 1.667 2.379c-1.947.27-3.398-.038-3.986-.817-1.225-2.047-1.714-4.426-1.306-6.806m9.697-8.245a9.824 9.824 0 0 1 8.07 4.215c.21.3.358.627.531.945.715 1.758-1.694 5.492-6.56 8.327-1.795 1.047-3.523 1.726-5.059 2.112a15.966 15.966 0 0 1-1.987-2.73C3.82 9.54 3.826 4.493 6.434 2.778c1.573-.958 3.317-1.45 5.055-1.45m9.077 3.499A11.013 11.013 0 0 0 5.963 1.585c-.303.178-.579.35-.846.54A11.126 11.126 0 0 0 .58 9.362a11.195 11.195 0 0 0 1.324 7.504 11.054 11.054 0 0 0 9.615 5.592c1.82 0 3.646-.478 5.32-1.41.067-.034.142-.047.206-.085.272-.195.567-.345.844-.543a11.125 11.125 0 0 0 4.537-7.236 11.189 11.189 0 0 0-1.31-7.48c-.18-.312-.357-.6-.55-.876z" fill="#9950D7" mask="url(#g)"/></g></g></g></svg>