<svg width="30" height="35" viewBox="0 0 30 35" xmlns="http://www.w3.org/2000/svg"><title>overview2_main_bg-icon01</title><g fill="#D8D8D8" fill-rule="evenodd"><path d="M3.573 34.126l25.596-3.132L25.336.4 8.25 2.544h-.313l-7.15 9.285 2.785 22.297zm23.86-4.572l-22.5 2.818L2.478 12.69l7.729-.97-.986-7.83 14.754-1.847 3.457 27.51zM8.47 10.357l-5.1.642 4.459-5.793.641 5.151z"/><path d="M15.135 28.426h.14l3.02-.376c.304-.039.58-.196.767-.438.222-.296.318-.667.266-1.033l-.548-4.353a1.283 1.283 0 0 0-1.376-1.175l-3.02.376a1.284 1.284 0 0 0-1.048 1.472l.547 4.353c.044.364.23.696.517.924.206.156.46.24.72.235l.015.015zm2.628-1.894l-2.393.297-.423-3.899 2.238-.376.578 3.978zm-3.77-7.375h.062l3.13-.392a.788.788 0 0 0-.188-1.566l-3.13.392a.783.783 0 0 0 .095 1.503l.03.063zm-.407-3.899h.094l3.129-.392a.788.788 0 0 0-.188-1.565l-3.129.391a.783.783 0 0 0 .063 1.503l.031.063zm-.485-3.883h.094l3.129-.392a.788.788 0 0 0-.188-1.566l-3.129.392a.783.783 0 0 0 .063 1.503l.031.063zm-.485-3.883h.094l3.129-.392a.788.788 0 0 0-.188-1.566l-3.129.392a.783.783 0 0 0 .063 1.503l.031.063z"/></g></svg>