<svg width="49" height="49" viewBox="0 0 49 49" xmlns="http://www.w3.org/2000/svg"><title>overview2_main_bg-icon02</title><g fill="#D8D8D8" fill-rule="evenodd"><path d="M37.587 48.502l10.952-36.937L11.632.605.68 37.54 37.587 48.5zm.939-8.487l-1.94 6.592L2.62 36.523 7 21.648l.235-.078 8.37-4.556 8.402 15.454 7.963-4.337 6.258 11.633a.767.767 0 0 0 .298.251zm8.057-27.354l-7.447 25.287-6.477-12.025-7.964 4.337-8.401-15.454-8.62 4.697L12.68 2.514l33.903 10.147z"/><path d="M32.095 22.008a3.132 3.132 0 0 0 .86-6.013 3.127 3.127 0 0 0-3.479.769 3.134 3.134 0 0 0-.505 3.53 3.128 3.128 0 0 0 3.124 1.714zm.423-4.51a1.566 1.566 0 1 1-.827 3.021 1.566 1.566 0 0 1 .827-3.02z"/></g></svg>