<svg width="50" height="50" viewBox="0 0 50 50" xmlns="http://www.w3.org/2000/svg"><title>overview2_main_bg-icon03</title><g fill="#D8D8D8" fill-rule="evenodd"><path d="M13.497 50.029l36.218-12.996-13-36.248L.494 13.78l13.002 36.248zm34.216-13.936L14.436 48.04 9.21 33.447a.783.783 0 0 0 .141-.203l4.068-8.628 15.895 7.516 3.865-8.314 11.968 5.652h.235l2.33 6.623zM12.668 22.518l-4.193 8.894-5.977-16.676L35.776 2.805l8.886 24.817-12.234-5.777-3.88 8.204-15.88-7.531z"/><path d="M27.844 19.559a3.133 3.133 0 0 0 2.494-5.325 3.127 3.127 0 0 0-3.527-.641 3.132 3.132 0 0 0 1.001 5.903l.032.063zm0-4.572a1.565 1.565 0 1 1-.517.094 1.54 1.54 0 0 1 .485-.157l.032.063z"/></g></svg>