<svg width="27" height="26" viewBox="0 0 27 26" xmlns="http://www.w3.org/2000/svg"><title>overview2_main_bg-icon04</title><path d="M1.012 25.82H.934V0h25.799v25.82H1.013zm24.235-1.566l-.079-.047v-4.102l-4.365-4.353a2.205 2.205 0 0 0-3.129 0 3.846 3.846 0 0 1-5.319 0l-3.974-3.946a2.252 2.252 0 0 0-3.129 0l-2.675 2.678v9.77h22.67zm0-22.688l-.079-.063H2.624v10.71l1.564-1.566a3.753 3.753 0 0 1 5.32 0l3.942 3.946a2.252 2.252 0 0 0 3.13 0 3.768 3.768 0 0 1 5.319 0l3.348 3.35V1.567z" fill="#D8D8D8" fill-rule="evenodd"/></svg>