<svg width="32" height="32" viewBox="0 0 32 32" xmlns="http://www.w3.org/2000/svg"><title>overview2_main_bg-icon05</title><g fill="#D8D8D8" fill-rule="evenodd"><path d="M29.685 31.659L32 2.457 2.822.139.553 29.357l29.132 2.302zm.625-27.762l-1.564 19.056-6.415-7.516-5.178 4.416L8.595 9.8l-5.398 4.604L4.2 1.877l26.111 2.02zm-1.674 21.248l-.375 4.838-26.05-2.066.877-11.305h.11l5.287-4.526 8.558 10.053 5.179-4.416 6.258 7.406.156.016z"/><path d="M20.908 13.104a2.505 2.505 0 1 0 .188-4.995 2.507 2.507 0 0 0-.391 4.995h.203zm0-3.429a.939.939 0 0 1 .532 1.566.876.876 0 0 1-.673.22.94.94 0 0 1 .14-1.786z"/></g></svg>