<svg width="483" height="307" viewBox="0 0 483 307" xmlns="http://www.w3.org/2000/svg" xmlns:xlink="http://www.w3.org/1999/xlink"><title>overview2_main</title><defs><path id="a" d="M0 0h27v28H0z"/><path id="c" d="M0 0h57v38H0z"/><linearGradient x1="100%" y1="50%" x2="0%" y2="50%" id="e"><stop stop-color="#6C63AC" offset="0%"/><stop stop-color="#02B6CB" offset="100%"/></linearGradient><circle id="g" cx="254" cy="150" r="150"/><filter x="-1.8%" y="-1.2%" width="103.7%" height="103.7%" filterUnits="objectBoundingBox" id="f"><feOffset dy="2" in="SourceAlpha" result="shadowOffsetOuter1"/><feGaussianBlur stdDeviation="1.5" in="shadowOffsetOuter1" result="shadowBlurOuter1"/><feColorMatrix values="0 0 0 0 0.607843137 0 0 0 0 0.607843137 0 0 0 0 0.607843137 0 0 0 0.25 0" in="shadowBlurOuter1"/></filter></defs><g transform="translate(1 2)" fill="none" fill-rule="evenodd"><g transform="translate(429 150)"><mask id="b" fill="#fff"><use xlink:href="#a"/></mask><path d="M8.344 46.986a6.586 6.586 0 0 1-5.392-2.783 6.596 6.596 0 0 1-1.116-4.92l3.13-18.462 1.877-10.96a8.61 8.61 0 0 1 5.462-6.81 8.6 8.6 0 0 1 8.6 1.469 8.616 8.616 0 0 1 2.897 8.238l-3.958 23.236a.794.794 0 1 1-1.565-.266l3.958-23.237a7.05 7.05 0 0 0-2.376-6.731 7.036 7.036 0 0 0-7.033-1.199 7.045 7.045 0 0 0-4.468 5.566c-1.22 7.109-1.69 9.865-2.018 10.96h.14L3.355 39.549a5.037 5.037 0 0 0 1.748 4.722 5.028 5.028 0 0 0 8.17-3.03l2.207-12.965 1.314-8.33a3.037 3.037 0 0 0-2.472-3.476 2.97 2.97 0 0 0-3.426 2.458l-2.472 15.11a.793.793 0 1 1-1.565-.25l2.41-15.173a4.541 4.541 0 0 1 5.24-3.743 4.603 4.603 0 0 1 3.756 5.277l-1.315 8.33-2.206 12.965a6.604 6.604 0 0 1-6.492 5.496l.093.047z" fill="#D8D8D8" mask="url(#b)" transform="matrix(-1 0 0 1 25.704 0)"/></g><g transform="translate(3 140)"><mask id="d" fill="#fff"><use xlink:href="#c"/></mask><g mask="url(#d)" fill="#D8D8D8"><path d="M8.192 69.607l48.703-6.106-7.322-58.498-32.745 4.102h-.313L2.888 26.83l5.304 42.777zm46.935-7.469L9.475 67.853 4.453 27.77l15.16-1.894-1.924-15.314 30.43-3.82 7.008 55.397zM17.923 24.56L5.407 26.125 16.36 11.892l1.564 12.667z"/><path d="M30.158 58.584h.172l5.93-.736a1.754 1.754 0 0 0 1.392-2.051l-1.064-8.518a1.753 1.753 0 0 0-1.846-1.566l-5.93.736A1.737 1.737 0 0 0 27.42 48.5l1.064 8.518a1.8 1.8 0 0 0 1.705 1.519l-.031.047zm4.693-11.415a.909.909 0 0 1 .11.282l1.11 8.487c.044.1.044.213 0 .313l-5.882.736a.909.909 0 0 1-.11-.282l-1.063-8.518a.423.423 0 0 1 0-.297l5.835-.72zM27.936 40.264h.094l6.008-.751a.788.788 0 0 0-.188-1.566l-6.008.751a.784.784 0 0 0 .094 1.566zM27.138 32.623h.094l6.008-.751a.788.788 0 0 0-.188-1.566l-6.008.751a.784.784 0 0 0 .079 1.566h.015zM26.184 25.013h.094l6.007-.751a.788.788 0 0 0-.187-1.566l-6.008.752a.784.784 0 0 0 .094 1.565zM25.23 17.404h.093l6.008-.752a.788.788 0 0 0-.188-1.566l-6.007.752a.783.783 0 0 0 .094 1.55v.016z"/></g></g><path d="M421.969 45.449a7.103 7.103 0 0 0 6.561-4.389 7.113 7.113 0 0 0-1.539-7.746l-14.394-14.405-8.557-8.55a9.288 9.288 0 0 0-15.622 4.133 9.306 9.306 0 0 0 2.48 9.02l18.117 18.116a.785.785 0 1 0 1.11-1.112l-18.117-18.131a7.755 7.755 0 0 1 0-10.96 7.74 7.74 0 0 1 10.952 0l4.271 4.274c2.488 2.49 3.692 3.695 4.35 4.196L425.974 34.3a5.546 5.546 0 0 1 0 7.83 5.676 5.676 0 0 1-7.822 0l-10.107-10.116-6.4-6.576a3.384 3.384 0 0 1 0-4.697 3.284 3.284 0 0 1 4.678.016l11.688 11.852a.782.782 0 1 0 1.11-1.096L407.436 19.66a4.832 4.832 0 0 0-3.458-1.456 4.832 4.832 0 0 0-3.442 1.425 4.95 4.95 0 0 0 0 6.952l6.415 6.576 10.106 10.115a7.085 7.085 0 0 0 4.913 2.177z" fill="#D8D8D8"/><path d="M416 178.5v-1h65v1h-65zm0-1h65v1h-65v-1zm-324 0v1H0v-1h92zm0 1H0v-1h92v1z" stroke="url(#e)" stroke-linecap="round" stroke-linejoin="round"/><use fill="#000" filter="url(#f)" xlink:href="#g"/><use fill="#FFF" xlink:href="#g"/><circle stroke="#D8D8D8" stroke-width="1.5" cx="254" cy="150" r="150.75"/></g></svg>