<svg width="16" height="16" viewBox="0 0 16 16" xmlns="http://www.w3.org/2000/svg"><title>footer_devs</title><g fill="#9B9B9B" fill-rule="evenodd"><path d="M14.851.272a.501.501 0 0 0-.639-.057l-2.29 1.591a.498.498 0 0 0-.068.764l.481.481L5.94 9.445l-.362-.362c-.006-.006-.014-.008-.02-.013l-.739-.739a.5.5 0 0 0-.707.707l.411.411L1.1 13.055a1.47 1.47 0 0 0 1.039 2.509h.001a1.46 1.46 0 0 0 1.04-.431l.009-.009 3.413-3.596.253.253a.498.498 0 0 0 .708 0 .5.5 0 0 0 0-.707l-.595-.596c-.007-.008-.009-.017-.016-.025l-.302-.302 6.394-6.394.412.412a.501.501 0 0 0 .354.146l.036-.001a.497.497 0 0 0 .364-.199l1.66-2.22a.5.5 0 0 0-.047-.653l-.972-.97zM2.468 14.43a.469.469 0 1 1-.652-.677l3.414-3.597.664.664-3.426 3.61zM13.753 3.054l-.769-.768 1.455-1.012.369.369-1.055 1.411z"/><path d="M4.035 6.188l1.742 1.737a.5.5 0 1 0 .706-.709l-1.966-1.96a.502.502 0 0 0-.548-.107 2.077 2.077 0 0 1-2.29-.433c-.4-.397-.619-.94-.608-1.504l.698.648a.502.502 0 0 0 .34.133h1.293a.5.5 0 0 0 .5-.5V2.2a.503.503 0 0 0-.126-.332l-.651-.736c.564-.01 1.107.21 1.505.609.604.604.779 1.503.445 2.291a.502.502 0 0 0 .108.549l1.848 1.848a.5.5 0 0 0 .707-.707L6.113 4.097a3.072 3.072 0 0 0-.776-3.063C4.44.137 3.162-.115 1.999.375a.5.5 0 0 0-.179.792l1.083 1.222v.604h-.598L1.114 1.889a.502.502 0 0 0-.801.172 3.055 3.055 0 0 0 .659 3.363 3.065 3.065 0 0 0 3.063.764zm7.848 3.679l-1.618-1.62a.5.5 0 0 0-.707.707l1.842 1.844a.496.496 0 0 0 .549.106 2.08 2.08 0 0 1 2.29.445c.415.415.627.97.611 1.532l-.76-.701a.495.495 0 0 0-.339-.133h-1.293a.5.5 0 0 0-.5.5v1.294c0 .13.05.254.14.347l.698.724a2.102 2.102 0 0 1-1.508-.61 2.08 2.08 0 0 1-.445-2.29.5.5 0 0 0-.107-.549L8.759 9.485a.5.5 0 0 0-.707.707l1.752 1.754a3.073 3.073 0 0 0 .776 3.062 3.072 3.072 0 0 0 3.387.658.5.5 0 0 0 .165-.807l-1.176-1.22v-.592h.598l1.25 1.153a.5.5 0 0 0 .799-.172 3.075 3.075 0 0 0-.659-3.387c-.81-.81-1.98-1.1-3.061-.774z"/></g></svg>