<svg width="14" height="16" viewBox="0 0 14 16" xmlns="http://www.w3.org/2000/svg"><title>footer_terms</title><g fill-rule="nonzero" fill="#9B9B9B"><path d="M1.065 14.985V1.015h7.508v3.644c0 .28.238.506.532.506h3.827v9.82H1.065zM12.419 4.151H9.637v-2.63l2.782 2.63zM9.858.297C9.658.107 9.388 0 9.105 0h-8.04C.477 0 0 .454 0 1.014v13.972C0 15.546.477 16 1.065 16h11.867c.588 0 1.065-.454 1.065-1.014V4.66a.991.991 0 0 0-.311-.718L9.858.297z"/><path d="M10.178 8H3.49a.487.487 0 1 0 0 .973h6.689a.487.487 0 0 0 0-.973zm-.002 3.209H3.487a.487.487 0 0 0 0 .973h6.689a.487.487 0 0 0 0-.973z"/></g></svg>