<svg width="16" height="16" viewBox="0 0 16 16" xmlns="http://www.w3.org/2000/svg"><title>Multiple Users_Collaborators_16</title><path d="M7.9 3.312h.04a1.828 1.828 0 0 1 .742 3.499.5.5 0 0 0 .088.944 3.569 3.569 0 0 1 2.754 3.486v4.141a.5.5 0 1 0 1 0v-4.141a4.566 4.566 0 0 0-2.567-4.119c.51-.52.811-1.227.811-1.98 0-.993-.517-1.864-1.292-2.368A1.827 1.827 0 0 1 11.298 1a1.83 1.83 0 0 1 1.828 1.827c0 .72-.426 1.375-1.086 1.67a.5.5 0 0 0 .089.943 3.569 3.569 0 0 1 2.754 3.486v2.742a.5.5 0 1 0 1 0V8.926a4.57 4.57 0 0 0-2.569-4.118c.52-.528.811-1.24.812-1.98A2.83 2.83 0 0 0 11.298.001a2.824 2.824 0 0 0-2.78 2.373c-.38-.081-.773-.081-1.152 0A2.824 2.824 0 0 0 4.585 0a2.83 2.83 0 0 0-2.828 2.827 2.83 2.83 0 0 0 .812 1.98A4.57 4.57 0 0 0 0 8.925v2.742a.5.5 0 1 0 1 0V8.925a3.569 3.569 0 0 1 2.754-3.486.5.5 0 0 0 .089-.943 1.832 1.832 0 0 1-1.086-1.67A1.83 1.83 0 0 1 4.585.999a1.827 1.827 0 0 1 1.822 1.774 2.823 2.823 0 0 0-1.292 2.368c0 .753.301 1.46.811 1.98a4.566 4.566 0 0 0-2.567 4.119v4.141a.5.5 0 1 0 1 0V11.24a3.569 3.569 0 0 1 2.754-3.486.5.5 0 0 0 .088-.944 1.828 1.828 0 0 1 .7-3.498z" fill="#9B9B9B" fill-rule="evenodd"/></svg>