<?xml version="1.0" encoding="UTF-8"?>
<svg width="32px" height="34px" viewBox="0 0 32 34" version="1.1" xmlns="http://www.w3.org/2000/svg" xmlns:xlink="http://www.w3.org/1999/xlink">
    <!-- Generator: Sketch 43.2 (39069) - http://www.bohemiancoding.com/sketch -->
    <title>bg_icon_12</title>
    <desc>Created with Sketch.</desc>
    <defs></defs>
    <g id="Page-2" stroke="none" stroke-width="1" fill="none" fill-rule="evenodd" stroke-linecap="round" stroke-linejoin="round">
        <g id="Help-Center---Home-Copy-44" transform="translate(-803.000000, -192.000000)" stroke="#D0DADA" stroke-width="1.5">
            <g id="Group-7" transform="translate(393.000000, 142.000000)">
                <g id="bg_icon_12" transform="translate(411.000000, 51.000000)">
                    <path d="M29.0821,8.3944 L15.5591,0.6104 C15.1491,0.3734 14.6431,0.3744 14.2331,0.6124 L0.8111,8.3894 C-0.0679,8.8984 -0.0659,10.1644 0.8141,10.6704 L14.3371,18.4554 C14.7481,18.6914 15.2531,18.6904 15.6631,18.4534 L29.0851,10.6764 C29.9641,10.1664 29.9621,8.9014 29.0821,8.3944 Z" id="Stroke-19"></path>
                    <path d="M1.7679,21.3524 L0.8109,21.9074 C-0.0671,22.4154 -0.0661,23.6824 0.8149,24.1884 L14.3379,31.9734 C14.7479,32.2084 15.2539,32.2084 15.6629,31.9714 L29.0849,24.1944 C29.9639,23.6854 29.9619,22.4184 29.0819,21.9124 L28.1239,21.3614" id="Stroke-21"></path>
                    <path d="M1.7679,14.5575 L0.8109,15.1115 C-0.0671,15.6205 -0.0661,16.8865 0.8149,17.3935 L14.3379,25.1775 C14.7479,25.4135 15.2539,25.4125 15.6629,25.1755 L29.0849,17.3995 C29.9639,16.8895 29.9619,15.6235 29.0819,15.1175 L28.1239,14.5655" id="Stroke-23"></path>
                </g>
            </g>
        </g>
    </g>
</svg>