<?xml version="1.0" encoding="UTF-8"?>
<svg width="60px" height="60px" viewBox="0 0 60 60" version="1.1" xmlns="http://www.w3.org/2000/svg" xmlns:xlink="http://www.w3.org/1999/xlink">
    <!-- Generator: Sketch 43.2 (39069) - http://www.bohemiancoding.com/sketch -->
    <title>bg_icon_6</title>
    <desc>Created with Sketch.</desc>
    <defs></defs>
    <g id="Page-2" stroke="none" stroke-width="1" fill="none" fill-rule="evenodd" stroke-linecap="round" stroke-linejoin="round">
        <g id="Help-Center---Home-Copy-44" transform="translate(-589.000000, -182.000000)" stroke="#D0DADA" stroke-width="1.5">
            <g id="Group-7" transform="translate(393.000000, 142.000000)">
                <g id="bg_icon_6" transform="translate(197.000000, 41.000000)">
                    <path d="M58,28.9990856 C58,45.0156078 45.0160172,58 29,58 C12.9839828,58 0,45.0156078 0,28.9990856 C0,12.9825635 12.9839828,0 29,0 C45.0160172,0 58,12.9825635 58,28.9990856 Z" id="Stroke-23"></path>
                    <path d="M29,8.41973829 L29,28.9990856 L41.55606,36.2447422 M29,0 L29,3.88434495 M29,54.1156551 L29,58 M0,28.9990856 L3.88422247,28.9990856 M54.1157775,28.9990856 L58,28.9990856 M29,0 L29,3.88434495 M29,54.1156551 L29,58 M0,28.9990856 L3.88422247,28.9990856 M54.1157775,28.9990856 L58,28.9990856" id="Stroke-25"></path>
                </g>
            </g>
        </g>
    </g>
</svg>