<?xml version="1.0" encoding="UTF-8"?>
<svg width="44px" height="58px" viewBox="0 0 44 58" version="1.1" xmlns="http://www.w3.org/2000/svg" xmlns:xlink="http://www.w3.org/1999/xlink">
    <!-- Generator: Sketch 43.2 (39069) - http://www.bohemiancoding.com/sketch -->
    <title>bg_icon_2</title>
    <desc>Created with Sketch.</desc>
    <defs></defs>
    <g id="Page-2" stroke="none" stroke-width="1" fill="none" fill-rule="evenodd">
        <g id="Help-Center---Home-Copy-44" transform="translate(-443.000000, -142.000000)" stroke="#D0DADA" stroke-width="1.5">
            <g id="Group-7" transform="translate(393.000000, 142.000000)">
                <g id="bg_icon_2" transform="translate(51.000000, 1.000000)">
                    <path d="M30.2498151,16.7372519 C27.6195826,15.2192607 24.2569965,16.1205106 22.7372251,18.7508389 C21.2192891,21.3793316 22.1205062,24.7420401 24.7507387,26.2618669 C27.3809712,27.7816937 30.7435573,26.8786082 32.2614933,24.2501155 C33.7812647,21.6179517 32.8800476,18.2552432 30.2498151,16.7372519 Z" id="Stroke-1"></path>
                    <path d="M26.6920624,55 L34.3478411,50.6291524 L30.0403344,43.2452862 C29.5679566,42.4356046 29.6186331,41.4288766 30.1688356,40.6693523 L36.0835129,32.5098397 C39.9313109,27.2039174 42,20.8393184 42,14.3099171 L42,2.39398346 C42,0.55428656 39.9928467,-0.595747921 38.3838662,0.323204865 C34.2229596,2.70209239 27.9535465,6.28475433 27.9535465,6.28475433 C22.2397656,9.54855935 17.7042144,14.5051721 14.9857795,20.4541823 L10.8031544,29.6025095 C10.4140309,30.4551831 9.55795915,31.0033304 8.61320348,31.0033304 L-3.55271368e-15,31.0033304 L0.00361975351,39.7486081" id="Stroke-3" stroke-linecap="round" stroke-linejoin="round"></path>
                    <path d="M11,56 C13.2405554,55.0378704 16.1151142,53.6975123 17.077404,52.2804627 L17.1758899,52.1357946 C18.8727208,49.6398352 17.8652916,46.4449374 14.9250756,45" id="Stroke-5" stroke-linecap="round"></path>
                    <path d="M7.06945394,55 C6.94982725,52.6560404 6.8900139,49.5927806 7.71508624,48.0352559 L7.79952861,47.8760508 C9.25440031,45.1273649 12.4790434,44.183643 15,45.7699398" id="Stroke-7" stroke-linecap="round"></path>
                </g>
            </g>
        </g>
    </g>
</svg>