<?xml version="1.0" encoding="UTF-8"?>
<svg width="39px" height="39px" viewBox="0 0 39 39" version="1.1" xmlns="http://www.w3.org/2000/svg" xmlns:xlink="http://www.w3.org/1999/xlink">
    <!-- Generator: Sketch 43.2 (39069) - http://www.bohemiancoding.com/sketch -->
    <title>bg_icon_17</title>
    <desc>Created with Sketch.</desc>
    <defs></defs>
    <g id="Page-2" stroke="none" stroke-width="1" fill="none" fill-rule="evenodd" stroke-linecap="round" stroke-linejoin="round">
        <g id="Help-Center---Home-Copy-44" transform="translate(-992.000000, -238.000000)" stroke="#D0DADA" stroke-width="1.5">
            <g id="Group-7" transform="translate(393.000000, 142.000000)">
                <g id="bg_icon_17" transform="translate(600.000000, 97.000000)">
                    <path d="M11,18.5 C11,22.641791 14.358209,26 18.5,26 C22.6429451,26 26,22.641791 26,18.5 C26,14.3570549 22.6429451,11 18.5,11 C14.358209,11 11,14.3570549 11,18.5 Z" id="Stroke-1"></path>
                    <path d="M37,20.622052 L37,16.3791146 C37,15.5368268 36.3163703,14.8531971 35.4740825,14.8531971 L33.2342036,14.8531971 C32.6159036,14.8531971 32.0571005,14.4787174 31.8226132,13.905915 L31.1693152,12.3146677 C30.9359945,11.7453651 31.0678207,11.0909005 31.5029638,10.6557573 L33.0813785,9.07734267 C33.6775129,8.48120822 33.6775129,7.51526044 33.0813785,6.91912599 L30.0820406,3.91978812 C29.4859062,3.32365368 28.5199584,3.32365368 27.9238239,3.91978812 L26.3395762,5.50286921 C25.9020999,5.94034557 25.2429688,6.06983857 24.6713331,5.83185143 L23.0859188,5.16805398 C22.5177828,4.93123345 22.1479695,4.37476353 22.1479695,3.75996343 L22.1479695,1.52708412 C22.1479695,0.683629714 21.4643398,0 20.6208854,0 L16.3791146,0 C15.5368268,0 14.8531971,0.683629714 14.8531971,1.52708412 L14.8531971,3.76696305 C14.8531971,4.38526296 14.4787174,4.94406609 13.905915,5.17855341 L12.3146677,5.83068483 C11.7453651,6.06400555 11.0920671,5.93334595 10.6557573,5.4982028 L9.07734267,3.91978812 C8.48120822,3.32365368 7.51526044,3.32365368 6.91912599,3.91978812 L3.91978812,6.91912599 C3.32365368,7.51526044 3.32365368,8.48120822 3.91978812,9.07734267 L5.50286921,10.6615904 C5.94034557,11.0990667 6.07100517,11.7581978 5.83185143,12.3298335 L5.16805398,13.9164144 C4.93006684,14.4833838 4.37476353,14.8531971 3.75996343,14.8531971 L1.52708412,14.8531971 C0.683629714,14.8531971 0,15.5368268 0,16.3791146 L0,20.622052 C0,21.4643398 0.683629714,22.1479695 1.52708412,22.1479695 L3.76579644,22.1479695 C4.38526296,22.1479695 4.94289948,22.5224492 5.17855341,23.0952516 L5.83068483,24.6853323 C6.06517215,25.2558015 5.93334595,25.9090995 5.4982028,26.3442427 L3.91978812,27.9238239 C3.32365368,28.5199584 3.32365368,29.4859062 3.91978812,30.0820406 L6.91912599,33.0825451 C7.51526044,33.6775129 8.48120822,33.6775129 9.07734267,33.0825451 L10.6615904,31.4982974 C11.0990667,31.0596544 11.7581978,30.9301614 12.3298335,31.1693152 L13.9152478,31.831946 C14.4833838,32.0699332 14.8531971,32.6252365 14.8531971,33.2400366 L14.8531971,35.4740825 C14.8531971,36.3175369 15.5368268,37 16.3791146,37 L20.6208854,37 C21.4643398,37 22.1479695,36.3175369 22.1479695,35.4740825 L22.1479695,33.2353702 C22.1479695,32.614737 22.5224492,32.0571005 23.0952516,31.8226132 L24.6853323,31.1693152 C25.2546349,30.9359945 25.9090995,31.0666541 26.3442427,31.5017972 L27.9238239,33.0825451 C28.5199584,33.6775129 29.4859062,33.6775129 30.0820406,33.0825451 L33.0813785,30.0820406 C33.6775129,29.4870728 33.6775129,28.5199584 33.0813785,27.9238239 L31.4982974,26.3395762 C31.0596544,25.9009333 30.9301614,25.2429688 31.1693152,24.6713331 L31.8331126,23.0847522 C32.0699332,22.5177828 32.6252365,22.1479695 33.2412032,22.1479695 L35.4740825,22.1479695 C36.3163703,22.1479695 37,21.4643398 37,20.622052 Z" id="Stroke-3"></path>
                </g>
            </g>
        </g>
    </g>
</svg>