<?xml version="1.0" encoding="UTF-8"?>
<svg width="37px" height="24px" viewBox="0 0 37 24" version="1.1" xmlns="http://www.w3.org/2000/svg" xmlns:xlink="http://www.w3.org/1999/xlink">
    <!-- Generator: Sketch 43.2 (39069) - http://www.bohemiancoding.com/sketch -->
    <title>bg_icon_18</title>
    <desc>Created with Sketch.</desc>
    <defs></defs>
    <g id="Page-2" stroke="none" stroke-width="1" fill="none" fill-rule="evenodd" stroke-linecap="round" stroke-linejoin="round">
        <g id="Help-Center---Home-Copy-44" transform="translate(-1012.000000, -195.000000)" stroke="#D0DADA" stroke-width="1.5">
            <g id="Group-7" transform="translate(393.000000, 142.000000)">
                <g id="bg_icon_18" transform="translate(620.000000, 54.000000)">
                    <path d="M12.5796963,21.6078138 L32.0011917,10.7934782 C33.8706168,9.75153014 34.9388598,7.88687943 34.9973483,5.94772782 C35.0293514,4.91216552 34.7722227,3.85531726 34.1961661,2.89319154 C33.1168876,1.09133443 31.1845597,0.0610936177 29.1760864,0.00255720812 C28.1012221,-0.0283074442 27.0042867,0.219674073 26.0044643,0.776302113 L2.21729839,14.0204308 C0.78046749,14.8207832 -0.0163004884,16.278872 0.000252862945,17.7720826 C0.00797776024,18.4830339 0.199996636,19.2024995 0.595069955,19.8613002 C1.40508061,21.2150877 2.8650862,21.979254 4.37475185,21.9994756 C5.14724157,22.0111829 5.93297399,21.8270593 6.65138943,21.4268831 L24.9406356,11.2436764 C25.8543806,10.7338775 26.368638,9.81325945 26.3763629,8.86284102 C26.3796736,8.38709965 26.2560752,7.9039082 25.9912216,7.46116008 C25.4714464,6.59375692 24.5367338,6.09885819 23.567811,6.07757222 C23.0601748,6.06586494 22.5426067,6.18613065 22.0702844,6.44901235 L8.14560528,14.2013616" id="Stroke-13"></path>
                </g>
            </g>
        </g>
    </g>
</svg>