<?xml version="1.0" encoding="UTF-8"?>
<svg width="44px" height="44px" viewBox="0 0 44 44" version="1.1" xmlns="http://www.w3.org/2000/svg" xmlns:xlink="http://www.w3.org/1999/xlink">
    <!-- Generator: Sketch 43.2 (39069) - http://www.bohemiancoding.com/sketch -->
    <title>bg_icon_11</title>
    <desc>Created with Sketch.</desc>
    <defs></defs>
    <g id="Page-2" stroke="none" stroke-width="1" fill="none" fill-rule="evenodd" stroke-linecap="round" stroke-linejoin="round">
        <g id="Help-Center---Home-Copy-44" transform="translate(-770.000000, -235.000000)" stroke="#D0DADA" stroke-width="1.5">
            <g id="Group-7" transform="translate(393.000000, 142.000000)">
                <g id="bg_icon_11" transform="translate(378.000000, 94.000000)">
                    <path d="M42,20.9993379 C42,32.5975091 32.5978055,42 21,42 C9.40219448,42 0,32.5975091 0,20.9993379 C0,9.40116664 9.40219448,0 21,0 C32.5978055,0 42,9.40116664 42,20.9993379 Z" id="Stroke-23"></path>
                    <path d="M21,6.09705187 L21,20.9993379 L30.0923193,26.2461927 M21,0 L21,2.81280151 M21,39.1871985 L21,42 M0,20.9993379 L2.81271283,20.9993379 M39.1872872,20.9993379 L42,20.9993379 M21,0 L21,2.81280151 M21,39.1871985 L21,42 M0,20.9993379 L2.81271283,20.9993379 M39.1872872,20.9993379 L42,20.9993379" id="Stroke-25"></path>
                </g>
            </g>
        </g>
    </g>
</svg>