<?xml version="1.0" encoding="UTF-8"?>
<svg width="68px" height="63px" viewBox="0 0 68 63" version="1.1" xmlns="http://www.w3.org/2000/svg" xmlns:xlink="http://www.w3.org/1999/xlink">
    <!-- Generator: Sketch 43.2 (39069) - http://www.bohemiancoding.com/sketch -->
    <title>bg_icon_1</title>
    <desc>Created with Sketch.</desc>
    <defs></defs>
    <g id="Page-2" stroke="none" stroke-width="1" fill="none" fill-rule="evenodd" stroke-linecap="round" stroke-linejoin="round">
        <g id="Help-Center---Home-Copy-44" transform="translate(-392.000000, -214.000000)" stroke="#D0DADA" stroke-width="1.5">
            <g id="Group-7" transform="translate(393.000000, 142.000000)">
                <g id="bg_icon_1" transform="translate(0.000000, 73.000000)">
                    <path d="M51,61 L51,48.7201646 C51,40.0823045 44.9339824,32.845679 36.7814048,30.9382716 C40.4693269,29.3168724 43.0473323,25.6687243 43.0473323,21.4197531 C43.0473323,15.6646091 38.3244597,11 32.5,11 C26.6755403,11 21.9547501,15.6646091 21.9547501,21.4197531 C21.9547501,25.6687243 24.5306731,29.3168724 28.2206776,30.9382716 C20.0681,32.845679 14,40.0823045 14,48.7201646 L14,61" id="Stroke-1"></path>
                    <path d="M66,50 L66,37.7206699 C66,29.0831653 59.9434328,21.8468376 51.8035561,19.9395087 C55.4857327,18.3181762 58.0597218,14.6681207 58.0597218,10.4213818 C58.0597218,4.66647463 53.3442071,0 47.5288213,0 C41.7134356,0 37,4.66647463 37,10.4213818" id="Stroke-3"></path>
                    <path d="M0,50 L0,37.7206699 C0,29.0831653 6.05656725,21.8468376 14.1964439,19.9395087 C10.5142673,18.3181762 7.94027818,14.6681207 7.94027818,10.4213818 C7.94027818,4.66647463 12.6557929,0 18.4711787,0 C24.2865644,0 29,4.66647463 29,10.4213818" id="Stroke-5"></path>
                </g>
            </g>
        </g>
    </g>
</svg>