<?xml version="1.0" encoding="UTF-8"?>
<svg width="35px" height="37px" viewBox="0 0 35 37" version="1.1" xmlns="http://www.w3.org/2000/svg" xmlns:xlink="http://www.w3.org/1999/xlink">
    <!-- Generator: Sketch 43.2 (39069) - http://www.bohemiancoding.com/sketch -->
    <title>bg_icon_3</title>
    <desc>Created with Sketch.</desc>
    <defs></defs>
    <g id="Page-2" stroke="none" stroke-width="1" fill="none" fill-rule="evenodd" stroke-linecap="round" stroke-linejoin="round">
        <g id="Help-Center---Home-Copy-44" transform="translate(-476.000000, -215.000000)" stroke="#D0DADA" stroke-width="1.5">
            <g id="Group-7" transform="translate(393.000000, 142.000000)">
                <g id="bg_icon_3" transform="translate(84.000000, 74.000000)">
                    <polygon id="Stroke-79" points="14 0 8 12 20 12"></polygon>
                    <polygon id="Stroke-81" points="22.5 27 15 27 15 34 22.5 34 30 34 30 27"></polygon>
                    <polygon id="Stroke-83" points="8 27.4994528 8 20 0 20 0 27.4994528 0 35 8 35"></polygon>
                    <polygon id="Stroke-85" points="18.5 19 33 19 33 12 18.5 12 4 12 4 19"></polygon>
                    <polygon id="Stroke-87" points="19 27 27 27 27 20 19 20"></polygon>
                    <path d="M25,12 C27.2089901,12 29,10.433095 29,8.50051073 C29,6.56792646 27.2089901,5 25,5 C22.7910099,5 21,6.56792646 21,8.50051073 C21,10.433095 22.7910099,12 25,12 Z" id="Stroke-89"></path>
                </g>
            </g>
        </g>
    </g>
</svg>