<?xml version="1.0" encoding="UTF-8"?>
<svg width="26px" height="34px" viewBox="0 0 26 34" version="1.1" xmlns="http://www.w3.org/2000/svg" xmlns:xlink="http://www.w3.org/1999/xlink">
    <!-- Generator: Sketch 43.2 (39069) - http://www.bohemiancoding.com/sketch -->
    <title>bg_icon_9</title>
    <desc>Created with Sketch.</desc>
    <defs></defs>
    <g id="Page-2" stroke="none" stroke-width="1" fill="none" fill-rule="evenodd">
        <g id="Help-Center---Home-Copy-44" transform="translate(-713.000000, -227.000000)" stroke="#D0DADA" stroke-width="1.5">
            <g id="Group-7" transform="translate(393.000000, 142.000000)">
                <g id="bg_icon_9" transform="translate(321.000000, 86.000000)">
                    <path d="M17.2940148,9.67944243 C15.8312117,8.84744723 13.9611104,9.34141294 13.1158899,10.7830685 C12.2716902,12.223718 12.7729019,14.0667835 14.235705,14.8997847 C15.698508,15.732786 17.5686094,15.2378142 18.4128091,13.7971647 C19.2580296,12.3545032 18.7568179,10.5114376 17.2940148,9.67944243 Z" id="Stroke-1"></path>
                    <path d="M15.2526071,31.5362319 L19.6273378,29.0300489 L17.1659054,24.7962431 C16.8959752,24.331983 16.9249332,23.7547392 17.2393347,23.3192386 L20.6191502,18.6406881 C22.8178919,15.5983463 24,11.9489742 24,8.2051066 L24,1.37267668 C24,0.317820173 22.8530552,-0.341593538 21.9336379,0.185321156 C19.5559769,1.54934204 15.9734551,3.60359036 15.9734551,3.60359036 C12.7084375,5.47501058 10.116694,8.31706313 8.56330259,11.7281425 L6.17323106,16.9736655 C5.95087477,17.4625766 5.46169094,17.7768766 4.92183056,17.7768766 L-3.55271368e-15,17.7768766 L0.00206843058,22.7912968" id="Stroke-3" stroke-linecap="round" stroke-linejoin="round"></path>
                    <path d="M6.11764706,32 C7.32265166,31.4321027 8.86863283,30.6409559 9.38616685,29.8045419 L9.43913409,29.7191515 C10.3517154,28.2459106 9.80990473,26.3601212 8.22861207,25.5072464" id="Stroke-5" stroke-linecap="round"></path>
                    <path d="M3.80556114,31.0724638 C3.7351925,29.7679993 3.70000818,28.0632286 4.18534485,27.1964323 L4.23501683,27.1078312 C5.09082371,25.5781277 6.98767257,25.052926 8.47058824,25.9357346" id="Stroke-7" stroke-linecap="round"></path>
                </g>
            </g>
        </g>
    </g>
</svg>