<?xml version="1.0" encoding="UTF-8"?>
<svg width="29px" height="31px" viewBox="0 0 29 31" version="1.1" xmlns="http://www.w3.org/2000/svg" xmlns:xlink="http://www.w3.org/1999/xlink">
    <!-- Generator: Sketch 43.2 (39069) - http://www.bohemiancoding.com/sketch -->
    <title>bg_icon_13</title>
    <desc>Created with Sketch.</desc>
    <defs></defs>
    <g id="Page-2" stroke="none" stroke-width="1" fill="none" fill-rule="evenodd" stroke-linecap="round" stroke-linejoin="round">
        <g id="Help-Center---Home-Copy-44" transform="translate(-839.000000, -227.000000)" stroke="#D0DADA" stroke-width="1.5">
            <g id="Group-7" transform="translate(393.000000, 142.000000)">
                <g id="bg_icon_13" transform="translate(447.000000, 86.000000)">
                    <polygon id="Stroke-79" points="11.44413 0.1943 6.42123 10.3089563 16.46703 10.3089563"></polygon>
                    <polygon id="Stroke-81" points="18.71928 22.7292938 12.53358 22.7292938 12.53358 28.939825 18.71928 28.939825 24.90498 28.939825 24.90498 22.7292938"></polygon>
                    <polygon id="Stroke-83" points="6.42168 22.7292938 6.42168 16.5196688 0.25398 16.5196688 0.25398 22.7292938 0.25398 28.939825 6.42168 28.939825"></polygon>
                    <polygon id="Stroke-85" points="15.06456 16.5200313 26.76996 16.5200313 26.76996 10.3095 15.06456 10.3095 3.35916 10.3095 3.35916 16.5200313"></polygon>
                    <polygon id="Stroke-87" points="15.6357 22.7296563 21.8025 22.7296563 21.8025 16.519125 15.6357 16.519125"></polygon>
                    <path d="M20.52522,10.3090469 C22.22802,10.3090469 23.60862,8.91885938 23.60862,7.20423438 C23.60862,5.48960938 22.22802,4.09851563 20.52522,4.09851563 C18.82242,4.09851563 17.44182,5.48960938 17.44182,7.20423438 C17.44182,8.91885938 18.82242,10.3090469 20.52522,10.3090469 Z" id="Stroke-89"></path>
                </g>
            </g>
        </g>
    </g>
</svg>