<?xml version="1.0" encoding="UTF-8"?>
<svg width="43px" height="41px" viewBox="0 0 43 41" version="1.1" xmlns="http://www.w3.org/2000/svg" xmlns:xlink="http://www.w3.org/1999/xlink">
    <!-- Generator: Sketch 43.2 (39069) - http://www.bohemiancoding.com/sketch -->
    <title>bg_icon_7</title>
    <desc>Created with Sketch.</desc>
    <defs></defs>
    <g id="Page-2" stroke="none" stroke-width="1" fill="none" fill-rule="evenodd" stroke-linecap="round" stroke-linejoin="round">
        <g id="Help-Center---Home-Copy-44" transform="translate(-664.000000, -209.000000)" stroke="#D0DADA" stroke-width="1.5">
            <g id="Group-7" transform="translate(393.000000, 142.000000)">
                <g id="bg_icon_7" transform="translate(272.000000, 68.000000)">
                    <path d="M16.7257764,31.3770209 L21.6693047,31.3770209 L21.6693047,28.907698 C20.9440643,28.3932558 20.4683273,27.5411283 20.4683273,26.5729216 C20.4683273,25.0018941 21.7158442,23.7289792 23.2555258,23.7289792 C24.7939146,23.7289792 26.0427243,25.0018941 26.0427243,26.5729216 C26.0427243,27.6690793 25.4273688,28.6095853 24.5366546,29.0857742 L24.5366546,31.3770209 L33.5730727,31.3770209 L33.5730727,25.3343029 L35.7513795,25.3343029 C36.2167744,26.2431509 37.1385149,26.8723534 38.2128015,26.8723534 C39.7524831,26.8723534 41,25.5981195 41,24.028411 C41,22.4573835 39.7524831,21.1831496 38.2128015,21.1831496 C37.263913,21.1831496 36.4274949,21.6712102 35.9246098,22.4085774 L33.5730727,22.4085774 L33.5730727,17.6110735 C33.5730727,13.5786376 30.8285354,10.2004668 27.1428662,9.30876683 C28.8105313,8.55029426 29.9766041,6.84735845 29.9766041,4.86345803 C29.9766041,2.17780559 27.8409585,0 25.2075989,0 C22.5742393,0 20.4398865,2.17780559 20.4398865,4.86345803 C20.4398865,6.84735845 21.6046666,8.55029426 23.2723317,9.30876683 C19.5866625,10.2004668 16.7309475,13.5786376 16.7309475,17.6110735 L16.7257764,18.3629507 L14.4918808,18.3629507 C14.0264859,17.4527836 13.1047454,16.8249002 12.0304588,16.8249002 C10.4907772,16.8249002 9.24196752,18.0991341 9.24196752,19.6688426 C9.24196752,21.238551 10.4907772,22.512785 12.0304588,22.512785 C12.9793473,22.512785 13.8144726,22.0260434 14.3173577,21.2873571 L16.7257764,21.2873571 L16.7257764,31.3770209 L7.10761469,31.3770209 L7.10761469,33.8226003 C7.83285512,34.3344044 8.30859215,35.1878509 8.30859215,36.1560576 C8.30859215,37.7257661 7.0610752,39 5.52139366,39 C3.98171212,39 2.73419518,37.7257661 2.73419518,36.1560576 C2.73419518,35.0598999 3.34955069,34.1180748 4.24026486,33.6445241 L4.24026486,31.3770209 L0,31.3770209 L0.00129276368,17.6071163 C0.00129276368,13.5786376 2.74453729,10.2004668 6.43020653,9.30876683 C4.76254138,8.55029426 3.59776131,6.84735845 3.59776131,4.86345803 C3.59776131,2.17780559 5.73211414,0 8.36547375,0 C10.9988334,0 13.134479,2.17780559 13.134479,4.86345803 C13.134479,6.84735845 11.9684061,8.55029426 10.300741,9.30876683 C13.987703,10.2004668 16.7309475,13.5786376 16.7309475,17.6110735" id="Stroke-21"></path>
                </g>
            </g>
        </g>
    </g>
</svg>