<?xml version="1.0" encoding="UTF-8"?>
<svg width="25px" height="22px" viewBox="0 0 25 22" version="1.1" xmlns="http://www.w3.org/2000/svg" xmlns:xlink="http://www.w3.org/1999/xlink">
    <!-- Generator: Sketch 43.2 (39069) - http://www.bohemiancoding.com/sketch -->
    <title>bg_icon_16</title>
    <desc>Created with Sketch.</desc>
    <defs></defs>
    <g id="Page-2" stroke="none" stroke-width="1" fill="none" fill-rule="evenodd" stroke-linecap="round" stroke-linejoin="round">
        <g id="Help-Center---Home-Copy-44" transform="translate(-942.000000, -192.000000)" stroke="#D0DADA" stroke-width="1.5">
            <g id="Group-7" transform="translate(393.000000, 142.000000)">
                <g id="bg_icon_16" transform="translate(550.000000, 51.000000)">
                    <path d="M1.71071384,10.0917512 C0.572896961,8.94010724 0,7.43100587 0,5.92117049 C0,4.40546313 0.567820658,2.88828777 1.71071384,1.73077178 C2.85070627,0.577659789 4.34458948,2.79441136e-06 5.8384727,2.79441136e-06 C7.33380628,-0.000731204312 8.82986505,0.576191792 9.97058267,1.73077178 L11.5,3.27877509 L13.0294173,1.73077178 C14.1708601,0.575457793 15.6683693,-0.00146520303 17.1651532,2.79441136e-06 C18.6575861,0.00147079186 20.1500189,0.578393788 21.2892862,1.73077178 C22.4300038,2.88608577 23,4.39812314 23,5.91162851 C23,7.42439988 22.4300038,8.93717125 21.2892862,10.0917512 L11.5,20 L1.71071384,10.0917512 Z" id="Stroke-70"></path>
                </g>
            </g>
        </g>
    </g>
</svg>