<?xml version="1.0" encoding="UTF-8"?>
<svg width="46px" height="52px" viewBox="0 0 46 52" version="1.1" xmlns="http://www.w3.org/2000/svg" xmlns:xlink="http://www.w3.org/1999/xlink">
    <!-- Generator: Sketch 43.2 (39069) - http://www.bohemiancoding.com/sketch -->
    <title>bg_icon_14</title>
    <desc>Created with Sketch.</desc>
    <defs></defs>
    <g id="Page-2" stroke="none" stroke-width="1" fill="none" fill-rule="evenodd">
        <g id="Help-Center---Home-Copy-44" transform="translate(-860.000000, -163.000000)">
            <g id="Group-7" transform="translate(393.000000, 142.000000)">
                <g id="bg_icon_14" transform="translate(468.000000, 22.000000)">
                    <path d="M26.5268293,23.8225303 L42.4861789,23.8225303 C43.3186992,23.8225303 44,23.1953664 44,22.4289991 L44,7.39203436 C44,6.62716387 43.3186992,6 42.4861789,6 L20.5121951,6 C19.6796748,6 19,6.62716387 19,7.39203436 L19,29 L26.5268293,23.8225303 Z" id="Stroke-31" stroke="#D0DADA" stroke-width="1.5" stroke-linecap="round" stroke-linejoin="round"></path>
                    <path d="M26,13 L40,13" id="Stroke-33" stroke="#D0DADA" stroke-width="1.5" stroke-linecap="round" stroke-linejoin="round"></path>
                    <path d="M26,19 L40,19" id="Stroke-35" stroke="#D0DADA" stroke-width="1.5" stroke-linecap="round" stroke-linejoin="round"></path>
                    <path d="M0,38 L29,38" id="Stroke-37" stroke="#D0DADA" stroke-width="1.5" stroke-linejoin="round"></path>
                    <path d="M14.4992142,44 C13.671032,44 13,44.671032 13,45.4992142 C13,46.3273965 13.671032,47 14.4992142,47 C15.328968,47 16,46.3273965 16,45.4992142 C16,44.671032 15.328968,44 14.4992142,44 Z" id="Fill-39" fill="#D0DADA"></path>
                    <path d="M29,25 L29,47.3325766 C29,48.806596 27.7949126,50 26.3100159,50 L2.6899841,50 C1.20508744,50 0,48.806596 0,47.3325766 L0,2.66742338 C0,1.19340396 1.20508744,0 2.6899841,0 L26.3100159,0 C27.7949126,0 29,1.19340396 29,2.66742338 L29,6.14201034" id="Stroke-41" stroke="#D0DADA" stroke-width="1.5" stroke-linecap="round" stroke-linejoin="round"></path>
                </g>
            </g>
        </g>
    </g>
</svg>