<?xml version="1.0" encoding="UTF-8"?>
<svg width="68px" height="68px" viewBox="0 0 68 68" version="1.1" xmlns="http://www.w3.org/2000/svg" xmlns:xlink="http://www.w3.org/1999/xlink">
    <!-- Generator: Sketch 43.2 (39069) - http://www.bohemiancoding.com/sketch -->
    <title>bg_icon_15</title>
    <desc>Created with Sketch.</desc>
    <defs></defs>
    <g id="Page-2" stroke="none" stroke-width="1" fill="none" fill-rule="evenodd" stroke-linecap="round" stroke-linejoin="round">
        <g id="Help-Center---Home-Copy-44" transform="translate(-899.000000, -220.000000)" stroke="#D0DADA" stroke-width="1.5">
            <g id="Group-7" transform="translate(393.000000, 142.000000)">
                <g id="bg_icon_15" transform="translate(507.000000, 79.000000)">
                    <path d="M52,65 C52,55.3817268 45.2768089,47.3261384 36.2437586,45.2004731 C40.3318757,43.3935541 43.1858443,39.3326434 43.1858443,34.6011236 C43.1858443,28.1951508 37.9532211,23 31.5010424,23 C25.0467789,23 19.8141557,28.1951508 19.8141557,34.6011236 C19.8141557,39.3326434 22.6681243,43.3935541 26.7562414,45.2004731 C17.7231911,47.3261384 11,55.3817268 11,65" id="Stroke-51"></path>
                    <path d="M25.115346,59.5599788 C24.3752214,58.8133996 24.004134,57.8372627 24.0000336,56.8590579 C23.9959332,55.8705125 24.3670206,54.8798991 25.115346,54.1250476 C25.8575207,53.3764003 26.8293186,53.0020766 27.8011165,53.0000085 C28.779065,52.9979404 29.7570135,53.3722641 30.5032887,54.1250476 L31.499689,55.1322057 L32.4981396,54.1250476 C33.2423646,53.3743322 34.2162127,53.0000085 35.192111,53.0000085 C36.1659591,53.0000085 37.1418574,53.3743322 37.8860823,54.1250476 C38.646709,54.8943757 39.0177963,55.90567 38.9993445,56.9128281 C38.9829428,57.8724202 38.6118554,58.8278762 37.8860823,59.5599788 L31.499689,66 L25.115346,59.5599788 Z" id="Stroke-52"></path>
                    <path d="M66,39.5 C66,35.9097996 63.0906633,33 59.5010339,33 C55.9114045,33 53,35.9097996 53,39.5 C53,43.0902004 55.9114045,46 59.5010339,46 C63.0906633,46 66,43.0902004 66,39.5 Z" id="Stroke-53"></path>
                    <path d="M38,6.5 C38,2.90979955 35.0906633,0 31.4989661,0 C27.9114045,0 25,2.90979955 25,6.5 C25,10.0902004 27.9114045,13 31.4989661,13 C35.0906633,13 38,10.0902004 38,6.5 Z" id="Stroke-54"></path>
                    <polygon id="Stroke-55" points="2 23 15 23 15 10 2 10"></polygon>
                    <polygon id="Stroke-56" points="49 13.75 55.5 10 62 13.75 62 21.25 55.5 25 49 21.25"></polygon>
                    <polygon id="Stroke-57" points="6.5 32 0 45 13 45"></polygon>
                </g>
            </g>
        </g>
    </g>
</svg>