<?xml version="1.0" encoding="UTF-8"?>
<svg width="75px" height="75px" viewBox="0 0 75 75" version="1.1" xmlns="http://www.w3.org/2000/svg" xmlns:xlink="http://www.w3.org/1999/xlink">
    <!-- Generator: Sketch 43.2 (39069) - http://www.bohemiancoding.com/sketch -->
    <title>bg_icon_10</title>
    <desc>Created with Sketch.</desc>
    <defs></defs>
    <g id="Page-2" stroke="none" stroke-width="1" fill="none" fill-rule="evenodd" stroke-linecap="round" stroke-linejoin="round">
        <g id="Help-Center---Home-Copy-44" transform="translate(-718.000000, -141.000000)" stroke="#D0DADA" stroke-width="1.5">
            <g id="Group-7" transform="translate(393.000000, 142.000000)">
                <g id="bg_icon_10" transform="translate(326.000000, 0.000000)">
                    <path d="M22,37 C22,45.2835821 28.7164179,52 37,52 C45.2858901,52 52,45.2835821 52,37 C52,28.7141099 45.2858901,22 37,22 C28.7164179,22 22,28.7141099 22,37 Z" id="Stroke-1"></path>
                    <path d="M73,40.6867512 L73,32.3155505 C73,30.6537394 71.6512171,29.3049565 69.989406,29.3049565 L65.5701854,29.3049565 C64.3502964,29.3049565 63.2477929,28.566118 62.7851558,27.4359945 L61.4962164,24.2965065 C61.0358809,23.1732879 61.2959705,21.8820469 62.1544962,21.0235213 L65.2686657,17.9093517 C66.4448228,16.7331946 66.4448228,14.8274057 65.2686657,13.6512486 L59.3510531,7.73363602 C58.174896,6.55747888 56.2691071,6.55747888 55.0929499,7.73363602 L51.967272,10.8570122 C51.104143,11.7201413 49.8036953,11.9756274 48.6758734,11.5060853 L45.5478938,10.1964308 C44.4269769,9.72919031 43.6973452,8.6312902 43.6973452,7.41830622 L43.6973452,3.0128957 C43.6973452,1.34878295 42.3485622,0 40.6844495,0 L32.3155505,0 C30.6537394,0 29.3049565,1.34878295 29.3049565,3.0128957 L29.3049565,7.43211628 C29.3049565,8.6520053 28.566118,9.75450877 27.4359945,10.2171459 L24.2965065,11.5037836 C23.1732879,11.9641191 21.8843486,11.7063312 21.0235213,10.8478055 L17.9093517,7.73363602 C16.7331946,6.55747888 14.8274057,6.55747888 13.6512486,7.73363602 L7.73363602,13.6512486 C6.55747888,14.8274057 6.55747888,16.7331946 7.73363602,17.9093517 L10.8570122,21.0350296 C11.7201413,21.8981587 11.9779291,23.1986064 11.5060853,24.3264283 L10.1964308,27.4567095 C9.72688864,28.5753248 8.6312902,29.3049565 7.41830622,29.3049565 L3.0128957,29.3049565 C1.34878295,29.3049565 0,30.6537394 0,32.3155505 L0,40.6867512 C0,42.3485622 1.34878295,43.6973452 3.0128957,43.6973452 L7.4298146,43.6973452 C8.6520053,43.6973452 9.75220709,44.4361836 10.2171459,45.5663072 L11.5037836,48.7034935 C11.9664207,49.8290137 11.7063312,51.1179531 10.8478055,51.9764787 L7.73363602,55.0929499 C6.55747888,56.2691071 6.55747888,58.174896 7.73363602,59.3510531 L13.6512486,65.2709673 C14.8274057,66.4448228 16.7331946,66.4448228 17.9093517,65.2709673 L21.0350296,62.1452894 C21.8981587,61.2798587 23.1986064,61.0243726 24.3264283,61.4962164 L27.4544079,62.8035692 C28.5753248,63.2731114 29.3049565,64.3687098 29.3049565,65.5816938 L29.3049565,69.989406 C29.3049565,71.6535187 30.6537394,73 32.3155505,73 L40.6844495,73 C42.3485622,73 43.6973452,71.6535187 43.6973452,69.989406 L43.6973452,65.5724871 C43.6973452,64.3479947 44.4361836,63.2477929 45.5663072,62.7851558 L48.7034935,61.4962164 C49.8267121,61.0358809 51.1179531,61.2936688 51.9764787,62.1521945 L55.0929499,65.2709673 C56.2691071,66.4448228 58.174896,66.4448228 59.3510531,65.2709673 L65.2686657,59.3510531 C66.4448228,58.1771976 66.4448228,56.2691071 65.2686657,55.0929499 L62.1452894,51.967272 C61.2798587,51.1018413 61.0243726,49.8036953 61.4962164,48.6758734 L62.8058709,45.5455921 C63.2731114,44.4269769 64.3687098,43.6973452 65.5839955,43.6973452 L69.989406,43.6973452 C71.6512171,43.6973452 73,42.3485622 73,40.6867512 Z" id="Stroke-3"></path>
                </g>
            </g>
        </g>
    </g>
</svg>