<?xml version="1.0" encoding="UTF-8"?>
<svg width="57px" height="49px" viewBox="0 0 57 49" version="1.1" xmlns="http://www.w3.org/2000/svg" xmlns:xlink="http://www.w3.org/1999/xlink">
    <!-- Generator: Sketch 43.2 (39069) - http://www.bohemiancoding.com/sketch -->
    <title>bg_icon_4</title>
    <desc>Created with Sketch.</desc>
    <defs></defs>
    <g id="Page-2" stroke="none" stroke-width="1" fill="none" fill-rule="evenodd" stroke-linecap="round" stroke-linejoin="round">
        <g id="Help-Center---Home-Copy-44" transform="translate(-523.000000, -174.000000)" stroke="#D0DADA" stroke-width="1.5">
            <g id="Group-7" transform="translate(393.000000, 142.000000)">
                <g id="bg_icon_4" transform="translate(131.000000, 33.000000)">
                    <path d="M4.09083743,23.7156154 C1.36997099,21.009252 0,17.4628638 0,13.9147507 C0,10.3528384 1.35783201,6.78747626 4.09083743,4.06731369 C6.81690629,1.35750051 10.3892357,6.56686672e-06 13.9615651,6.56686672e-06 C17.5373628,-0.00171833013 21.1148947,1.35405071 23.8426977,4.06731369 L27.5,7.70512146 L31.1573023,4.06731369 C33.8868395,1.35232581 37.4678396,-0.00344322713 41.0471056,6.56686672e-06 C44.6159667,0.00345636087 48.1848278,1.3592254 50.9091626,4.06731369 C53.6369656,6.78230157 55,10.3355894 55,13.892327 C55,17.4473397 53.6369656,21.0023524 50.9091626,23.7156154 L27.5,47 L4.09083743,23.7156154 Z" id="Stroke-70"></path>
                </g>
            </g>
        </g>
    </g>
</svg>