<?xml version="1.0" encoding="UTF-8"?>
<svg width="30px" height="20px" viewBox="0 0 30 20" version="1.1" xmlns="http://www.w3.org/2000/svg" xmlns:xlink="http://www.w3.org/1999/xlink">
    <!-- Generator: Sketch 43.2 (39069) - http://www.bohemiancoding.com/sketch -->
    <title>bg_icon_5</title>
    <desc>Created with Sketch.</desc>
    <defs></defs>
    <g id="Page-2" stroke="none" stroke-width="1" fill="none" fill-rule="evenodd" stroke-linecap="round" stroke-linejoin="round">
        <g id="Help-Center---Home-Copy-44" transform="translate(-551.000000, -247.000000)" stroke="#D0DADA" stroke-width="1.5">
            <g id="Group-7" transform="translate(393.000000, 142.000000)">
                <g id="bg_icon_5" transform="translate(159.000000, 106.000000)">
                    <path d="M10.0637571,17.6791204 L25.6009533,8.83102765 C27.0964935,7.97852466 27.9510878,6.45290135 27.9978786,4.86632276 C28.0234811,4.01904452 27.8177782,3.15435048 27.3569329,2.36715672 C26.4935101,0.892909985 24.9476477,0.0499856872 23.3408691,0.00209226119 C22.4809777,-0.0231606362 21.6034294,0.179733332 20.8035714,0.635156274 L1.77383871,11.4712616 C0.624373992,12.1260954 -0.0130403907,13.3190771 0.000202290356,14.5407948 C0.00638220819,15.1224822 0.159997309,15.711136 0.476055964,16.2501547 C1.12406449,17.3577991 2.29206896,17.983026 3.49980148,17.999571 C4.11779326,18.0091496 4.74637919,17.8585031 5.32111155,17.5310862 L19.9525084,9.19937163 C20.6835044,8.78226343 21.0949104,8.02903046 21.1010903,7.25141538 C21.1037389,6.86217244 21.0048602,6.46683398 20.7929773,6.10458552 C20.3771571,5.39489203 19.629387,4.98997488 18.8542488,4.97255909 C18.4481399,4.96298041 18.0340854,5.06137963 17.6562275,5.27646465 L6.51648423,11.6192958" id="Stroke-13"></path>
                </g>
            </g>
        </g>
    </g>
</svg>