<svg width="34" height="34" viewBox="0 0 34 34" xmlns="http://www.w3.org/2000/svg"><title>overview3_main_bg-icon01</title><path d="M24.532 33.426L.362 24.63 9.193.367 33.436 9.19l-8.83 24.263-.074-.027zm-22.237-9.76l21.302 7.754 3.342-9.181-1.598-3.431a2.252 2.252 0 0 0-2.94-1.07l-5.084 2.348a3.846 3.846 0 0 1-4.999-1.82 2.205 2.205 0 0 0-2.94-1.07l-5.59 2.598-1.404 3.855-.09.017zm7.76-21.32l-5.602 15.39 4.292-2.003a3.768 3.768 0 0 1 4.999 1.82 2.252 2.252 0 0 0 2.94 1.07l5.054-2.36a3.753 3.753 0 0 1 4.999 1.82l.934 2.006 3.664-10.064-21.186-7.71-.094.031z" fill="#D8D8D8" fill-rule="evenodd"/></svg>