<svg width="35" height="37" viewBox="0 0 35 37" xmlns="http://www.w3.org/2000/svg"><title>overview3_main_bg-icon03</title><g fill="#D8D8D8" fill-rule="evenodd"><path d="M18.113.36c-.477-.24-.715-.36-1.19-.24L1.21 4.448c-.715.24-1.19.961-.953 1.682l7.857 29.09c.119.721.952 1.202 1.666.962L33.35 29.69c.714-.24 1.19-.961.952-1.682L28.588 6.852c-.12-.601-.357-.722-.834-.962L18.113.36zm9.165 6.972l-7.856 2.164-2.143-7.933 10 5.77zM1.567 5.89L15.97 1.923l2.38 8.655c.12.36.477.601.834.48l8.57-2.403 5.357 19.833L9.542 34.98 1.567 5.89z" fill-rule="nonzero"/><path d="M7.656 18.109a.997.997 0 0 1 .715-1.222l16.139-4.324a1.003 1.003 0 0 1 1.23.7l3.232 12.063a.997.997 0 0 1-.715 1.222l-16.139 4.324a1.003 1.003 0 0 1-1.23-.7L7.656 18.108zm1.99 1.137l.732 2.73a.995.995 0 0 0 1.217.709l3.587-.961a.998.998 0 0 0 .7-1.223l-.732-2.73a.995.995 0 0 0-1.217-.709l-3.587.961a.998.998 0 0 0-.7 1.223zm1.666 6.216l.731 2.73a.995.995 0 0 0 1.218.708l3.586-.96a.998.998 0 0 0 .7-1.223l-.732-2.73a.995.995 0 0 0-1.217-.71l-3.586.962a.998.998 0 0 0-.7 1.223zm5.41-8.112l.732 2.73c.143.536.69.85 1.223.707l5.934-1.59a1 1 0 0 0 .705-1.224l-.731-2.73a.998.998 0 0 0-1.223-.707l-5.934 1.59a1 1 0 0 0-.706 1.224zm1.666 6.216l.731 2.73c.144.535.69.85 1.223.707l5.934-1.59a1 1 0 0 0 .705-1.224l-.731-2.73a.998.998 0 0 0-1.223-.708l-5.934 1.59a1 1 0 0 0-.705 1.225z"/></g></svg>