<svg width="41" height="42" viewBox="0 0 41 42" xmlns="http://www.w3.org/2000/svg"><title>overview3_main_bg-icon04</title><g fill-rule="nonzero" fill="#D8D8D8"><path d="M38.43 29.45c-.094.112-.188.224-.302.128-.303.128-.74-.048-.99-.448-2.335-5.587-8.01-8.821-13.806-7.958-.303.128-.646-.16-.78-.464a.802.802 0 0 1 .126-.849c1.806-1.92 2.468-4.801 1.368-7.442-1.505-3.554-5.557-5.235-8.999-3.924-3.535 1.424-5.137 5.426-3.747 8.883.986 2.546 3.464 4.243 6.309 4.34.323.08.552.272.687.576.135.304.061.624-.241.752-4.811 3.408-6.625 9.523-4.29 15.11.135.303-.032.736-.429.976-.302.128-.74-.049-.99-.449-2.335-5.586-.958-11.877 3.489-15.782-2.584-.64-4.759-2.465-5.745-5.01-1.795-4.37.256-9.14 4.606-10.836 4.349-1.696 9.181.45 10.977 4.82.985 2.545.835 5.282-.629 7.49 5.973-.142 11.366 3.428 13.7 9.015-.052.528-.126.848-.314 1.072z"/><path d="M35.733 34.06c-2.068 2.464-4.614 4.337-7.848 5.633-10.21 4.031-22.063-1.141-26.328-11.402-4.266-10.26.674-21.96 10.885-25.993C22.653-1.733 34.505 3.44 38.771 13.7c3.01 7.107 1.474 14.982-3.038 20.36zM5.74 8.892C1.51 13.933.121 21.168 2.881 27.875c3.881 9.557 14.952 14.265 24.464 10.601 9.512-3.664 14.003-14.595 10.122-24.152C33.586 4.767 22.515.059 13.003 3.724 9.957 4.794 7.619 6.65 5.739 8.891z"/></g></svg>