<svg width="33" height="39" viewBox="0 0 33 39" xmlns="http://www.w3.org/2000/svg"><title>overview3_main_bg-icon05</title><g fill="#D8D8D8" fill-rule="evenodd"><path d="M29.462 9.414c-.185-.462-.247-.616-.632-.906L15.841 1.08c-.6-.383-1.368-.07-1.705.424L.43 25.409c-.383.603-.074 1.372.418 1.708L20.256 38.29c.6.382 1.368.07 1.705-.424l9.908-17.353c.29-.386.275-.648.09-1.11l-2.497-9.988zm1.529 10.47l-6.418-3.744 3.752-6.444 2.666 10.189zM15.275 2.117l11.85 6.816-4.027 7.092c-.138.324-.014.632.263.877l7.064 4.019-9.341 16.317L1.677 26.065l13.598-23.95z" fill-rule="nonzero"/><g stroke="#D8D8D8" stroke-width=".5"><path d="M16.524 18.328l.63-1.047-7.86.877 2.915 7.351.63-1.047-2.174-5.48 5.859-.654zM20.05 20.447l.63-1.047 2.916 7.351-7.86.877.629-1.047 5.86-.654-2.174-5.48z"/></g></g></svg>