<svg width="483" height="158" viewBox="0 0 483 158" xmlns="http://www.w3.org/2000/svg"><title>overview3_main</title><defs><linearGradient x1="0%" y1="50%" y2="50%" id="a"><stop stop-color="#6C63AC" offset="0%"/><stop stop-color="#02B6CB" offset="100%"/></linearGradient></defs><g fill="none" fill-rule="evenodd"><path d="M460.06 156.64c.146-.149.146-.298.146-.448-.878-13.748-11.407-24.807-24.861-26.302-15.21-1.643-28.957 9.714-30.565 25.256 0 .3 0 .598-.146.897 0 .15 0 .299.146.448m1.316-.15c0-.298 0-.597.146-.896 1.463-14.795 14.478-25.555 28.956-23.91 12.723 1.344 22.668 11.805 23.545 24.807 0 .15 0 .299.147.299h-16.672c1.316-1.794 2.194-3.886 2.486-6.127.293-3.139-.585-6.128-2.486-8.519-1.901-2.39-4.68-3.885-7.605-4.184-6.288-.598-11.845 4.035-12.43 10.312-.293 3.138.585 6.127 2.486 8.518h-18.427c-.146-.15-.146-.15-.146-.3m19.597-.597c-1.755-2.092-2.487-4.782-2.194-7.472.585-5.53 5.41-9.564 10.968-8.967 2.632.3 4.972 1.644 6.727 3.736 1.609 2.093 2.486 4.783 2.194 7.473-.146 1.942-1.024 3.885-2.194 5.38a.971.971 0 0 0 0 .896h-15.209c-.146-.448-.146-.747-.292-1.046z" fill="#D8D8D8" fill-rule="nonzero"/><g transform="translate(34 109)" fill-rule="nonzero" fill="#D8D8D8"><ellipse transform="rotate(-83.645 19.26 18.152)" cx="19.26" cy="18.152" rx="2.047" ry="2.092"/><path d="M22.521 3.288c-.292-.449-.438-.598-1.023-.598L5.558.897c-.732-.15-1.463.448-1.463 1.195L.877 31.981c-.146.747.44 1.494 1.17 1.494l23.838 2.69c.731.15 1.462-.448 1.462-1.195l2.34-21.67c0-.597 0-.747-.438-1.195L22.52 3.288zm5.996 9.714l-8.043-.897.877-8.22 7.166 9.117zM5.411 2.242l14.624 1.644-1.023 8.817c0 .299.292.747.585.747l8.628 1.046L26.03 34.82 2.047 32.13 5.411 2.242z"/><path d="M26.616 35.568c-.292 0-.439-.15-.585-.449l-5.703-10.162-4.534 2.242c-.292.15-.731.15-1.023 0a1.782 1.782 0 0 1-.732-.748L10.53 16.29l-6.873 4.185c-.292.15-.731.15-1.024-.3a.798.798 0 0 1 .293-1.045l7.02-4.334c.292-.15.73-.299 1.17-.15.438.15.73.449.73.748l3.657 10.311 4.387-2.241c.585-.3 1.316 0 1.755.597l5.703 10.312a.798.798 0 0 1-.292 1.046c-.146.15-.293.15-.439.15z"/></g><g fill-rule="nonzero" fill="#D8D8D8"><path d="M164.05 3.867c-.476-.487-.635-.65-1.27-.812L142.62.622c-.953-.162-1.747.649-1.905 1.46L136.27 39.88c-.159.973.635 1.784 1.429 1.946l30.16 3.731c.953.162 1.747-.649 1.906-1.46l3.175-27.414c.158-.65 0-.974-.477-1.46L164.05 3.867zm7.46 12.49l-10-1.298 1.27-10.22 8.73 11.518zM142.46 2.244l18.415 2.271-1.27 11.193c0 .487.318.811.794.974l10.953 1.297-3.016 25.793-30.161-3.731 4.286-37.797z"/><path d="M154.208 33.39l-.635 5.19-3.334-.486.635-5.19zM151.222 29.656l.21-1.733 3.382.408-.21 1.734zM151.719 24.457l.21-1.734 3.382.41-.21 1.733zM152.355 19.274l.21-1.734 3.382.41-.21 1.733zM152.99 14.09l.21-1.733 3.383.409-.21 1.733zM153.611 9.05l.21-1.734 3.382.41-.21 1.733z"/></g><path d="M399 157.5v-1h82v1h-82zm0-1h82v1h-82v-1zm-324 0v1H0v-1h75zm0 1H0v-1h75v1z" stroke="url(#a)" stroke-linecap="round" stroke-linejoin="round" transform="translate(1)"/></g></svg>