<svg width="57" height="49" viewBox="0 0 57 49" xmlns="http://www.w3.org/2000/svg"><title>bg_icon_4</title><path d="M5.09 24.716A13.788 13.788 0 0 1 1 14.915c0-3.562 1.358-7.128 4.09-9.848A13.961 13.961 0 0 1 14.963 1a13.96 13.96 0 0 1 9.88 4.067L28.5 8.705l3.657-3.638A13.962 13.962 0 0 1 42.047 1a13.966 13.966 0 0 1 9.862 4.067A13.814 13.814 0 0 1 56 14.892a13.81 13.81 0 0 1-4.09 9.824L28.5 48 5.09 24.716z" stroke="#D0DADA" stroke-width="1.5" fill="none" fill-rule="evenodd" stroke-linecap="round" stroke-linejoin="round"/></svg>