<svg width="68" height="63" viewBox="0 0 68 63" xmlns="http://www.w3.org/2000/svg"><title>bg_icon_1</title><g stroke="#D0DADA" stroke-width="1.5" fill="none" fill-rule="evenodd" stroke-linecap="round" stroke-linejoin="round"><path d="M52 62V49.72c0-8.638-6.066-15.874-14.219-17.782 3.688-1.621 6.266-5.27 6.266-9.518C44.047 16.665 39.324 12 33.5 12c-5.824 0-10.545 4.665-10.545 10.42 0 4.249 2.576 7.897 6.266 9.518C21.068 33.846 15 41.082 15 49.72V62"/><path d="M67 51V38.72c0-8.637-6.057-15.873-14.196-17.78 3.682-1.622 6.256-5.272 6.256-9.519C59.06 5.666 54.344 1 48.529 1 42.713 1 38 5.666 38 11.421M1 51V38.72c0-8.637 6.057-15.873 14.196-17.78-3.682-1.622-6.256-5.272-6.256-9.519C8.94 5.666 13.656 1 19.471 1 25.287 1 30 5.666 30 11.421"/></g></svg>