<svg width="44" height="58" viewBox="0 0 44 58" xmlns="http://www.w3.org/2000/svg"><title>bg_icon_2</title><g stroke="#D0DADA" stroke-width="1.5" fill="none" fill-rule="evenodd"><path d="M31.25 17.737a5.5 5.5 0 1 0-5.498 9.524 5.5 5.5 0 0 0 5.498-9.524z"/><path d="M27.692 56l7.656-4.37-4.308-7.385a2.358 2.358 0 0 1 .129-2.576l5.915-8.16A30.993 30.993 0 0 0 43 15.31V3.395c0-1.84-2.007-2.99-3.616-2.07l-10.43 5.96a31.327 31.327 0 0 0-12.968 14.17l-4.183 9.149a2.404 2.404 0 0 1-2.19 1.4H1l.004 8.746" stroke-linecap="round" stroke-linejoin="round"/><path d="M12 57c2.24-.962 5.115-2.302 6.077-3.72l.099-.144c1.697-2.496.69-5.691-2.25-7.136" stroke-linecap="round"/><path d="M8.07 56c-.12-2.344-.18-5.407.645-6.965l.085-.159c1.454-2.749 4.679-3.692 7.2-2.106" stroke-linecap="round"/></g></svg>