<svg width="46" height="52" viewBox="0 0 46 52" xmlns="http://www.w3.org/2000/svg"><title>bg_icon_14</title><g fill="none" fill-rule="evenodd"><path d="M27.527 24.823h15.96c.832 0 1.513-.628 1.513-1.394V8.392C45 7.627 44.319 7 43.486 7H21.512C20.68 7 20 7.627 20 8.392V30l7.527-5.177zM27 14h14M27 20h14" stroke="#D0DADA" stroke-width="1.5" stroke-linecap="round" stroke-linejoin="round"/><path d="M1 39h29" stroke="#D0DADA" stroke-width="1.5" stroke-linejoin="round"/><path d="M15.5 45a1.499 1.499 0 1 0 0 3 1.5 1.5 0 1 0 0-3z" fill="#D0DADA"/><path d="M30 26v22.333C30 49.807 28.795 51 27.31 51H3.69C2.205 51 1 49.807 1 48.333V3.667C1 2.193 2.205 1 3.69 1h23.62C28.795 1 30 2.193 30 3.667v3.475" stroke="#D0DADA" stroke-width="1.5" stroke-linecap="round" stroke-linejoin="round"/></g></svg>