<svg width="30" height="20" viewBox="0 0 30 20" xmlns="http://www.w3.org/2000/svg"><title>bg_icon_5</title><path d="M11.064 18.68L26.6 9.83a4.72 4.72 0 0 0 2.397-3.965 4.654 4.654 0 0 0-.641-2.499 4.808 4.808 0 0 0-4.016-2.365 4.829 4.829 0 0 0-2.537.633L2.774 12.471A3.488 3.488 0 0 0 1 15.541c.006.581.16 1.17.476 1.71A3.55 3.55 0 0 0 4.5 19a3.559 3.559 0 0 0 1.821-.469L20.953 10.2A2.262 2.262 0 0 0 22.1 8.251a2.234 2.234 0 0 0-.308-1.146 2.302 2.302 0 0 0-1.939-1.132c-.406-.01-.82.088-1.198.303L7.516 12.62" stroke="#D0DADA" stroke-width="1.5" fill="none" fill-rule="evenodd" stroke-linecap="round" stroke-linejoin="round"/></svg>