<svg width="32" height="34" viewBox="0 0 32 34" xmlns="http://www.w3.org/2000/svg"><title>bg_icon_12</title><g stroke="#D0DADA" stroke-width="1.5" fill="none" fill-rule="evenodd" stroke-linecap="round" stroke-linejoin="round"><path d="M30.082 9.394L16.56 1.61a1.323 1.323 0 0 0-1.326.002L1.811 9.39a1.316 1.316 0 0 0 .003 2.281l13.523 7.785c.411.236.916.235 1.326-.002l13.422-7.777a1.317 1.317 0 0 0-.003-2.282zM2.768 22.352l-.957.555a1.316 1.316 0 0 0 .004 2.281l13.523 7.785c.41.235.916.235 1.325-.002l13.422-7.777a1.317 1.317 0 0 0-.003-2.282l-.958-.55"/><path d="M2.768 15.557l-.957.554a1.317 1.317 0 0 0 .004 2.282l13.523 7.784c.41.236.916.236 1.325-.002L30.085 18.4a1.317 1.317 0 0 0-.003-2.282l-.958-.552"/></g></svg>