<svg width="37" height="24" viewBox="0 0 37 24" xmlns="http://www.w3.org/2000/svg"><title>bg_icon_18</title><path d="M13.58 22.608L33 11.793c1.87-1.041 2.938-2.906 2.996-4.845a5.59 5.59 0 0 0-.8-3.055c-1.08-1.802-3.012-2.832-5.02-2.89a6.145 6.145 0 0 0-3.173.773L3.217 15.02C1.78 15.82.984 17.28 1 18.772c.008.711.2 1.43.595 2.09.81 1.353 2.27 2.117 3.78 2.137a4.528 4.528 0 0 0 2.276-.572l18.29-10.183a2.755 2.755 0 0 0 1.435-2.381 2.684 2.684 0 0 0-.385-1.402c-.52-.867-1.454-1.362-2.423-1.383a2.936 2.936 0 0 0-1.498.371L9.146 15.201" stroke="#D0DADA" stroke-width="1.5" fill="none" fill-rule="evenodd" stroke-linecap="round" stroke-linejoin="round"/></svg>