<svg width="43" height="41" viewBox="0 0 43 41" xmlns="http://www.w3.org/2000/svg"><title>bg_icon_7</title><path d="M17.726 32.377h4.943v-2.47a2.854 2.854 0 0 1-1.2-2.334c0-1.571 1.247-2.844 2.787-2.844 1.538 0 2.787 1.273 2.787 2.844a2.845 2.845 0 0 1-1.506 2.513v2.291h9.036v-6.043h2.178c.466.91 1.388 1.538 2.462 1.538 1.54 0 2.787-1.274 2.787-2.844 0-1.57-1.248-2.845-2.787-2.845a2.77 2.77 0 0 0-2.288 1.226h-2.352V18.61c0-4.032-2.744-7.41-6.43-8.302a4.872 4.872 0 0 0 2.834-4.446C30.977 3.178 28.84 1 26.207 1c-2.633 0-4.767 2.178-4.767 4.863a4.87 4.87 0 0 0 2.832 4.446c-3.685.891-6.541 4.27-6.541 8.302l-.005.752h-2.234c-.466-.91-1.387-1.538-2.462-1.538-1.54 0-2.788 1.274-2.788 2.844 0 1.57 1.249 2.844 2.788 2.844.95 0 1.784-.487 2.287-1.226h2.409v10.09H8.108v2.446a2.848 2.848 0 0 1 1.2 2.333c0 1.57-1.247 2.844-2.787 2.844-1.54 0-2.787-1.274-2.787-2.844a2.84 2.84 0 0 1 1.506-2.511v-2.268H1l.001-13.77c0-4.028 2.744-7.407 6.43-8.298a4.87 4.87 0 0 1-2.833-4.446C4.598 3.178 6.732 1 9.365 1c2.634 0 4.77 2.178 4.77 4.863A4.872 4.872 0 0 1 11.3 10.31c3.687.891 6.43 4.27 6.43 8.302" stroke="#D0DADA" stroke-width="1.5" fill="none" fill-rule="evenodd" stroke-linecap="round" stroke-linejoin="round"/></svg>