<svg width="75" height="75" viewBox="0 0 75 75" xmlns="http://www.w3.org/2000/svg"><title>bg_icon_10</title><g stroke="#D0DADA" stroke-width="1.5" fill="none" fill-rule="evenodd" stroke-linecap="round" stroke-linejoin="round"><path d="M23 38c0 8.284 6.716 15 15 15 8.286 0 15-6.716 15-15 0-8.286-6.714-15-15-15-8.284 0-15 6.714-15 15z"/><path d="M74 41.687v-8.371a3.012 3.012 0 0 0-3.01-3.011h-4.42a3.012 3.012 0 0 1-2.785-1.869l-1.289-3.14a3.014 3.014 0 0 1 .658-3.272l3.115-3.115a3.01 3.01 0 0 0 0-4.258L60.35 8.734a3.01 3.01 0 0 0-4.258 0l-3.126 3.123a3.016 3.016 0 0 1-3.291.65l-3.128-1.31a3.011 3.011 0 0 1-1.85-2.779V4.013A3.013 3.013 0 0 0 41.683 1h-8.368a3.012 3.012 0 0 0-3.011 3.013v4.42c0 1.219-.739 2.322-1.869 2.784l-3.14 1.287a3.014 3.014 0 0 1-3.272-.656l-3.115-3.114a3.01 3.01 0 0 0-4.258 0L8.734 14.65a3.01 3.01 0 0 0 0 4.258l3.123 3.126a3.012 3.012 0 0 1 .65 3.291l-1.31 3.13a3.015 3.015 0 0 1-2.779 1.849H4.013A3.012 3.012 0 0 0 1 33.315v8.372a3.012 3.012 0 0 0 3.013 3.01H8.43c1.222 0 2.322.74 2.787 1.87l1.287 3.136a3.008 3.008 0 0 1-.656 3.273l-3.114 3.117a3.01 3.01 0 0 0 0 4.258l5.917 5.92a3.015 3.015 0 0 0 4.258 0l3.126-3.126a3.008 3.008 0 0 1 3.291-.649l3.128 1.308a3.014 3.014 0 0 1 1.851 2.778v4.407A3.01 3.01 0 0 0 33.315 74h8.37a3.01 3.01 0 0 0 3.012-3.01v-4.418a3.01 3.01 0 0 1 1.87-2.787l3.136-1.289a3.013 3.013 0 0 1 3.273.656l3.117 3.119a3.015 3.015 0 0 0 4.258 0l5.918-5.92a3.01 3.01 0 0 0 0-4.258l-3.124-3.126a3.008 3.008 0 0 1-.649-3.291l1.31-3.13a3.01 3.01 0 0 1 2.778-1.849h4.405A3.012 3.012 0 0 0 74 41.687z"/></g></svg>