<svg width="39" height="39" viewBox="0 0 39 39" xmlns="http://www.w3.org/2000/svg"><title>bg_icon_17</title><g stroke="#D0DADA" stroke-width="1.5" fill="none" fill-rule="evenodd" stroke-linecap="round" stroke-linejoin="round"><path d="M12 19.5a7.5 7.5 0 1 0 15 0 7.5 7.5 0 0 0-15 0z"/><path d="M38 21.622V17.38c0-.842-.684-1.526-1.526-1.526h-2.24a1.526 1.526 0 0 1-1.411-.947l-.654-1.591a1.528 1.528 0 0 1 .334-1.66l1.578-1.578a1.526 1.526 0 0 0 0-2.158l-2.999-3a1.526 1.526 0 0 0-2.158 0L27.34 6.504a1.529 1.529 0 0 1-1.669.329l-1.585-.664a1.526 1.526 0 0 1-.938-1.408V2.527c0-.843-.684-1.527-1.527-1.527h-4.242c-.842 0-1.526.684-1.526 1.527v2.24c0 .618-.374 1.177-.947 1.412l-1.591.652a1.528 1.528 0 0 1-1.66-.333L10.078 4.92a1.526 1.526 0 0 0-2.158 0l-3 3a1.526 1.526 0 0 0 0 2.157l1.584 1.585c.437.437.568 1.096.329 1.668l-.664 1.586a1.528 1.528 0 0 1-1.408.937H2.527c-.843 0-1.527.684-1.527 1.526v4.243c0 .842.684 1.526 1.527 1.526h2.239c.62 0 1.177.374 1.413.947l.652 1.59c.234.57.102 1.224-.333 1.66L4.92 28.923a1.526 1.526 0 0 0 0 2.158l3 3a1.528 1.528 0 0 0 2.157 0l1.585-1.584a1.524 1.524 0 0 1 1.668-.329l1.585.663c.568.238.938.793.938 1.408v2.234c0 .844.684 1.526 1.526 1.526h4.242c.843 0 1.527-.682 1.527-1.526v-2.239c0-.62.374-1.178.947-1.412l1.59-.654a1.527 1.527 0 0 1 1.66.333l1.579 1.58a1.528 1.528 0 0 0 2.158 0l3-3a1.526 1.526 0 0 0 0-2.158l-1.584-1.584a1.525 1.525 0 0 1-.329-1.669l.664-1.586a1.526 1.526 0 0 1 1.408-.937h2.233c.842 0 1.526-.684 1.526-1.526z"/></g></svg>