<svg width="68" height="68" viewBox="0 0 68 68" xmlns="http://www.w3.org/2000/svg"><title>bg_icon_15</title><g stroke="#D0DADA" stroke-width="1.5" fill="none" fill-rule="evenodd" stroke-linecap="round" stroke-linejoin="round"><path d="M53 66c0-9.618-6.723-17.674-15.756-19.8 4.088-1.806 6.942-5.867 6.942-10.599C44.186 29.195 38.953 24 32.5 24c-6.454 0-11.687 5.195-11.687 11.601 0 4.732 2.854 8.793 6.942 10.6C18.723 48.325 12 56.38 12 66"/><path d="M26.115 60.56A3.846 3.846 0 0 1 25 57.86a3.849 3.849 0 0 1 1.115-2.735A3.78 3.78 0 0 1 28.801 54a3.78 3.78 0 0 1 2.702 1.125l.997 1.007.998-1.007A3.778 3.778 0 0 1 36.192 54c.974 0 1.95.374 2.694 1.125.76.77 1.132 1.78 1.113 2.788a3.842 3.842 0 0 1-1.113 2.647L32.5 67l-6.385-6.44zM67 40.5a6.5 6.5 0 1 0-12.998.002A6.5 6.5 0 0 0 67 40.5zM39 7.5a6.5 6.5 0 1 0-13 0 6.5 6.5 0 0 0 13 0zM3 24h13V11H3zM50 14.75L56.5 11l6.5 3.75v7.5L56.5 26 50 22.25zM7.5 33L1 46h13z"/></g></svg>