<svg width="26" height="34" viewBox="0 0 26 34" xmlns="http://www.w3.org/2000/svg"><title>bg_icon_9</title><g stroke="#D0DADA" stroke-width="1.5" fill="none" fill-rule="evenodd"><path d="M18.294 10.68c-1.463-.833-3.333-.339-4.178 1.103a2.99 2.99 0 0 0 1.12 4.117c1.463.833 3.333.338 4.177-1.103a2.99 2.99 0 0 0-1.119-4.118z"/><path d="M16.253 32.536l4.374-2.506-2.461-4.234a1.356 1.356 0 0 1 .073-1.477l3.38-4.678A17.812 17.812 0 0 0 25 9.205V2.373c0-1.055-1.147-1.715-2.066-1.188l-5.96 3.419a17.94 17.94 0 0 0-7.41 8.124l-2.39 5.246a1.374 1.374 0 0 1-1.252.803H1l.002 5.014" stroke-linecap="round" stroke-linejoin="round"/><path d="M7.118 33c1.205-.568 2.75-1.359 3.268-2.195l.053-.086c.913-1.473.37-3.359-1.21-4.212" stroke-linecap="round"/><path d="M4.806 32.072c-.07-1.304-.106-3.009.38-3.876l.049-.088c.856-1.53 2.753-2.055 4.236-1.172" stroke-linecap="round"/></g></svg>