<?xml version="1.0" encoding="UTF-8"?>
<svg width="24px" height="20px" viewBox="0 0 24 20" version="1.1" xmlns="http://www.w3.org/2000/svg" xmlns:xlink="http://www.w3.org/1999/xlink">
    <defs></defs>
    <g id="Page-2" stroke="none" stroke-width="1" fill="none" fill-rule="evenodd">
        <g id="Help-Center---Home-Copy-44" transform="translate(-175.000000, -3404.000000)" fill="#FFFFFF">
            <g id="Group-26" transform="translate(174.000000, 3235.000000)">
                <g id="Group-18" transform="translate(1.000000, 167.000000)">
                    <g id="Download_24" transform="translate(0.000000, 2.000000)">
                        <g id="Group">
                            <g>
                                <path d="M23.026,13.585 C22.6117864,13.585 22.276,13.9207864 22.276,14.335 L22.324,18.379 L1.724,18.427 L1.724,14.335 C1.724,13.9207864 1.38821356,13.585 0.974,13.585 C0.559786438,13.585 0.224,13.9207864 0.224,14.335 L0.224,18.427 C0.224,19.228 0.875,19.879 1.676,19.879 L22.324,19.879 C23.125,19.879 23.776,19.228 23.776,18.427 L23.776,14.335 C23.776,13.9207864 23.4402136,13.585 23.026,13.585 L23.026,13.585 Z" id="Shape"></path>
                                <path d="M11.487,15.125 C11.7016174,15.3398254 12.024704,15.4038108 12.305,15.287 C12.3962016,15.249583 12.4791199,15.1945307 12.549,15.125 L18.119,9.555 C18.3085294,9.36547061 18.3825491,9.08922549 18.3131765,8.83032351 C18.2438039,8.57142153 18.0415785,8.36919606 17.7826765,8.29982349 C17.5237745,8.23045092 17.2475294,8.30447059 17.058,8.494 L12.768,12.784 L12.768,1.428 C12.768,1.01378644 12.4322136,0.678 12.018,0.678 C11.6037864,0.678 11.268,1.01378644 11.268,1.428 L11.268,12.784 L6.978,8.494 C6.78847061,8.30447059 6.51222549,8.23045093 6.25332351,8.2998235 C5.99442154,8.36919607 5.79219607,8.57142154 5.7228235,8.83032351 C5.65345093,9.08922549 5.72747059,9.36547061 5.917,9.555 L11.487,15.125 L11.487,15.125 Z" id="Shape"></path>
                            </g>
                        </g>
                    </g>
                </g>
            </g>
        </g>
    </g>
</svg>