<svg width="49" height="48" viewBox="0 0 49 48" xmlns="http://www.w3.org/2000/svg"><title>watson_picto-user_presentation@1x</title><g fill="none" fill-rule="evenodd"><path d="M47.33 46.51c0-6.722-4.666-12.353-10.935-13.84a8.105 8.105 0 0 0 4.818-7.407 8.11 8.11 0 0 0-8.111-8.11 8.109 8.109 0 0 0-8.11 8.11 8.105 8.105 0 0 0 4.819 7.407c-6.27 1.487-10.936 7.118-10.936 13.84" stroke="#FFF" stroke-width="1.5" stroke-linecap="round" stroke-linejoin="round"/><path d="M33.103 17.152V2.843a2.04 2.04 0 0 0-2.04-2.039h-27.4a2.04 2.04 0 0 0-2.038 2.04v32.239h23.004" stroke="#FFF" stroke-width="1.5"/><path d="M33.103 6.365H1.625" stroke="#FFF" stroke-width="1.5" stroke-linejoin="round"/><path d="M29.718 3.18a1.013 1.013 0 1 0 0 2.026 1.013 1.013 0 0 0 0-2.026zM25.321 3.18a1.013 1.013 0 1 0 0 2.027 1.013 1.013 0 0 0 0-2.027zM20.923 3.18a1.013 1.013 0 1 0 0 2.026 1.013 1.013 0 0 0 0-2.026z" fill="#FFF"/><path d="M6.964 16.365h8.78M6.964 11.365h8.78M6.964 21.365h8.78" stroke="#FFF" stroke-width="1.5" stroke-linecap="round" stroke-linejoin="round"/></g></svg>