<?xml version="1.0" encoding="UTF-8"?>
<svg width="48px" height="48px" viewBox="0 0 48 48" version="1.1" xmlns="http://www.w3.org/2000/svg" xmlns:xlink="http://www.w3.org/1999/xlink">
    <!-- Generator: Sketch 43.2 (39069) - http://www.bohemiancoding.com/sketch -->
    <title>getstarted_plus</title>
    <desc>Created with Sketch.</desc>
    <defs></defs>
    <g id="Page-1" stroke="none" stroke-width="1" fill="none" fill-rule="evenodd">
        <g id="Help-Center---Home-Copy-32" transform="translate(-124.000000, -3115.000000)" fill="#FFFFFF">
            <g id="Get-started" transform="translate(0.000000, 2577.000000)">
                <g id="Group-5">
                    <g id="create" transform="translate(124.000000, 538.000000)">
                        <g id="getstarted_plus">
                            <g id="Group">
                                <path d="M37.988125,0.140125 C17.1178125,0.140125 0.13775,17.1201875 0.13775,37.9916875 C0.13775,58.8631875 17.1178125,75.8420625 37.988125,75.8420625 C58.8584375,75.8420625 75.8385,58.862 75.8385,37.9905 C75.8385,17.119 58.8584375,0.140125 37.988125,0.140125 L37.988125,0.140125 Z M37.988125,73.4551875 C18.4335625,73.4551875 2.524625,57.54625 2.524625,37.9905 C2.524625,18.43475 18.4335625,2.527 37.988125,2.527 C57.5426875,2.527 73.451625,18.4359375 73.451625,37.9916875 C73.451625,57.5474375 57.5426875,73.4551875 37.988125,73.4551875 L37.988125,73.4551875 Z" id="Shape"></path>
                                <path d="M55.2650625,36.79825 L39.18275,36.79825 L39.18275,20.71475 C39.18275,20.0556327 38.6484298,19.5213126 37.9893125,19.5213126 C37.3301952,19.5213126 36.795875,20.0556327 36.795875,20.71475 L36.795875,36.7970625 L20.712375,36.7970625 C20.0532577,36.7970625 19.5189375,37.3313827 19.5189375,37.9905 C19.5189375,38.6496173 20.0532577,39.1839375 20.712375,39.1839375 L36.795875,39.1839375 L36.795875,55.26625 C36.795875,55.9253673 37.3301952,56.4596874 37.9893125,56.4596874 C38.6484298,56.4596874 39.18275,55.9253673 39.18275,55.26625 L39.18275,39.185125 L55.2650625,39.185125 C55.9241798,39.185125 56.4585,38.6508048 56.4585,37.9916875 C56.4585,37.3325702 55.9241798,36.79825 55.2650625,36.79825 L55.2650625,36.79825 Z" id="Shape"></path>
                            </g>
                        </g>
                    </g>
                </g>
            </g>
        </g>
    </g>
</svg>