<svg width="56" height="41" viewBox="0 0 56 41" xmlns="http://www.w3.org/2000/svg"><g transform="translate(1 1)" fill="none" fill-rule="evenodd"><path d="M1.256 38.75h13.738c.694 0 1.256-.55 1.256-1.231V13.73c0-.68-.562-1.231-1.256-1.231H1.256C.562 12.5 0 13.05 0 13.731V37.52c0 .68.562 1.231 1.256 1.231z" stroke="#FFF" stroke-width="1.5"/><path d="M54 29.033c0 1.225-1.03 2.217-2.302 2.217H16.5V14.375c0-1.25-.24-1.875-1.25-1.875H9V2.217C9 1.083 9.883.148 11.024.016L51.36 0C52.819 0 54 .992 54 2.217v26.816zM31 31.25v6.727M36.891 38H25" stroke="#FFF" stroke-width="1.5" stroke-linecap="round" stroke-linejoin="round"/><path d="M53.75 23h-37.5" stroke="#FFF" stroke-width="1.5"/><path d="M0 31h16.25" stroke="#FFF" stroke-width="1.5" stroke-linecap="round" stroke-linejoin="round"/><circle fill="#FFF" fill-rule="nonzero" cx="8.125" cy="35" r="1.25"/><circle fill="#FFF" fill-rule="nonzero" cx="31.25" cy="27.461" r="1.25"/></g></svg>