<?xml version="1.0" encoding="UTF-8"?>
<svg width="49px" height="48px" viewBox="0 0 49 48" version="1.1" xmlns="http://www.w3.org/2000/svg" xmlns:xlink="http://www.w3.org/1999/xlink">
    <!-- Generator: Sketch 43.2 (39069) - http://www.bohemiancoding.com/sketch -->
    <title>watson_picto-user_presentation@1x</title>
    <desc>Created with Sketch.</desc>
    <defs></defs>
    <g id="Page-1" stroke="none" stroke-width="1" fill="none" fill-rule="evenodd">
        <g id="Help-Center---Home-Copy-36" transform="translate(-485.000000, -2760.000000)">
            <g id="Group-4-Copy" transform="translate(486.000000, 2759.921875)">
                <g id="watson_picto-user_presentation" transform="translate(0.000000, 0.443359)">
                    <path d="M46.3301116,46.1453477 C46.3301116,39.4225681 41.6637964,33.7921501 35.3949665,32.3049242 C38.2325127,31.0425116 40.2125983,28.2035242 40.2125983,24.8976172 C40.2125983,20.4172052 36.5824414,16.7870483 32.1020294,16.7870483 C27.6230585,16.7870483 23.9929016,20.4172052 23.9929016,24.8976172 C23.9929016,28.2035242 25.9729872,31.0425116 28.8105334,32.3049242 C22.5417035,33.7921501 17.8753883,39.4225681 17.8753883,46.1453477" id="Stroke-51" stroke="#FFFFFF" stroke-width="1.5" stroke-linecap="round" stroke-linejoin="round"></path>
                    <path d="M32.10275,16.7870483 L32.10275,2.47826387 C32.10275,1.35275671 31.189086,0.439092768 30.0635789,0.439092768 L2.66374832,0.439092768 C1.53680005,0.439092768 0.624577214,1.35275671 0.624577214,2.47826387 L0.624577214,34.7173429 L23.6290213,34.7173429" id="Stroke-53" stroke="#FFFFFF" stroke-width="1.5"></path>
                    <path d="M32.10275,6 L0.624577214,6" id="Stroke-55" stroke="#FFFFFF" stroke-width="1.5" stroke-linejoin="round"></path>
                    <path d="M28.7183024,2.81519547 C28.1591516,2.81519547 27.7052018,3.26770411 27.7052018,3.82829602 C27.7052018,4.38744683 28.1591516,4.84139658 28.7183024,4.84139658 C29.2774532,4.84139658 29.7314029,4.38744683 29.7314029,3.82829602 C29.7314029,3.26770411 29.2774532,2.81519547 28.7183024,2.81519547 Z" id="Fill-57" fill="#FFFFFF"></path>
                    <path d="M24.3210425,2.81519547 C23.7604505,2.81519547 23.3079419,3.26770411 23.3079419,3.82829602 C23.3079419,4.38744683 23.7604505,4.84139658 24.3210425,4.84139658 C24.8801933,4.84139658 25.334143,4.38744683 25.334143,3.82829602 C25.334143,3.26770411 24.8801933,2.81519547 24.3210425,2.81519547 Z" id="Fill-59" fill="#FFFFFF"></path>
                    <path d="M19.9234943,2.81519547 C19.3643435,2.81519547 18.9103938,3.26770411 18.9103938,3.82829602 C18.9103938,4.38744683 19.3643435,4.84139658 19.9234943,4.84139658 C20.4826451,4.84139658 20.9365949,4.38744683 20.9365949,3.82829602 C20.9365949,3.26770411 20.4826451,2.81519547 19.9234943,2.81519547 Z" id="Fill-61" fill="#FFFFFF"></path>
                    <path d="M5.96389096,16 L14.7445761,16" id="Stroke-63" stroke="#FFFFFF" stroke-width="1.5" stroke-linecap="round" stroke-linejoin="round"></path>
                    <path d="M5.96389096,11 L14.7445761,11" id="Stroke-65" stroke="#FFFFFF" stroke-width="1.5" stroke-linecap="round" stroke-linejoin="round"></path>
                    <path d="M5.96389096,21 L14.7445761,21" id="Stroke-67" stroke="#FFFFFF" stroke-width="1.5" stroke-linecap="round" stroke-linejoin="round"></path>
                </g>
            </g>
        </g>
    </g>
</svg>