<svg width="76" height="76" viewBox="0 0 76 76" xmlns="http://www.w3.org/2000/svg"><title>getstarted_plus</title><g fill="#FFF" fill-rule="evenodd"><path d="M37.988.14C17.118.14.138 17.12.138 37.992c0 20.871 16.98 37.85 37.85 37.85s37.85-16.98 37.85-37.852c0-20.871-16.98-37.85-37.85-37.85zm0 73.315c-19.554 0-35.463-15.909-35.463-35.465 0-19.555 15.909-35.463 35.463-35.463 19.555 0 35.464 15.909 35.464 35.465 0 19.555-15.91 35.463-35.464 35.463z"/><path d="M55.265 36.798H39.183V20.715a1.193 1.193 0 0 0-2.387 0v16.082H20.712a1.193 1.193 0 0 0 0 2.387h16.084v16.082a1.193 1.193 0 0 0 2.387 0v-16.08h16.082a1.193 1.193 0 0 0 0-2.388z"/></g></svg>