<?xml version="1.0" encoding="UTF-8"?>
<svg width="24px" height="20px" viewBox="0 0 24 20" version="1.1" xmlns="http://www.w3.org/2000/svg" xmlns:xlink="http://www.w3.org/1999/xlink">
    <defs></defs>
    <g id="Page-2" stroke="none" stroke-width="1" fill="none" fill-rule="evenodd">
        <g id="Help-Center---Home-Copy-44" transform="translate(-175.000000, -3458.000000)" fill="#FFFFFF">
            <g id="Group-26" transform="translate(174.000000, 3235.000000)">
                <g id="Group-14" transform="translate(1.000000, 221.000000)">
                    <g id="Go-to_Linked-to_24" transform="translate(0.000000, 2.000000)">
                        <g id="Group">
                            <g>
                                <path d="M15.396,9.765 C14.9817864,9.765 14.646,10.1007864 14.646,10.515 L14.646,18.102 L1.737,18.102 L1.737,1.899 L14.646,1.899 L14.646,4.967 C14.646,5.38121356 14.9817864,5.717 15.396,5.717 C15.8102136,5.717 16.146,5.38121356 16.146,4.967 L16.146,1.149 C16.146,0.734786438 15.8102136,0.399 15.396,0.399 L0.987,0.399 C0.572786438,0.399 0.237,0.734786438 0.237,1.149 L0.237,18.852 C0.237,19.266 0.573,19.602 0.987,19.602 L15.396,19.602 C15.8102136,19.602 16.146,19.2662136 16.146,18.852 L16.146,10.515 C16.146,10.1007864 15.8102136,9.765 15.396,9.765 L15.396,9.765 Z" id="Shape"></path>
                                <path d="M23.71,7.578 C23.6999577,7.55259727 23.6882661,7.52787793 23.675,7.504 C23.661,7.477 23.654,7.448 23.636,7.422 L20.468,2.67 C20.3207568,2.44378516 20.0633163,2.31413758 19.7938998,2.33052176 C19.5244832,2.34690594 19.2846504,2.50679449 19.1659048,2.74918506 C19.0471592,2.99157563 19.0678183,3.27907752 19.22,3.502 L21.611,7.088 L11.593,7.088 C8.55570009,7.09130681 6.09430681,9.55270009 6.091,12.59 C6.091,13.0042136 6.42678644,13.34 6.841,13.34 C7.25521356,13.34 7.591,13.0042136 7.591,12.59 C7.59320492,10.3806704 9.38367038,8.59020492 11.593,8.588 L21.611,8.588 L19.22,12.174 C18.9902495,12.5189018 19.0835982,12.9847495 19.4285,13.2145 C19.7734018,13.4442505 20.2392495,13.3509018 20.469,13.006 L23.637,8.254 C23.654,8.228 23.662,8.199 23.676,8.172 C23.689,8.147 23.701,8.124 23.711,8.098 C23.7732228,7.93018858 23.7728678,7.74557086 23.71,7.578 L23.71,7.578 Z" id="Shape"></path>
                            </g>
                        </g>
                    </g>
                </g>
            </g>
        </g>
    </g>
</svg>