<?xml version="1.0" encoding="UTF-8"?>
<svg width="43px" height="44px" viewBox="0 0 43 44" version="1.1" xmlns="http://www.w3.org/2000/svg" xmlns:xlink="http://www.w3.org/1999/xlink">
    <!-- Generator: Sketch 43.2 (39069) - http://www.bohemiancoding.com/sketch -->
    <title>Group 36</title>
    <desc>Created with Sketch.</desc>
    <defs></defs>
    <g id="Page-2" stroke="none" stroke-width="1" fill="none" fill-rule="evenodd">
        <g id="Help-Center---Home-Copy-44" transform="translate(-194.000000, -1448.000000)" fill-rule="nonzero" fill="#D8D8D8">
            <g id="Group-19" transform="translate(164.000000, 1402.000000)">
                <g id="overview1_main">
                    <g id="Group-36" transform="translate(30.000000, 46.000000)">
                        <path d="M32.9410828,39.2356371 C32.9013144,39.2355774 32.861607,39.2325278 32.8222974,39.2265143 C32.3998575,39.1614652 32.1101046,38.7669799 32.1749403,38.3451672 C33.1390171,32.2235219 29.7276537,26.2515837 23.9595445,23.9632823 C23.6504346,23.8392762 23.4554048,23.5317859 23.475284,23.1997815 C23.4951631,22.867777 23.7254954,22.5856743 24.047201,22.4993182 C27.3439367,21.6199112 29.5723154,18.5542476 29.3876034,15.1523277 C29.2028914,11.7504079 26.6556376,8.94321475 23.2830037,8.42477247 C19.9103698,7.9063302 16.6353242,9.81851774 15.4342204,13.0074096 C14.2331167,16.1963014 15.4346537,19.7892127 18.3137539,21.6179711 C18.5944612,21.7967762 18.7292514,22.1347252 18.6484938,22.4572387 C18.5677362,22.7797521 18.2895139,23.0146133 17.9575526,23.0404963 C11.7671919,23.4906904 6.71462938,28.1614982 5.78956136,34.2891147 C5.72134682,34.7081092 5.32751775,34.9938219 4.90730426,34.9291694 C4.48709078,34.8645169 4.19768648,34.4736842 4.25897987,34.053625 C5.18874173,27.8885407 9.89059371,22.9674367 16.0148617,21.7495547 C13.321639,19.0804409 12.6555983,14.9837006 14.3649461,11.6011136 C16.074294,8.21852658 19.7704205,6.31910363 23.5209872,6.89586491 C27.2715539,7.47262619 30.223892,10.3944485 30.8345162,14.1338003 C31.4451405,17.8731521 29.5752291,21.5799142 26.2023737,23.3161879 C31.6762744,26.3165273 34.6776272,32.4220011 33.7061412,38.580657 C33.6477868,38.9574695 33.3229839,39.235539 32.9410828,39.2356371 Z" id="Shape"></path>
                        <path d="M21.2040951,43.0452215 C13.2831654,43.0497231 6.02765493,38.6225297 2.41881727,31.5827532 C-1.19002039,24.5429767 -0.543542594,16.0778993 4.09261613,9.66577945 C8.72877485,3.25365961 16.5727106,-0.0240769072 24.401389,1.17937566 L24.401389,1.17937566 C35.2929331,2.85472645 43.0563,12.6197625 42.2184775,23.5903363 C41.380655,34.5609101 32.2241443,43.0379075 21.2040951,43.0452215 Z M21.1805549,2.47882155 C10.6692027,2.47882592 2.03725661,10.773081 1.63480745,21.2599183 C1.2323583,31.7467556 9.20331985,40.6761363 19.6838544,41.4791618 C30.164389,42.2821873 39.4067117,34.6716997 40.6117081,24.2463541 C41.8167044,13.8210085 34.553474,4.30885451 24.165212,2.70750795 C23.1776328,2.55531652 22.1798292,2.47886415 21.1805549,2.47882155 L21.1805549,2.47882155 Z" id="Shape"></path>
                    </g>
                </g>
            </g>
        </g>
    </g>
</svg>