<svg width="43" height="43" viewBox="0 0 43 43" xmlns="http://www.w3.org/2000/svg"><title>overview1_main_bg-icon02</title><g fill-rule="nonzero" fill="#D8D8D8"><path d="M27.167 41.548a.775.775 0 0 1-.683-1.136 13.245 13.245 0 0 0-2.997-16.284.772.772 0 0 1-.205-.88.788.788 0 0 1 .772-.473 7.213 7.213 0 0 0 7.471-5.176 7.197 7.197 0 0 0-3.538-8.363 7.221 7.221 0 0 0-8.925 1.74 7.193 7.193 0 0 0-.128 9.077.772.772 0 0 1-.809 1.225A13.294 13.294 0 0 0 2.92 27.884a.775.775 0 0 1-1.367-.727A14.819 14.819 0 0 1 16.72 19.42a8.737 8.737 0 0 1 1.799-10.124 8.772 8.772 0 0 1 10.198-1.423 8.743 8.743 0 0 1-2.899 16.384 14.77 14.77 0 0 1 2.034 16.882.775.775 0 0 1-.684.41z"/><path d="M21.5 42.417C10.427 42.426 1.222 33.906.394 22.881c-.829-11.024 7-20.82 17.95-22.462 10.95-1.641 21.315 5.428 23.765 16.209 2.451 10.78-3.842 21.624-14.43 24.863a21.01 21.01 0 0 1-6.179.926zm.051-40.583C11.663 1.81 3.311 9.152 2.083 18.948.856 28.744 7.141 37.915 16.731 40.321c9.59 2.407 19.47-2.707 23.03-11.917 3.558-9.211-.325-19.625-9.05-24.271a19.47 19.47 0 0 0-9.16-2.299z"/></g></svg>