<?xml version="1.0" encoding="UTF-8"?>
<svg width="29px" height="29px" viewBox="0 0 29 29" version="1.1" xmlns="http://www.w3.org/2000/svg" xmlns:xlink="http://www.w3.org/1999/xlink">
    <!-- Generator: Sketch 43.2 (39069) - http://www.bohemiancoding.com/sketch -->
    <title>overview1_main_bg-icon03</title>
    <desc>Created with Sketch.</desc>
    <defs></defs>
    <g id="Page-2" stroke="none" stroke-width="1" fill="none" fill-rule="evenodd">
        <g id="Help-Center---Home-Copy-44" transform="translate(-406.000000, -1564.000000)" fill-rule="nonzero" fill="#D8D8D8">
            <g id="Group-19" transform="translate(164.000000, 1402.000000)">
                <g id="overview1_main">
                    <g id="overview1_main_bg-icon03" transform="translate(242.000000, 162.000000)">
                        <path d="M25.7991091,26.0925623 C25.6856188,26.0925807 25.5722386,26.0855057 25.4596338,26.0713791 L2.9543711,23.2779724 C1.46071618,23.0831514 0.404822951,21.7208797 0.590682309,20.2284344 C0.776541666,18.7359892 2.13441728,17.6733512 3.63037922,17.849647 L3.91704383,17.8850555 L4.60977792,12.329012 C5.17311677,7.95090636 8.28851935,4.32574216 12.5371153,3.10455426 C13.4162033,1.35320326 15.3096699,0.349715786 17.2551622,0.604113539 C19.2006544,0.858511293 20.7714172,2.31499064 21.1691117,4.23329712 C24.9403303,6.4548881 27.0245491,10.7049398 26.469387,15.0413966 L25.7774273,20.5982132 L26.1357968,20.6427444 C27.6361705,20.8309115 28.7009908,22.1959278 28.5163055,23.6943703 L28.5163055,23.6943703 C28.344251,25.062631 27.1803183,26.0899156 25.7991091,26.0925623 Z M3.29152338,19.3746868 C2.66292851,19.3756448 2.14328133,19.8641308 2.104504,20.4905252 C2.06572666,21.1169197 2.52116891,21.6655761 3.14486136,21.7438098 L25.650124,24.5372165 C26.3022253,24.6160476 26.8958762,24.1548124 26.9795292,23.5043395 L26.9795292,23.5043395 C27.0601675,22.8528176 26.5973757,22.259068 25.9449968,22.1770616 L24.0484571,21.9421903 L24.9324558,14.8513658 C25.4246699,11.0056069 23.5022956,7.2524764 20.0912156,5.3996132 L19.7410542,5.20788154 L19.6945932,4.81158456 C19.5323241,3.42098427 18.4438215,2.31860713 17.0534492,2.13677545 C15.6630768,1.95494377 14.3269159,2.74022552 13.8113867,4.04218394 L13.6639503,4.41327749 L13.276775,4.50837021 C9.47503805,5.45929072 6.64508738,8.63858874 6.14577987,12.5196613 L5.26302013,19.6112589 L3.43911461,19.3839642 C3.39035903,19.3778858 3.34127698,19.3747876 3.29214286,19.3746868 L3.29152338,19.3746868 Z" id="Shape"></path>
                        <path d="M14.3063516,28.1174961 C14.1311538,28.117497 13.9561246,28.1066527 13.7822711,28.0850254 L13.7822711,28.0850254 C11.4730318,27.7960092 9.83397818,25.6951493 10.1185084,23.3889912 L10.2137536,22.6211368 L18.5826256,23.6600441 L18.4866062,24.4278985 C18.2214184,26.5326491 16.4310844,28.1128428 14.3063516,28.1174961 L14.3063516,28.1174961 Z M11.6735594,24.360174 C11.8748214,25.5154311 12.8079185,26.404122 13.973226,26.550399 L13.973226,26.550399 C15.1394599,26.6945334 16.2630057,26.0605647 16.7409101,24.9887136 L11.6735594,24.360174 Z" id="Shape"></path>
                    </g>
                </g>
            </g>
        </g>
    </g>
</svg>