<svg width="44" height="44" viewBox="0 0 44 44" xmlns="http://www.w3.org/2000/svg"><title>overview1_main_bg-icon04</title><g fill-rule="nonzero" fill="#D8D8D8"><path d="M5.32 43.569A3.946 3.946 0 1 1 3.86 35.95l.88-.348-3.511-8.87A17.394 17.394 0 0 1 5.365 7.863 6.968 6.968 0 0 1 9.808.911a6.987 6.987 0 0 1 7.975 2.149 17.258 17.258 0 0 1 15.716 10.948l3.513 8.87.99-.39a3.96 3.96 0 0 1 5.131 2.22 3.95 3.95 0 0 1-2.225 5.122L6.768 43.292a3.943 3.943 0 0 1-1.449.277zm7.013-41.585a5.44 5.44 0 0 0-4.07 1.832 5.421 5.421 0 0 0-1.324 4.258l.05.395-.295.269a15.84 15.84 0 0 0-4.025 17.426l4.082 10.308-2.323.916a2.403 2.403 0 0 0-.61 4.115c.673.533 1.58.668 2.38.352l34.14-13.462a2.405 2.405 0 0 0 1.354-3.116 2.413 2.413 0 0 0-3.123-1.352l-2.43.958-4.08-10.308A15.724 15.724 0 0 0 17.39 4.6h-.4l-.23-.324a5.43 5.43 0 0 0-4.428-2.292z"/><path d="M23.562 42.176a6.355 6.355 0 0 1-5.91-4.006l-.285-.719 11.804-4.654.284.719a6.323 6.323 0 0 1-.08 4.847 6.338 6.338 0 0 1-3.49 3.37 6.31 6.31 0 0 1-2.323.443zm-4.127-3.878a4.808 4.808 0 0 0 5.881 1.998 4.788 4.788 0 0 0 2.926-5.47l-8.807 3.472z"/></g></svg>