<svg width="484" height="431" viewBox="0 0 484 431" xmlns="http://www.w3.org/2000/svg" xmlns:xlink="http://www.w3.org/1999/xlink"><title>overview1_main</title><defs><linearGradient x1="0%" y1="50%" y2="50%" id="a"><stop stop-color="#6C63AC" offset="0%"/><stop stop-color="#02B6CB" offset="100%"/></linearGradient><rect id="c" width="205.553" height="405.582" rx="20.5"/><filter x="-2.7%" y="-.9%" width="105.4%" height="102.7%" filterUnits="objectBoundingBox" id="b"><feOffset dy="2" in="SourceAlpha" result="shadowOffsetOuter1"/><feGaussianBlur stdDeviation="1.5" in="shadowOffsetOuter1" result="shadowBlurOuter1"/><feComposite in="shadowBlurOuter1" in2="SourceAlpha" operator="out" result="shadowBlurOuter1"/><feColorMatrix values="0 0 0 0 0.607843137 0 0 0 0 0.607843137 0 0 0 0 0.607843137 0 0 0 0.25 0" in="shadowBlurOuter1"/></filter></defs><g fill="none" fill-rule="evenodd"><g fill-rule="nonzero" fill="#D8D8D8"><path d="M19.059 241.898a.772.772 0 0 1-.693-1.117 14.971 14.971 0 0 1 5.459-6.02 8.745 8.745 0 0 1-5.115-8.923 8.767 8.767 0 0 1 16.312-3.4 8.736 8.736 0 0 1-1.11 10.22c4.797.701 8.95 3.698 11.121 8.027a.772.772 0 0 1-.735 1.135.774.774 0 0 1-.649-.442 13.308 13.308 0 0 0-11.61-7.33.774.774 0 0 1-.431-1.401 7.196 7.196 0 0 0 2.421-8.753 7.217 7.217 0 0 0-13.824 2.878 7.206 7.206 0 0 0 5.723 7.057.774.774 0 0 1 .165 1.458 13.404 13.404 0 0 0-6.34 6.18c-.13.264-.4.43-.694.43z"/><path d="M10.024 241.806a.774.774 0 0 1-.715-.475 21.047 21.047 0 0 1 .783-17.945 21.107 21.107 0 0 1 14.355-10.826 21.11 21.11 0 0 1 20.581 7.223 21.03 21.03 0 0 1 3.168 21.55.775.775 0 0 1-1.428-.602 19.488 19.488 0 0 0-5.124-22.223 19.565 19.565 0 0 0-22.735-2.189 19.497 19.497 0 0 0-8.17 24.415.772.772 0 0 1-.715 1.072z"/></g><g fill-rule="nonzero" fill="#D8D8D8"><path d="M443.33 241.899a.774.774 0 0 1-.596-1.265 10.471 10.471 0 0 0-.94-14.3 10.512 10.512 0 0 0-14.354-.003 10.471 10.471 0 0 0-.945 14.3.772.772 0 0 1-.47 1.26.775.775 0 0 1-.728-.28 12.014 12.014 0 0 1 1.088-16.406c4.634-4.33 11.837-4.327 16.468.005a12.014 12.014 0 0 1 1.077 16.407.775.775 0 0 1-.6.282z"/><path d="M405.054 241.899l-.055-.003a.774.774 0 0 1-.718-.825c.023-.328.052-.657.087-.987 1.588-15.161 14.52-26.596 29.785-26.34 15.266.258 27.804 12.12 28.88 27.327a.775.775 0 0 1-.72.825.786.786 0 0 1-.826-.718c-1.018-14.408-12.898-25.649-27.362-25.891-14.465-.243-26.716 10.594-28.218 24.96-.032.312-.06.622-.082.933a.774.774 0 0 1-.771.719z"/></g><path d="M320 242.5v-1h161v1H320zm0-1h161v1H320v-1zm-241 0v1H0v-1h79zm0 1H0v-1h79v1z" stroke="url(#a)" stroke-linecap="round" stroke-linejoin="round" transform="translate(1.53 -.222)"/><path d="M163 21.33a.774.774 0 0 1-.775-.761l-.075-4.89a12.539 12.539 0 0 1 7.49-11.614 5.156 5.156 0 0 1 4.856-3.548 5.157 5.157 0 0 1 4.918 3.462 12.397 12.397 0 0 1 7.693 11.316l.081 5.249a.772.772 0 0 1-.762.785h-.012a.774.774 0 0 1-.775-.761l-.08-5.249a10.86 10.86 0 0 0-7.052-10.036l-.373-.141-.101-.387a3.548 3.548 0 0 0-3.547-2.692 3.611 3.611 0 0 0-3.452 2.754l-.094.387-.37.148a10.978 10.978 0 0 0-6.872 10.302l.076 4.889a.772.772 0 0 1-.762.785H163v.002z" fill="#D8D8D8" fill-rule="nonzero"/><g transform="translate(99.53 19.778)"><use fill="#000" filter="url(#b)" xlink:href="#c"/><use fill="#FFF" xlink:href="#c"/><rect stroke="#DADADA" stroke-width="1.5" x=".75" y=".75" width="204.053" height="404.082" rx="20.5"/><rect stroke="#DADADA" stroke-width="1.5" x="79.497" y="16.718" width="46.076" height="3.5" rx="1.75"/><circle stroke="#D8D8D8" stroke-width="1.5" cx="102.748" cy="381.642" r="10.127"/></g><path d="M108.672 383.103V49.793h189v333.31h-189z" stroke="#D8D8D8" stroke-width="1.5"/></g></svg>