<?xml version="1.0" encoding="UTF-8"?>
<svg width="25px" height="25px" viewBox="0 0 25 25" version="1.1" xmlns="http://www.w3.org/2000/svg" xmlns:xlink="http://www.w3.org/1999/xlink">
    <defs>
        <linearGradient x1="0.0687138605%" y1="49.9559508%" x2="99.9768385%" y2="49.9559508%" id="linearGradient-1">
            <stop stop-color="#6B63AB" offset="0%"></stop>
            <stop stop-color="#00B4CA" offset="100%"></stop>
        </linearGradient>
    </defs>
    <g id="Page-2" stroke="none" stroke-width="1" fill="none" fill-rule="evenodd">
        <g id="Help-Center---Home-Copy-44" transform="translate(-36.000000, -24.000000)" fill-rule="nonzero" fill="url(#linearGradient-1)">
            <g id="IconWIP" transform="translate(32.000000, 20.000000)">
                <path d="M28.27,17.67 C28.4318599,16.5979301 28.3636827,15.5036872 28.07,14.46 C27.8622883,13.7270164 27.3535113,13.1164839 26.67,12.78 C26.279546,12.6002513 25.845306,12.5377207 25.42,12.6 C24.9409538,12.7180721 24.5298795,13.0245749 24.28,13.45 C23.42,14.86 23.28,16.45 22.65,17.9 C22.5480682,18.2072999 22.3730563,18.48526 22.14,18.71 L22.05,18.71 L22.05,18.71 L21.98,18.71 C22.03,18.71 21.87,18.62 21.8,18.48 C21.4359914,17.7402405 21.1671839,16.9573388 21,16.15 C20.78,15.28 20.58,14.39 20.33,13.47 C20.2035885,12.9981871 20.0499988,12.534079 19.87,12.08 C19.6787838,11.5293559 19.3312933,11.0463441 18.87,10.69 C18.5196778,10.45083 18.0661418,10.4239253 17.69,10.62 C17.3910056,10.8023818 17.1540078,11.0707469 17.01,11.39 C16.7846396,11.8590063 16.6135328,12.3521964 16.5,12.86 C16.26,13.86 16.11,14.78 15.96,15.74 C15.81,16.7 15.67,17.64 15.49,18.57 C15.365113,19.4467044 15.1089067,20.2996019 14.73,21.1 C14.6815074,21.1853004 14.6128349,21.2574065 14.53,21.31 L14.53,21.31 L14.38,21.31 L14.38,21.31 L14.31,21.31 C14.038493,21.0251517 13.8335687,20.6836112 13.71,20.31 C13.3874783,19.4819487 13.1202253,18.6334202 12.91,17.77 C12.68,16.9 12.46,16.04 12.17,15.18 C12.027344,14.7337865 11.8362023,14.3045561 11.6,13.9 C11.446035,13.6439459 11.233558,13.4280419 10.98,13.27 C10.7945119,13.165253 10.5825999,13.1166174 10.37,13.13 L10.2,13.13 C10.0929466,13.1551915 9.98898837,13.1920799 9.89,13.24 C9.44636869,13.5430529 9.12961552,13.998608 9,14.52 C8.8682886,14.9137101 8.75812534,15.3143038 8.67,15.72 C8.5,16.49 8.36,17.22 8.15,17.86 C8.03889463,18.4113133 7.73375739,18.9045002 7.29,19.25 C7.10808975,19.3284105 6.90191025,19.3284105 6.72,19.25 C6.51642457,19.1651993 6.33257754,19.03923 6.18,18.88 C5.57441284,18.1891998 5.1910774,17.3319224 5.08,16.42 C4.98831112,15.8213001 4.96148922,15.2144546 5,14.61 L5.11,14 C6.12942168,9.43555519 9.84869158,5.96654988 14.4729821,5.26704015 C19.0972727,4.56753043 23.6761654,6.78128472 26,10.84 C26.0768121,10.9739746 26.219264,11.0567935 26.3736955,11.0572596 C26.5281269,11.0577256 26.6710761,10.9757681 26.7486955,10.8422595 C26.8263148,10.708751 26.8268121,10.5439746 26.75,10.41 C24.2485622,6.04259612 19.3218747,3.65955601 14.3450636,4.40972895 C9.3682526,5.15990189 5.36291502,8.88929883 4.26,13.8 L4.26,13.8 L4.26,13.8 L4.17,14.52 C4.09445626,15.2012455 4.09445626,15.8887545 4.17,16.57 C4.29176107,17.6817515 4.75260627,18.7291269 5.49,19.57 C5.76505852,19.8607425 6.1089968,20.0774236 6.49,20.2 C6.91492748,20.3422031 7.37893532,20.3098305 7.78,20.11 C8.48205937,19.6495904 8.97431178,18.9309738 9.15,18.11 C9.38,17.38 9.53,16.63 9.71,15.89 C9.79031558,15.5215336 9.89046126,15.157671 10.01,14.8 C10.0766572,14.5269864 10.2228263,14.2798911 10.43,14.09 L10.43,14.09 L10.57,14.09 C10.48,14.09 10.57,14.09 10.57,14.09 C10.6702604,14.1667161 10.7550879,14.2617229 10.82,14.37 C11.0107042,14.709414 11.1648987,15.0680838 11.28,15.44 C11.54,16.23 11.75,17.09 11.98,17.96 C12.1957553,18.8776082 12.4730491,19.7796482 12.81,20.66 C13.0005178,21.1851977 13.312303,21.6580147 13.72,22.04 L13.94,22.19 C14.0452557,22.2445247 14.1558367,22.2880869 14.27,22.32 C14.3365802,22.3248024 14.4034198,22.3248024 14.47,22.32 C14.5956711,22.3424591 14.7243289,22.3424591 14.85,22.32 C15.2075634,22.2060373 15.5103274,21.9638262 15.7,21.64 C16.1557134,20.7251811 16.4596779,19.7423626 16.6,18.73 C16.78,17.73 16.92,16.82 17.06,15.87 C17.2,14.92 17.36,13.98 17.57,13.08 C17.6638041,12.6524319 17.8046623,12.2365648 17.99,11.84 C18.0475285,11.7232884 18.1216283,11.6155069 18.21,11.52 L18.37,11.52 C18.6401839,11.7687893 18.8431307,12.0818089 18.96,12.43 C19.1274924,12.8447655 19.2710615,13.268795 19.39,13.7 C19.64,14.57 19.84,15.47 20.06,16.35 C20.2349817,17.2696426 20.5344,18.1611689 20.95,19 C21.1152225,19.2947975 21.3763576,19.5241729 21.69,19.65 C21.7606418,19.6768479 21.8346933,19.6936778 21.91,19.7 L22.09,19.7 L22.23,19.7 C22.4060001,19.6699908 22.5732688,19.6017179 22.72,19.5 C23.1169822,19.166987 23.4145373,18.7310342 23.58,18.24 C23.91,17.42 24.1,16.64 24.32,15.9 C24.4962132,15.2354231 24.7584287,14.596693 25.1,14 C25.2077807,13.8085606 25.3718776,13.654938 25.57,13.56 C25.8146208,13.523053 26.064707,13.5577872 26.29,13.66 C26.7334698,13.8860805 27.0604665,14.2893765 27.19,14.77 C27.4470482,15.6800189 27.5117554,16.633598 27.38,17.57 C27.31,18.18 27.22,18.68 27.14,19.07 C26.0341706,23.7403502 22.0987629,27.2026221 17.3255901,27.7044692 C12.5524173,28.2063162 7.98298383,25.6382354 5.93,21.3 C5.82782732,21.084609 5.57039105,20.9928273 5.355,21.095 C5.13960895,21.1971727 5.04782733,21.4546089 5.15,21.67 C7.25817955,26.1247022 11.8466956,28.8663976 16.7685018,28.6121993 C21.690308,28.3580009 25.9719606,25.1581846 27.61,20.51 C27.671752,20.4572985 27.7169068,20.3878297 27.74,20.31 L27.91,19.64 C27.91,19.46 28.01,19.23 28.06,18.96 L28.06,18.75 C28.16,18.44 28.22,18.07 28.27,17.67 Z" id="Shape"></path>
            </g>
        </g>
    </g>
</svg>