<svg width="25" height="25" viewBox="0 0 25 25" xmlns="http://www.w3.org/2000/svg"><defs><linearGradient x1=".069%" y1="49.956%" x2="99.977%" y2="49.956%" id="a"><stop stop-color="#6B63AB" offset="0%"/><stop stop-color="#00B4CA" offset="100%"/></linearGradient></defs><path d="M28.27 17.67a7.64 7.64 0 0 0-.2-3.21 2.69 2.69 0 0 0-1.4-1.68 2.22 2.22 0 0 0-1.25-.18 1.83 1.83 0 0 0-1.14.85c-.86 1.41-1 3-1.63 4.45a2 2 0 0 1-.51.81h-.16c.05 0-.11-.09-.18-.23a9.76 9.76 0 0 1-.8-2.33c-.22-.87-.42-1.76-.67-2.68a12.67 12.67 0 0 0-.46-1.39 3 3 0 0 0-1-1.39 1.15 1.15 0 0 0-1.18-.07 1.74 1.74 0 0 0-.68.77 6.84 6.84 0 0 0-.51 1.47c-.24 1-.39 1.92-.54 2.88-.15.96-.29 1.9-.47 2.83a8.82 8.82 0 0 1-.76 2.53.6.6 0 0 1-.2.21h-.22a2.66 2.66 0 0 1-.6-1 20.1 20.1 0 0 1-.8-2.54c-.23-.87-.45-1.73-.74-2.59a6.41 6.41 0 0 0-.57-1.28 1.89 1.89 0 0 0-.62-.63 1.1 1.1 0 0 0-.61-.14h-.17a1.5 1.5 0 0 0-.31.11A2.19 2.19 0 0 0 9 14.52a11.43 11.43 0 0 0-.33 1.2c-.17.77-.31 1.5-.52 2.14a2.35 2.35 0 0 1-.86 1.39.72.72 0 0 1-.57 0 1.6 1.6 0 0 1-.54-.37 4.57 4.57 0 0 1-1.1-2.46A8.42 8.42 0 0 1 5 14.61l.11-.61A11.33 11.33 0 0 1 26 10.84a.432.432 0 1 0 .75-.43A12.2 12.2 0 0 0 4.26 13.8l-.09.72a9.3 9.3 0 0 0 0 2.05 5.45 5.45 0 0 0 1.32 3c.275.29.619.507 1 .63.425.142.889.11 1.29-.09a3.19 3.19 0 0 0 1.37-2c.23-.73.38-1.48.56-2.22.08-.368.18-.732.3-1.09a1.42 1.42 0 0 1 .42-.71h.14c-.09 0 0 0 0 0a1 1 0 0 1 .25.28c.19.34.345.698.46 1.07.26.79.47 1.65.7 2.52a21 21 0 0 0 .83 2.7c.19.525.502.998.91 1.38l.22.15c.105.055.216.098.33.13.067.005.133.005.2 0 .126.022.254.022.38 0a1.52 1.52 0 0 0 .85-.68 9.43 9.43 0 0 0 .9-2.91c.18-1 .32-1.91.46-2.86s.3-1.89.51-2.79a5.93 5.93 0 0 1 .42-1.24 1.35 1.35 0 0 1 .22-.32h.16c.27.249.473.562.59.91.167.415.311.839.43 1.27.25.87.45 1.77.67 2.65.175.92.474 1.811.89 2.65.165.295.426.524.74.65a.81.81 0 0 0 .22.05h.32a1.22 1.22 0 0 0 .49-.2 2.82 2.82 0 0 0 .86-1.26c.33-.82.52-1.6.74-2.34a7.9 7.9 0 0 1 .78-1.9 1.07 1.07 0 0 1 .47-.44 1.28 1.28 0 0 1 .72.1c.443.226.77.63.9 1.11a6.81 6.81 0 0 1 .19 2.8c-.07.61-.16 1.11-.24 1.5A11.3 11.3 0 0 1 5.93 21.3a.432.432 0 0 0-.78.37 12.16 12.16 0 0 0 22.46-1.16.42.42 0 0 0 .13-.2l.17-.67c0-.18.1-.41.15-.68v-.21c.1-.31.16-.68.21-1.08z" transform="translate(-4 -4)" fill-rule="nonzero" fill="url(#a)"/></svg>