<svg xmlns="http://www.w3.org/2000/svg" width="24" height="24" viewBox="0 0 24 24"><defs><linearGradient id="a" x1="91.722%" x2="10.978%" y1="26.562%" y2="75.43%"><stop stop-color="#4178BE" offset="0%"/><stop stop-color="#00B4A0" offset="100%"/></linearGradient></defs><path fill="url(#a)" fill-rule="evenodd" d="M12 24a11.922 11.922 0 0 1-8.485-3.514.965.965 0 1 1 1.365-1.366A10.003 10.003 0 0 0 12 22.069c5.552 0 10.069-4.517 10.069-10.069v-.057c0-.362-.053-1.542-.732-1.542-.438 0-.81 1.149-1.083 1.988-.446 1.377-1.001 3.091-2.652 3.091-2.163 0-2.587-2.766-2.961-5.205-.157-1.02-.34-3.243-.826-3.246-.638.015-.737 3.411-.85 4.994l-.025.354c-.236 3.322-.458 6.46-2.795 6.49h-.03c-1.953 0-2.325-2.482-2.685-4.884-.133-.886-.407-3.593-1.032-3.584-.48.007-.66 1.274-.815 1.754-.455 1.403-1.078 3.325-2.92 3.325-1.229 0-2.663-.91-2.663-3.473l.002-.059C0 5.383 5.383 0 12 0c3.197 0 6.205 1.242 8.47 3.499a.966.966 0 1 1-1.363 1.368A10.004 10.004 0 0 0 12 1.931C6.448 1.931 1.931 6.448 1.931 12l-.002.058c.002.308.055 1.489.734 1.489.438 0 .81-1.15 1.083-1.989.446-1.376 1.001-3.09 2.652-3.09 2.157 0 2.574 2.778 2.942 5.23.152 1.018.385 3.274.81 3.234.56-.007.782-3.553.863-4.691l.024-.336c.257-3.59.487-6.946 2.887-6.824 1.89.11 2.264 2.546 2.625 4.9.15.976.547 3.574 1.053 3.568.346-.005.66-1.275.815-1.755.455-1.403 1.078-3.324 2.92-3.324 1.229 0 2.663.909 2.663 3.473V12c0 6.617-5.383 12-12 12"/></svg>