<svg xmlns="http://www.w3.org/2000/svg" width="24" height="24" viewBox="0 0 24 24">
  <defs>
    <linearGradient id="a" x1="91.722%" x2="10.978%" y1="26.562%" y2="75.43%">
      <stop stop-color="#4178BE" offset="0%"/>
      <stop stop-color="#00B4A0" offset="100%"/>
    </linearGradient>
  </defs>
  <path fill="url(#a)" fill-rule="evenodd" d="M12,24 C8.79448276,24 5.78151724,22.7514483 3.51503448,20.4855172 C3.13765517,20.1081379 3.13765517,19.4973793 3.51503448,19.12 C3.89131034,18.7431724 4.50317241,18.7431724 4.88,19.12 C6.7817931,21.0217931 9.31034483,22.0689655 12,22.0689655 C17.552,22.0689655 22.0689655,17.552 22.0689655,12 L22.0689655,11.9426207 C22.0689655,11.5806897 22.016,10.4005517 21.3368276,10.4005517 C20.8987586,10.4005517 20.5263448,11.5497931 20.2543448,12.3889655 C19.808,13.766069 19.2529655,15.4802759 17.6022069,15.4802759 C15.4388966,15.4802759 15.0146207,12.7144828 14.6405517,10.2747586 C14.4838621,9.25462069 14.3001379,7.03227586 13.8151724,7.02896552 C13.1768276,7.04441379 13.0775172,10.4402759 12.9644138,12.0226207 L12.9395862,12.3768276 C12.704,15.6987586 12.4822069,18.8375172 10.1451034,18.8673103 L10.1147586,18.8673103 C8.1622069,18.8673103 7.7897931,16.3845517 7.43006897,13.9834483 C7.29710345,13.0968276 7.02289655,10.390069 6.3977931,10.3988966 C5.91724138,10.4055172 5.73793103,11.6733793 5.58289655,12.1533793 C5.12772414,13.5564138 4.50537931,15.478069 2.66317241,15.478069 C1.43448276,15.478069 0,14.5682759 0,12.0049655 L0.00165517241,11.9464828 C0,5.38317241 5.38317241,0 12,0 C15.1966897,0 18.2046897,1.24248276 20.4695172,3.49903448 C20.8474483,3.87531034 20.8485517,4.48717241 20.4722759,4.86455172 C20.0954483,5.24193103 19.4841379,5.24303448 19.1067586,4.86731034 C17.2066207,2.9737931 14.6824828,1.93103448 12,1.93103448 C6.448,1.93103448 1.93103448,6.448 1.93103448,12 L1.92937931,12.057931 C1.93103448,12.3663448 1.984,13.5470345 2.66317241,13.5470345 C3.10124138,13.5470345 3.47365517,12.3977931 3.74565517,11.558069 C4.192,10.1815172 4.74703448,8.46786207 6.3977931,8.46786207 C8.55503448,8.46786207 8.97213793,11.2457931 9.33958621,13.6971034 C9.49241379,14.7161379 9.72468966,16.9721379 10.150069,16.9324138 C10.710069,16.9246897 10.9324138,13.3787586 11.0129655,12.2405517 L11.0366897,11.9045517 C11.2937931,8.31448276 11.5238621,4.95944828 13.9238621,5.08137931 C15.8146207,5.19172414 16.1875862,7.62703448 16.5489655,9.9817931 C16.6990345,10.9572414 17.0962759,13.5553103 17.6022069,13.5492414 C17.9481379,13.5442759 18.262069,12.2736552 18.4171034,11.7942069 C18.8722759,10.3906207 19.4946207,8.46951724 21.3368276,8.46951724 C22.5655172,8.46951724 24,9.37875862 24,11.9426207 L24,12 C24,18.6168276 18.6168276,24 12,24"/>
</svg>
