<?xml version="1.0" encoding="UTF-8"?>
<svg width="16px" height="16px" viewBox="0 0 16 16" version="1.1" xmlns="http://www.w3.org/2000/svg" xmlns:xlink="http://www.w3.org/1999/xlink">
    <!-- Generator: Sketch 45.2 (43514) - http://www.bohemiancoding.com/sketch -->
    <title>Multiple Users_Collaborators_16</title>
    <desc>Created with Sketch.</desc>
    <defs></defs>
    <g id="Page-2" stroke="none" stroke-width="1" fill="none" fill-rule="evenodd">
        <g id="InternalSite-UserStories-3" transform="translate(-692.000000, -3772.000000)" fill="#9B9B9B">
            <g id="Group-24" transform="translate(0.000000, 3735.000000)">
                <g id="Group-4">
                    <g id="Group-13" transform="translate(243.000000, 36.000000)">
                        <g id="Group-12-Copy" transform="translate(448.000000, 0.000000)">
                            <g id="Multiple-Users_Collaborators_16">
                                <path d="M8.90073671,4.31184871 C8.91368121,4.31219163 8.92677676,4.31236539 8.94002301,4.31236539 C9.80343893,4.31236539 10.5491176,4.91648403 10.728249,5.76111354 C10.9073803,6.60574305 10.4711108,7.46053249 9.68202301,7.811 C9.48552538,7.89794195 9.36654792,8.10070621 9.38649194,8.3146512 C9.40643597,8.52859619 9.56084123,8.70587563 9.77002301,8.755 C11.3874953,9.13437364 12.5292815,10.5796412 12.524023,12.241 L12.524023,16.382 C12.524023,16.6581424 12.7478806,16.882 13.024023,16.882 C13.3001654,16.882 13.524023,16.6581424 13.524023,16.382 L13.524023,12.241 C13.5293281,10.4892594 12.5319748,8.8889095 10.957023,8.122 C11.467023,7.602 11.768023,6.895 11.768023,6.142 C11.768023,5.149 11.251023,4.278 10.476023,3.774 C10.5046451,2.78767033 11.3112808,2.00228525 12.298023,2 C13.3067528,2.00110108 14.12437,2.81827095 14.126023,3.827 C14.126023,4.547 13.700023,5.202 13.040023,5.497 C12.8443469,5.58451009 12.7262203,5.78701105 12.7463613,6.00041558 C12.7665024,6.2138201 12.9204296,6.39064473 13.129023,6.44 C14.7464953,6.81937364 15.8882815,8.26464117 15.883023,9.926 L15.883023,12.668 C15.883023,12.9441424 16.1068806,13.168 16.383023,13.168 C16.6591654,13.168 16.883023,12.9441424 16.883023,12.668 L16.883023,9.926 C16.8866098,8.17444237 15.8887578,6.57492722 14.314023,5.808 C14.83342,5.27972507 15.124954,4.56884176 15.126023,3.828 C15.1243686,2.2669864 13.8590371,1.00210231 12.298023,1.001 C10.9151567,1.00438736 9.73824249,2.00866433 9.51724557,3.37362325 C9.13775927,3.29270613 8.74545616,3.29283172 8.36600964,3.374 C8.14558146,2.00833969 6.96834083,1.0033885 5.58500964,1 C4.02399555,1.00110231 2.75866403,2.2659864 2.75700964,3.827 C2.75807866,4.56784176 3.04961263,5.27872507 3.56900964,5.807 C1.99427486,6.57392722 0.99642288,8.17344237 1.00000964,9.925 L1.00000964,12.667 C1.00000964,12.9431424 1.22386726,13.167 1.50000964,13.167 C1.77615201,13.167 2.00000964,12.9431424 2.00000964,12.667 L2.00000964,9.925 C1.99475117,8.26364117 3.1365374,6.81837364 4.75400964,6.439 C4.96260305,6.38964473 5.11653026,6.2128201 5.1366713,5.99941558 C5.15681234,5.78601105 5.03868575,5.58351009 4.84300964,5.496 C4.18300964,5.201 3.75700964,4.546 3.75700964,3.826 C3.75866269,2.81727095 4.57627983,2.00010108 5.58500964,1.999 C6.57175187,2.00128525 7.3783875,2.78667033 7.40700964,3.773 C6.63200964,4.277 6.11500964,5.148 6.11500964,6.141 C6.11500964,6.894 6.41600964,7.601 6.92600964,8.121 C5.35105789,8.8879095 4.35370459,10.4882594 4.35900964,12.24 L4.35900964,16.381 C4.35900964,16.6571424 4.58286726,16.881 4.85900964,16.881 C5.13515201,16.881 5.35900964,16.6571424 5.35900964,16.381 L5.35900964,12.24 C5.35375117,10.5786412 6.4955374,9.13337364 8.11300964,8.754 C8.32219142,8.70487563 8.47659668,8.52759619 8.49654071,8.3136512 C8.51648473,8.09970621 8.39750727,7.89694195 8.20100964,7.81 C7.41192183,7.45953249 6.97565235,6.60474305 7.15478369,5.76011354 C7.33098493,4.92929986 8.05535076,4.33119321 8.90073671,4.31184871 Z" id="Combined-Shape"></path>
                            </g>
                        </g>
                    </g>
                </g>
            </g>
        </g>
    </g>
</svg>