<svg viewBox="0 0 17 10" xmlns="http://www.w3.org/2000/svg"><title>History_16</title><g fill="#9B9B9B" fill-rule="evenodd"><path d="M1.786 5.02L6.805.885a.5.5 0 0 0-.636-.772L.682 4.634a.5.5 0 0 0 0 .77l5.487 4.52a.496.496 0 0 0 .703-.07.498.498 0 0 0-.068-.703L1.786 5.02z"/><path d="M13.147 4.488H6.433L10.806.886a.5.5 0 0 0-.636-.772l-5.486 4.52a.497.497 0 0 0 0 .772l5.487 4.52a.496.496 0 0 0 .703-.069.499.499 0 0 0-.068-.704l-4.45-3.665h6.79a2.49 2.49 0 0 1 2.488 2.487.5.5 0 1 0 1 0 3.49 3.49 0 0 0-3.487-3.487z"/></g></svg>