<?xml version="1.0" encoding="UTF-8"?>
<svg width="14px" height="16px" viewBox="0 0 14 16" version="1.1" xmlns="http://www.w3.org/2000/svg" xmlns:xlink="http://www.w3.org/1999/xlink">
    <!-- Generator: Sketch 43.2 (39069) - http://www.bohemiancoding.com/sketch -->
    <title>footer_terms</title>
    <desc>Created with Sketch.</desc>
    <defs></defs>
    <g id="Page-1" stroke="none" stroke-width="1" fill="none" fill-rule="evenodd">
        <g id="Help-Center---Home-Copy-32" transform="translate(-817.000000, -3378.000000)" fill-rule="nonzero" fill="#9B9B9B">
            <g id="Footer" transform="translate(-1.000000, 3333.000000)">
                <g id="Links" transform="translate(343.000000, 45.000000)">
                    <g id="Terms" transform="translate(475.000000, 0.000000)">
                        <g id="footer_terms">
                            <path d="M1.06456,14.9854 L1.06456,1.01406667 L8.57276,1.01406667 L8.57276,4.65873333 C8.57276,4.93806667 8.81146,5.1654 9.10476,5.1654 L12.93166,5.1654 L12.93166,14.9854 L1.06456,14.9854 Z M12.41856,4.1514 L9.63746,4.1514 L9.63746,1.52073333 L12.41856,4.1514 Z M9.85796,0.296733333 C9.65846,0.106733333 9.38756,6.66666674e-05 9.10476,6.66666674e-05 L1.06456,6.66666674e-05 C0.47656,6.66666674e-05 -0.00014,0.454066667 -0.00014,1.01406667 L-0.00014,14.9860667 C-0.00014,15.5460667 0.47656,16.0000667 1.06456,16.0000667 L12.93236,16.0000667 C13.52036,16.0000667 13.99706,15.5460667 13.99706,14.9860667 L13.99706,4.65873333 C13.99706,4.3894 13.88506,4.13206667 13.68556,3.9414 L9.85796,0.296733333 Z" id="Fill-1"></path>
                            <path d="M10.17824,8 L3.48896,8 C3.22016,8 3.00192,8.2176 3.00192,8.4864 C3.00192,8.7552 3.22016,8.97344 3.48896,8.97344 L10.1776,8.97344 C10.4464,8.97344 10.66464,8.75584 10.66464,8.48704 C10.66464,8.21824 10.44704,8 10.17824,8 L10.17824,8 Z M10.17632,11.20896 L3.48704,11.20896 C3.21824,11.20896 3,11.4272 3,11.696 C3,11.9648 3.21824,12.1824 3.48704,12.1824 L10.17568,12.1824 C10.44448,12.1824 10.66272,11.9648 10.66272,11.696 C10.66272,11.4272 10.44512,11.20896 10.17632,11.20896 L10.17632,11.20896 Z" id="Fill-4"></path>
                        </g>
                    </g>
                </g>
            </g>
        </g>
    </g>
</svg>