<?xml version="1.0" encoding="UTF-8"?>
<svg width="16px" height="16px" viewBox="0 0 16 16" version="1.1" xmlns="http://www.w3.org/2000/svg" xmlns:xlink="http://www.w3.org/1999/xlink">
    <!-- Generator: Sketch 43.2 (39069) - http://www.bohemiancoding.com/sketch -->
    <title>footer_devs</title>
    <desc>Created with Sketch.</desc>
    <defs></defs>
    <g id="Page-1" stroke="none" stroke-width="1" fill="none" fill-rule="evenodd">
        <g id="Help-Center---Home-Copy-32" transform="translate(-631.000000, -3378.000000)" fill="#9B9B9B">
            <g id="Footer" transform="translate(-1.000000, 3333.000000)">
                <g id="Links" transform="translate(343.000000, 45.000000)">
                    <g id="Devs" transform="translate(289.000000, 0.000000)">
                        <g id="footer_devs">
                            <g id="Group">
                                <path d="M14.851,0.272 C14.6796882,0.101235307 14.4108316,0.0772527961 14.212,0.215 L11.922,1.806 C11.7998494,1.89011148 11.7215437,2.02428942 11.7083954,2.17201425 C11.6952471,2.31973907 11.7486246,2.46563752 11.854,2.57 L12.335,3.051 L5.94,9.445 L5.578,9.083 C5.572,9.077 5.564,9.075 5.558,9.07 L4.819,8.331 C4.62281056,8.1415139 4.31095761,8.14422381 4.11809071,8.33709071 C3.92522381,8.52995761 3.9225139,8.84181056 4.112,9.038 L4.523,9.449 L1.1,13.055 C0.679959795,13.4754013 0.55436751,14.1073588 0.781740456,14.6564239 C1.0091134,15.2054891 1.54471817,15.5636388 2.139,15.564 L2.14,15.564 C2.53034387,15.5651371 2.90488827,15.4099173 3.18,15.133 L3.189,15.124 L6.602,11.528 L6.855,11.781 C6.94854024,11.8755368 7.07600761,11.9287315 7.209,11.9287315 C7.34199239,11.9287315 7.46945976,11.8755368 7.563,11.781 C7.75819097,11.5857501 7.75819097,11.2692499 7.563,11.074 L6.968,10.478 C6.961,10.47 6.959,10.461 6.952,10.453 L6.65,10.151 L13.044,3.757 L13.456,4.169 C13.5500128,4.2626208 13.6773228,4.3151272 13.81,4.315 L13.846,4.314 C13.9905403,4.30389735 14.1234752,4.23122143 14.21,4.115 L15.87,1.895 C16.018826,1.69591029 15.9988034,1.41772435 15.823,1.242 L14.851,0.272 L14.851,0.272 Z M2.468,14.43 C2.28400898,14.6105482 1.98879247,14.6087617 1.807,14.426 C1.71821932,14.3359373 1.66920157,14.214073 1.67089263,14.0876197 C1.67258368,13.9611664 1.72484269,13.8406564 1.816,13.753 L5.23,10.156 L5.894,10.82 L2.468,14.43 L2.468,14.43 Z M13.753,3.054 L12.984,2.286 L14.439,1.274 L14.808,1.643 L13.753,3.054 L13.753,3.054 Z" id="Shape"></path>
                                <path d="M4.035,6.188 L5.777,7.925 C5.97347301,8.11799857 6.28862205,8.11710706 6.484,7.923 C6.67891508,7.7274741 6.67846741,7.41097373 6.483,7.216 L4.517,5.256 C4.37284719,5.11266769 4.15648217,5.07042123 3.969,5.149 C3.18898091,5.48688039 2.281805,5.31534888 1.679,4.716 C1.27965241,4.31859699 1.06001456,3.77528231 1.071,3.212 L1.769,3.86 C1.86162414,3.94543445 1.982991,3.99291031 2.109,3.993 L3.402,3.993 C3.67814237,3.993 3.902,3.76914237 3.902,3.493 L3.902,2.2 C3.90175987,2.07769518 3.85696633,1.95966777 3.776,1.868 L3.125,1.132 C3.68855826,1.12216873 4.23186786,1.34201959 4.63,1.741 C5.234,2.345 5.409,3.244 5.075,4.032 C4.99622318,4.21995702 5.03889812,4.43688797 5.183,4.581 L7.031,6.429 C7.22718944,6.6184861 7.53904239,6.61577619 7.73190929,6.42290929 C7.92477619,6.23004239 7.9274861,5.91818944 7.738,5.722 L6.113,4.097 C6.43949102,3.01103185 6.1411723,1.83351868 5.337,1.034 C4.44,0.137 3.162,-0.115 1.999,0.375 C1.85082363,0.437821152 1.7419463,0.568128569 1.70646638,0.72511235 C1.67098646,0.882096132 1.71324224,1.04656116 1.82,1.167 L2.903,2.389 L2.903,2.993 L2.305,2.993 L1.114,1.889 C0.994089935,1.77886572 0.828214588,1.73372456 0.669030467,1.76790642 C0.509846346,1.80208828 0.377125625,1.91134744 0.313,2.061 C-0.175956371,3.21126139 0.0850745515,4.5433509 0.972,5.424 C1.77326277,6.22531117 2.95127138,6.51914029 4.035,6.188 L4.035,6.188 Z M11.883,9.867 L10.265,8.247 C10.0688106,8.0575139 9.75695761,8.06022381 9.56409071,8.25309071 C9.37122381,8.44595761 9.3685139,8.75781056 9.558,8.954 L11.4,10.798 C11.5437503,10.9429425 11.7616233,10.9850091 11.949,10.904 C12.7315049,10.5700272 13.6385161,10.7462805 14.239,11.349 C14.654,11.764 14.866,12.319 14.85,12.881 L14.09,12.18 C13.9980048,12.0942019 13.8767947,12.0466475 13.751,12.047 L12.458,12.047 C12.1818576,12.047 11.958,12.2708576 11.958,12.547 L11.958,13.841 C11.958,13.971 12.008,14.095 12.098,14.188 L12.796,14.912 C12.2318379,14.9192923 11.6884287,14.6994782 11.288,14.302 C10.6852805,13.7015161 10.5090272,12.7945049 10.843,12.012 C10.9225996,11.8243001 10.8802614,11.6070694 10.736,11.463 L8.759,9.485 C8.56281056,9.2955139 8.25095761,9.29822381 8.05809071,9.49109071 C7.86522381,9.68395761 7.8625139,9.99581056 8.052,10.192 L9.804,11.946 C9.47813923,13.0316701 9.77639952,14.2085683 10.58,15.008 C11.4675774,15.9005141 12.8098141,16.1612734 13.967,15.666 C14.1184734,15.6017405 14.2286357,15.4670705 14.2615958,15.3058653 C14.294556,15.1446601 14.2460945,14.9775577 14.132,14.859 L12.956,13.639 L12.956,13.047 L13.554,13.047 L14.804,14.2 C14.9235341,14.3101761 15.0891694,14.3553623 15.2480932,14.3211509 C15.407017,14.2869395 15.539388,14.1776018 15.603,14.028 C16.0971539,12.8705224 15.8360905,11.5287596 14.944,10.641 C14.134,9.831 12.964,9.541 11.883,9.867 L11.883,9.867 Z" id="Shape"></path>
                            </g>
                        </g>
                    </g>
                </g>
            </g>
        </g>
    </g>
</svg>