<svg width="96" height="96" viewBox="0 0 96 96" xmlns="http://www.w3.org/2000/svg"><defs><linearGradient x1="-.019%" y1="50.033%" x2="99.99%" y2="50.033%" id="a"><stop stop-color="#6B63AB" offset="0%"/><stop stop-color="#00B4CA" offset="100%"/></linearGradient></defs><g fill-rule="nonzero" fill="none"><rect fill="#1B2734" width="96" height="96" rx="16.49"/><path d="M83.27 52a22.51 22.51 0 0 0-.6-9.44 7.92 7.92 0 0 0-4.11-5 6.54 6.54 0 0 0-3.67-.53 5.39 5.39 0 0 0-3.37 2.51c-2.53 4.14-3.06 8.83-4.8 13.12a6 6 0 0 1-1.49 2.39.62.62 0 0 1-.27.12c-.14 0-.35-.05-.21-.07.14-.02-.33-.26-.52-.69a28.74 28.74 0 0 1-2.38-6.93c-.64-2.55-1.23-5.19-2-7.89a37.31 37.31 0 0 0-1.36-4.08 8.77 8.77 0 0 0-2.91-4.1 3.38 3.38 0 0 0-3.47-.19 5.12 5.12 0 0 0-2 2.26 20.14 20.14 0 0 0-1.5 4.32c-.7 2.84-1.15 5.66-1.6 8.47-.45 2.81-.86 5.6-1.38 8.32-.52 2.72-1.13 5.53-2.24 7.45a1.78 1.78 0 0 1-.6.63h.09c-.13 0-.43 0-.43-.07l-.2-.14a7.82 7.82 0 0 1-1.76-2.8 59.2 59.2 0 0 1-2.36-7.49c-.68-2.56-1.31-5.11-2.17-7.63a18.88 18.88 0 0 0-1.68-3.78 5.57 5.57 0 0 0-1.8-1.76 3.24 3.24 0 0 0-1.8-.42l-.49.06a4.42 4.42 0 0 0-.92.32c-1.85 1.13-2.18 2.6-2.67 3.77a33.65 33.65 0 0 0-1 3.53c-.51 2.26-.93 4.41-1.53 6.32-.6 1.91-1.46 3.62-2.52 4.11a2.12 2.12 0 0 1-1.69.09 4.7 4.7 0 0 1-1.59-1.09 13.46 13.46 0 0 1-3.25-7.24 24.8 24.8 0 0 1-.17-5.45l.21-1.92a33.38 33.38 0 0 1 61.59-9.21 1.28 1.28 0 1 0 2.21-1.27 35.94 35.94 0 0 0-66.31 10v.05l-.27 2.11a27.4 27.4 0 0 0 .13 6 16.06 16.06 0 0 0 3.89 8.84 7 7 0 0 0 2.8 1.85 5 5 0 0 0 3.8-.27c2.48-1.35 3.29-3.75 4-5.8S28 49.15 28.55 47a30.87 30.87 0 0 1 .89-3.2 4.18 4.18 0 0 1 1.23-2.09h-.06c-.06 0 .28 0 .42-.05-.27 0 0 0 0 .06.29.229.535.51.72.83a16.24 16.24 0 0 1 1.35 3.14c.78 2.33 1.39 4.86 2.06 7.43A61.71 61.71 0 0 0 37.58 61a10.44 10.44 0 0 0 2.68 4.06l.66.44a5.1 5.1 0 0 0 1 .37 4.1 4.1 0 0 0 .59.1 3.18 3.18 0 0 0 1.12-.09 4.48 4.48 0 0 0 2.5-2c1.65-3 2.06-5.75 2.65-8.58.59-2.83.93-5.63 1.37-8.43.44-2.8.87-5.57 1.51-8.21.26-1.26.66-2.488 1.19-3.66a4 4 0 0 1 .63-.94c.05-.1.24-.12.47 0a6.43 6.43 0 0 1 1.73 2.68 34.45 34.45 0 0 1 1.26 3.73c.73 2.57 1.32 5.2 2 7.8a30.37 30.37 0 0 0 2.78 7.78A4.37 4.37 0 0 0 63.87 58c.208.084.427.138.65.16h.94a3.59 3.59 0 0 0 1.45-.6 8.32 8.32 0 0 0 2.53-3.7c1-2.42 1.52-4.73 2.18-6.89a23.28 23.28 0 0 1 2.3-5.74 3.15 3.15 0 0 1 1.37-1.3 3.78 3.78 0 0 1 2.13.28 5.19 5.19 0 0 1 2.66 3.28 20.06 20.06 0 0 1 .56 8.25c-.2 1.8-.47 3.27-.71 4.43a33.28 33.28 0 0 1-62.46 6.57 1.275 1.275 0 0 0-2.3 1.1 35.81 35.81 0 0 0 66.15-3.42 1.24 1.24 0 0 0 .37-.59l.51-2c.13-.54.29-1.22.44-2 0-.21.09-.42.13-.63.18-.9.36-1.97.5-3.2z" fill="url(#a)"/></g></svg>