<?xml version="1.0" encoding="UTF-8"?>
<svg width="96px" height="96px" viewBox="0 0 96 96" version="1.1" xmlns="http://www.w3.org/2000/svg" xmlns:xlink="http://www.w3.org/1999/xlink">
    <defs>
        <linearGradient x1="-0.0193476853%" y1="50.0327976%" x2="99.9904931%" y2="50.0327976%" id="linearGradient-1">
            <stop stop-color="#6B63AB" offset="0%"></stop>
            <stop stop-color="#00B4CA" offset="100%"></stop>
        </linearGradient>
    </defs>
    <g id="Page-2" stroke="none" stroke-width="1" fill="none" fill-rule="evenodd">
        <g id="Help-Center---Home-Copy-44" transform="translate(-669.000000, -177.000000)" fill-rule="nonzero">
            <g id="IconWIP_96" transform="translate(669.000000, 177.000000)">
                <rect id="Rectangle-path" fill="#1B2734" x="0" y="0" width="96" height="96" rx="16.49"></rect>
                <path d="M83.27,52 C83.7408584,48.8463534 83.5363437,45.6286549 82.67,42.56 C82.0746236,40.3840502 80.5795761,38.5652577 78.56,37.56 C77.4134184,37.0329653 76.1388464,36.8488991 74.89,37.03 C73.4733631,37.3763099 72.2575156,38.2818818 71.52,39.54 C68.99,43.68 68.46,48.37 66.72,52.66 C66.4199953,53.5636021 65.909259,54.3828368 65.23,55.05 C65.1509855,55.111174 65.0583553,55.1523429 64.96,55.17 L64.96,55.17 C64.82,55.17 64.61,55.12 64.75,55.1 C64.89,55.08 64.42,54.84 64.23,54.41 C63.1442413,52.2110063 62.3444092,49.8820834 61.85,47.48 C61.21,44.93 60.62,42.29 59.85,39.59 C59.4754921,38.2049818 59.0214046,36.8427193 58.49,35.51 C57.9409302,33.8886191 56.929354,32.4633743 55.58,31.41 C54.5469586,30.7113603 53.213145,30.6383273 52.11,31.22 C51.2314135,31.7552849 50.5344646,32.5428373 50.11,33.48 C49.4476075,34.8583804 48.9443643,36.3077209 48.61,37.8 C47.91,40.64 47.46,43.46 47.01,46.27 C46.56,49.08 46.15,51.87 45.63,54.59 C45.11,57.31 44.5,60.12 43.39,62.04 C43.245189,62.2963961 43.0390315,62.5128615 42.79,62.67 C42.79,62.67 42.69,62.67 42.88,62.67 C42.75,62.67 42.45,62.67 42.45,62.6 C42.45,62.53 42.45,62.6 42.45,62.6 L42.25,62.46 C41.4704245,61.6628141 40.8703398,60.708134 40.49,59.66 C39.5384238,57.2183192 38.750023,54.7161488 38.13,52.17 C37.45,49.61 36.82,47.06 35.96,44.54 C35.5401369,43.2222712 34.9767564,41.9546651 34.28,40.76 C33.8221768,40.043654 33.206452,39.441612 32.48,39 C31.9335081,38.6881958 31.3080531,38.5422563 30.68,38.58 L30.19,38.64 C29.8724806,38.7124467 29.5639408,38.8197648 29.27,38.96 C27.42,40.09 27.09,41.56 26.6,42.73 C26.2027201,43.8876057 25.8688907,45.0660235 25.6,46.26 C25.09,48.52 24.67,50.67 24.07,52.58 C23.47,54.49 22.61,56.2 21.55,56.69 C21.0235859,56.953303 20.4114015,56.9859046 19.86,56.78 C19.2603805,56.5304289 18.7189945,56.1592901 18.27,55.69 C16.4836686,53.6581344 15.3510969,51.1351131 15.02,48.45 C14.7631879,46.6451039 14.7061767,44.817393 14.85,43 L15.06,41.08 C18.0730087,27.6193428 29.0552104,17.3983544 42.6972751,15.3583574 C56.3393397,13.3183604 69.8311066,19.8795785 76.65,31.87 C76.851856,32.3118706 77.2864543,32.6013896 77.7719828,32.6174382 C78.2575113,32.6334868 78.7102795,32.3732988 78.9408742,31.9457224 C79.1714689,31.5181459 79.1401424,30.9968825 78.86,30.6 C71.504341,17.6926302 56.9652119,10.6412646 42.2751443,12.8566269 C27.5850767,15.0719892 15.7720546,26.0974389 12.55,40.6 C12.55,40.6 12.55,40.6 12.55,40.65 L12.55,40.65 L12.28,42.76 C12.1035124,44.758727 12.1471072,46.7707929 12.41,48.76 C12.7689447,52.0359953 14.1270383,55.1222543 16.3,57.6 C17.0695169,58.4345847 18.030465,59.0694968 19.1,59.45 C20.3526669,59.8649798 21.7185923,59.7679272 22.9,59.18 C25.38,57.83 26.19,55.43 26.9,53.38 C27.61,51.33 28,49.15 28.55,47 C28.7890261,45.9181347 29.0861227,44.8499223 29.44,43.8 C29.6344618,42.9970937 30.0624783,42.2698136 30.67,41.71 C30.67,41.71 30.67,41.71 30.61,41.71 C30.55,41.71 30.89,41.71 31.03,41.66 C30.76,41.66 31.03,41.66 31.03,41.72 C31.3203603,41.9486121 31.5646851,42.2302642 31.75,42.55 C32.3091959,43.5462671 32.7617013,44.5987612 33.1,45.69 C33.88,48.02 34.49,50.55 35.16,53.12 C35.7901338,55.7976683 36.5986037,58.4302067 37.58,61 C38.141161,62.5454906 39.059422,63.9365876 40.26,65.06 L40.92,65.5 C41.2394897,65.6579352 41.5746543,65.7819461 41.92,65.87 C42.1139683,65.9176602 42.3111601,65.9510825 42.51,65.97 C42.8857159,66.0067168 43.2649682,65.9762412 43.63,65.88 C44.6812302,65.5440187 45.5714555,64.8318384 46.13,63.88 C47.78,60.88 48.19,58.13 48.78,55.3 C49.37,52.47 49.71,49.67 50.15,46.87 C50.59,44.07 51.02,41.3 51.66,38.66 C51.9205064,37.3998555 52.3195996,36.1723921 52.85,35 C53.0143943,34.6583955 53.2265164,34.3418958 53.48,34.06 C53.53,33.96 53.72,33.94 53.95,34.06 C54.7426181,34.793842 55.3375928,35.7155368 55.68,36.74 C56.1707609,37.9582976 56.5914478,39.2036641 56.94,40.47 C57.67,43.04 58.26,45.67 58.94,48.27 C59.5079522,50.9778585 60.4432713,53.5954061 61.72,56.05 C62.1935625,56.9259743 62.9520931,57.6139439 63.87,58 C64.0780469,58.0836892 64.2968775,58.1375552 64.52,58.16 L64.64,58.16 L64.95,58.16 L65.05,58.16 L65.46,58.16 C65.9816655,58.0693753 66.4768267,57.864481 66.91,57.56 C68.0759302,56.5813342 68.9510224,55.3015551 69.44,53.86 C70.44,51.44 70.96,49.13 71.62,46.97 C72.1280145,44.9629047 72.901503,43.0325466 73.92,41.23 C74.232955,40.6667437 74.7111191,40.2130113 75.29,39.93 C76.0121375,39.8153619 76.752024,39.9126239 77.42,40.21 C78.7315074,40.8768662 79.6983398,42.0690504 80.08,43.49 C80.837584,46.1712672 81.0283019,48.9809515 80.64,51.74 C80.44,53.54 80.17,55.01 79.93,56.17 C76.6708711,69.9208419 65.0828131,80.1139105 51.0285569,81.59224 C36.9743008,83.0705696 23.5189691,75.511748 17.47,62.74 C17.1662434,62.1048726 16.4051275,61.8362434 15.77,62.14 C15.1348726,62.4437567 14.8662434,63.2048725 15.17,63.84 C21.3769439,76.9634193 34.8928832,85.0409805 49.390761,84.2914303 C63.8886389,83.5418802 76.4995114,74.1135451 81.32,60.42 C81.4971618,60.2627162 81.6255597,60.0579736 81.69,59.83 L82.2,57.83 C82.33,57.29 82.49,56.61 82.64,55.83 C82.64,55.62 82.73,55.41 82.77,55.2 C82.95,54.3 83.13,53.23 83.27,52 Z" id="Shape" fill="url(#linearGradient-1)"></path>
            </g>
        </g>
    </g>
</svg>