<svg viewBox="0 0 386 171" xmlns="http://www.w3.org/2000/svg"><title>ww_blogillustrations_connect</title><defs><linearGradient x1="0%" y1="100%" x2="95.06%" y2="-5.603%" id="a"><stop stop-color="#D68ADF" offset="0%"/><stop stop-color="#A04E9E" offset="32.292%"/><stop stop-color="#815DA7" offset="76.03%"/><stop stop-color="#6C63AC" offset="100%"/></linearGradient></defs><g fill="none" fill-rule="evenodd"><path d="M93.528 67.548h41.685-41.685zM54.97 105.39h81.771-81.77zm2.122-57.623h77.528-77.528zm19.991 40.526H66.677a5.559 5.559 0 0 1-5.561-5.556V72.337a5.559 5.559 0 0 1 5.56-5.556h10.407a5.559 5.559 0 0 1 5.561 5.556v10.399a5.554 5.554 0 0 1-1.628 3.929 5.563 5.563 0 0 1-3.933 1.627zm66.598-.767H96.953a5.28 5.28 0 0 1-5.282-5.277 5.28 5.28 0 0 1 5.282-5.278h47.804m-83.641 5.992l5.701-5.697 3.795 3.792 7.826-7.82 4.07 4.065m-11.982-4.884a1.972 1.972 0 0 1-3.37 1.395 1.97 1.97 0 0 1 1.396-3.367c1.09 0 1.974.883 1.974 1.972z" stroke="url(#a)" stroke-width="1.25" stroke-linecap="round" stroke-linejoin="round"/><path d="M163.06 0H64.136c-7.205.008-13.045 5.842-13.053 13.042v43.051a49.704 49.704 0 0 0 0 44.012v57.551c.008 7.2 5.847 13.035 13.053 13.043h98.924c7.205-.009 13.044-5.843 13.052-13.043V13.043C176.104 5.843 170.265.008 163.06 0zM95.855 29.479c26.874 0 48.66 21.768 48.66 48.62 0 26.852-21.785 48.62-48.66 48.62-26.874 0-48.66-21.767-48.66-48.62.03-26.84 21.799-48.59 48.66-48.62zm-12.953.465a49.571 49.571 0 0 0-8.549 3.159v-4.997c0-1.089.884-1.971 1.974-1.972h4.601c1.09 0 1.973.883 1.974 1.972v1.838zm91.96 127.712c-.007 6.51-5.287 11.787-11.802 11.795H64.136c-6.516-.008-11.796-5.284-11.804-11.795v-55.192c12.896 23.044 41.545 32.034 65.31 20.493h10.963a.624.624 0 1 0 0-1.249h-8.576a50.117 50.117 0 0 0 7.97-5.5l30.777 26.112.809-.952-30.63-25.988c17.152-15.179 21.75-40.08 11.146-60.375-10.604-20.294-33.68-30.76-55.95-25.376v-1.522a3.225 3.225 0 0 0-3.223-3.22h-4.602a3.225 3.225 0 0 0-3.223 3.22v5.63A50.226 50.226 0 0 0 52.33 53.735V13.042c.008-6.51 5.288-11.786 11.804-11.794h98.924c6.515.008 11.795 5.284 11.803 11.794v144.614z" fill="#ECECEC" fill-rule="nonzero"/><path d="M148.25 116.85h-9.99a.624.624 0 1 0 0 1.248h9.99c.963 0 1.743.78 1.745 1.742v.125a1.746 1.746 0 0 1-1.745 1.743h-5.933a.624.624 0 1 0 0 1.248h5.933a2.996 2.996 0 0 0 2.994-2.991v-.125a2.996 2.996 0 0 0-2.994-2.99zM73.728 133.689h68.11a.624.624 0 1 0 0-1.248h-68.11a.624.624 0 1 0 0 1.248zM152.87 103.418h-8.113a.624.624 0 1 0 0 1.248h8.113a.624.624 0 1 0 0-1.248zM148.25 60.053c.963.001 1.743.78 1.745 1.743v.124a1.746 1.746 0 0 1-1.745 1.744.624.624 0 1 0 0 1.248 2.996 2.996 0 0 0 2.994-2.992v-.124a2.996 2.996 0 0 0-2.994-2.991h-2.139a.624.624 0 1 0 0 1.248h2.14zM152.87 74.396h-2.902a.624.624 0 1 0 0 1.248h2.902a.624.624 0 1 0 0-1.248zM141.163 32.899v-.125a2.995 2.995 0 0 0-2.993-2.991h-18.813a.624.624 0 1 0 0 1.248h18.813c.963.001 1.743.78 1.744 1.743v.124a1.746 1.746 0 0 1-1.744 1.743h-10.282a.624.624 0 1 0 0 1.248h10.282a2.995 2.995 0 0 0 2.993-2.99zM152.87 45.374h-13.504a.624.624 0 1 0 0 1.248h13.504a.624.624 0 1 0 0-1.248zM140.539 145.556h-48.66a2.996 2.996 0 0 0-2.994 2.99v.126a2.996 2.996 0 0 0 2.994 2.99h48.66a2.996 2.996 0 0 0 2.993-2.99v-.125a2.996 2.996 0 0 0-2.993-2.99zm1.744 3.116a1.746 1.746 0 0 1-1.744 1.743h-48.66a1.746 1.746 0 0 1-1.745-1.743v-.125a1.746 1.746 0 0 1 1.745-1.743h48.66c.962.002 1.743.78 1.744 1.743v.126zM80.928 140.66h-4.602a3.225 3.225 0 0 0-3.223 3.22v5.123a3.225 3.225 0 0 0 3.223 3.22h4.602a3.225 3.225 0 0 0 3.223-3.22v-5.123a3.225 3.225 0 0 0-3.223-3.22zm1.974 8.342a1.974 1.974 0 0 1-1.974 1.972h-4.602a1.974 1.974 0 0 1-1.974-1.972v-5.122c0-1.09.884-1.972 1.974-1.972h4.602c1.09 0 1.973.883 1.974 1.972v5.122zM89.51 140.66a.624.624 0 1 0 0 1.248h22.877a.624.624 0 1 0 0-1.248H89.51zM112.386 25.287H89.51a.624.624 0 1 0 0 1.248h22.877a.624.624 0 1 0 0-1.248zM203.578 126.79h53.74c4.31-.004 7.804-3.495 7.81-7.803v-78.88c-.006-4.308-3.5-7.799-7.81-7.804h-53.74c-4.311.005-7.805 3.496-7.81 7.804v78.88c.005 4.308 3.5 7.799 7.81 7.804zm-6.56-86.683a6.565 6.565 0 0 1 6.56-6.556h53.74a6.565 6.565 0 0 1 6.56 6.556v78.88a6.565 6.565 0 0 1-6.56 6.556h-53.74a6.565 6.565 0 0 1-6.56-6.555V40.107zM283.927 126.79h53.74c4.312-.004 7.805-3.495 7.81-7.803v-78.88c-.005-4.308-3.498-7.799-7.81-7.804h-53.74c-4.311.005-7.805 3.496-7.81 7.804v78.88c.005 4.308 3.5 7.799 7.81 7.804zm-6.56-86.683a6.565 6.565 0 0 1 6.56-6.556h53.74a6.565 6.565 0 0 1 6.56 6.556v78.88a6.565 6.565 0 0 1-6.56 6.556h-53.74a6.565 6.565 0 0 1-6.56-6.555V40.107zM384.126 141.18H197.087a.624.624 0 1 0 0 1.248h187.04a.624.624 0 1 0 0-1.248zM38.133 141.18H.625a.624.624 0 1 0 0 1.248h37.508a.624.624 0 1 0 0-1.248z" fill="#ECECEC" fill-rule="nonzero"/><path d="M205.053 85.974h50.58c.345 0 .625-.28.625-.625V47.723a.624.624 0 0 0-.625-.624h-50.58a.624.624 0 0 0-.624.624V85.35c0 .345.28.625.624.625zm.625-37.627h49.33v36.378h-49.33V48.347zM207.355 99.768h41.333a2.928 2.928 0 0 0 2.926-2.925V96.1a2.928 2.928 0 0 0-2.926-2.925h-41.333a2.928 2.928 0 0 0-2.926 2.925v.744a2.928 2.928 0 0 0 2.926 2.925zm-1.677-3.67c0-.925.75-1.674 1.677-1.676h41.333a1.678 1.678 0 0 1 1.676 1.677v.744c0 .925-.75 1.675-1.676 1.676h-41.333a1.678 1.678 0 0 1-1.677-1.676V96.1zM206.815 109.48h23.4a2.388 2.388 0 0 0 2.387-2.386v-1.824a2.388 2.388 0 0 0-2.387-2.384h-23.4a2.388 2.388 0 0 0-2.386 2.384v1.824a2.388 2.388 0 0 0 2.386 2.385zm-1.137-4.21c0-.627.51-1.135 1.137-1.136h23.4c.628.001 1.137.51 1.138 1.137v1.823c-.001.628-.51 1.136-1.138 1.137h-23.4c-.628-.001-1.136-.51-1.137-1.137v-1.824zM285.506 77.497h50.581c.345 0 .625-.28.625-.625v-29.15a.624.624 0 0 0-.625-.623h-50.58a.624.624 0 0 0-.625.624v29.15c0 .344.28.624.624.624zm.625-29.15h49.331v27.901h-49.33V48.347zM285.506 109.321h29.175c.345 0 .624-.279.624-.624V83.88a.624.624 0 0 0-.624-.624h-29.175a.624.624 0 0 0-.624.624v24.818c0 .345.28.624.624.624zm.625-24.817h27.925v23.57h-27.925v-23.57zM335.813 83.255h-14.905a.624.624 0 0 0-.624.624v9.643c0 .344.28.624.624.624h14.905c.345 0 .625-.28.625-.624v-9.643a.624.624 0 0 0-.625-.624zm-.624 9.643h-13.656v-8.394h13.656v8.394zM335.813 98.52h-14.905a.624.624 0 0 0-.624.623v9.507c0 .344.28.624.624.624h14.905c.345 0 .625-.28.625-.624v-9.507a.624.624 0 0 0-.625-.624zm-.624 9.506h-13.656v-8.258h13.656v8.258zM367.722 104.135h17.029a.624.624 0 1 0 0-1.249h-17.029a2.388 2.388 0 0 0-2.386 2.385v1.824a2.388 2.388 0 0 0 2.386 2.384h17.029a.624.624 0 1 0 0-1.248h-17.029c-.627 0-1.136-.51-1.137-1.136v-1.825a1.139 1.139 0 0 1 1.137-1.135zM384.75 95.847h-18.165v-47.5h18.166a.624.624 0 1 0 0-1.248h-18.79a.624.624 0 0 0-.625.624V96.47c0 .344.28.624.624.624h18.79a.624.624 0 1 0 0-1.248zM3.073 48.347h17.848v36.397l-17.867-.019a.624.624 0 1 0 .019 1.249h18.492a.624.624 0 0 0 .605-.625V47.723a.624.624 0 0 0-.625-.624H3.073a.624.624 0 0 0 0 1.248zM3.073 92.33h17.848v14.672l-17.867-.02a.625.625 0 1 0 .019 1.249h18.492a.624.624 0 0 0 .605-.624V91.705a.624.624 0 0 0-.625-.624H3.073a.624.624 0 1 0 0 1.249z" fill="#ECECEC" fill-rule="nonzero"/><path d="M23.548 32.303H3.074a.624.624 0 1 0 0 1.248h20.474a6.565 6.565 0 0 1 6.56 6.556v78.88a6.565 6.565 0 0 1-6.56 6.556H3.074a.624.624 0 1 0 0 1.248h20.474c4.31-.005 7.804-3.496 7.81-7.803V40.107c-.006-4.308-3.5-7.799-7.81-7.804zM384.75 125.543h-20.474a6.565 6.565 0 0 1-6.56-6.556v-78.88a6.565 6.565 0 0 1 6.56-6.556h20.475a.624.624 0 1 0 0-1.248h-20.475c-4.31.005-7.804 3.496-7.809 7.804v78.88c.005 4.308 3.498 7.8 7.81 7.804h20.474a.625.625 0 1 0 0-1.248z" fill="#ECECEC" fill-rule="nonzero"/></g></svg>