<?xml version="1.0" encoding="UTF-8"?>
<svg width="386px" height="171px" viewBox="0 0 386 171" version="1.1" xmlns="http://www.w3.org/2000/svg" xmlns:xlink="http://www.w3.org/1999/xlink">
    <!-- Generator: Sketch 43.2 (39069) - http://www.bohemiancoding.com/sketch -->
    <title>ww_blogillustrations_connect</title>
    <desc>Created with Sketch.</desc>
    <defs>
        <linearGradient x1="0%" y1="100%" x2="95.0602956%" y2="-5.60306526%" id="linearGradient-1">
            <stop stop-color="#D68ADF" offset="0%"></stop>
            <stop stop-color="#A04E9E" offset="32.292331%"></stop>
            <stop stop-color="#815DA7" offset="76.0303731%"></stop>
            <stop stop-color="#6C63AC" offset="100%"></stop>
        </linearGradient>
    </defs>
    <g id="Page-1" stroke="none" stroke-width="1" fill="none" fill-rule="evenodd">
        <g id="Help-Center---Home-Copy-32" transform="translate(-789.000000, -2262.000000)">
            <g id="Work-is-better-with-Watson" transform="translate(0.000000, 2112.000000)">
                <g id="ww_blogillustrations_connect" transform="translate(789.000000, 150.000000)">
                    <path d="M93.5279249,67.5482453 L135.212677,67.5482453 L93.5279249,67.5482453 Z M54.9701476,105.389297 L136.741437,105.389297 L54.9701476,105.389297 Z M57.0918984,47.765792 L134.619561,47.765792 L57.0918984,47.765792 Z M77.0834505,88.2921679 L66.6765657,88.2921679 C63.6052973,88.2921679 61.1155424,85.8044374 61.1155424,82.7356664 L61.1155424,72.3372438 C61.1155424,69.2684728 63.6052973,66.7807423 66.6765657,66.7807423 L77.0834505,66.7807423 C80.1547188,66.7807423 82.6444738,69.2684728 82.6444738,72.3372438 L82.6444738,82.7356664 C82.6444738,84.2093855 82.0585476,85.6227412 81.0155994,86.6647945 C79.9726512,87.7068479 78.558119,88.2922341 77.0832006,88.2921679 L77.0834505,88.2921679 Z M143.680817,87.524665 L96.9527068,87.524665 C94.0358746,87.524665 91.6713149,85.162028 91.6713149,82.2475675 C91.6713149,79.3331071 94.0358746,76.9704701 96.9527068,76.9704701 L144.757495,76.9704701 M61.1155424,82.9617109 L66.8169748,77.2649146 L70.6118919,81.056746 L78.4384479,73.236554 L82.5071877,77.3019854 M70.5260725,72.4181255 C70.5260725,73.2157723 70.0451906,73.9348777 69.3076614,74.2401239 C68.5701322,74.5453701 67.7211993,74.3766442 67.1567188,73.8126227 C66.5922384,73.2486013 66.4233751,72.4003587 66.7288697,71.6634291 C67.0343644,70.9264996 67.7540549,70.4460088 68.5523508,70.4460088 C69.6423584,70.4462155 70.5258357,71.3292539 70.5256977,72.4183752 L70.5260725,72.4181255 Z" id="Shape" stroke="url(#linearGradient-1)" stroke-width="1.25" stroke-linecap="round" stroke-linejoin="round"></path>
                    <path d="M163.059517,0 L64.1360861,0 C56.9306419,0.00797882671 51.0913702,5.84222319 51.0830401,13.041808 L51.0830401,56.0932423 C44.2336719,69.9658132 44.2336719,86.2328262 51.0830401,100.105397 L51.0830401,157.656258 C51.0912322,164.856002 56.9304839,170.690505 64.1360861,170.698691 L163.059517,170.698691 C170.264932,170.690299 176.103884,164.855815 176.111938,157.656258 L176.111938,13.0426818 C176.104159,5.84297057 170.265086,0.00825496342 163.059517,0 L163.059517,0 Z M95.8551676,29.4786526 C122.729319,29.4785836 144.515185,51.2466048 144.515277,78.0989036 C144.515369,104.951203 122.729652,126.719373 95.8555008,126.719488 C68.9813497,126.719602 47.1954461,104.951619 47.1953081,78.0993197 C47.2257355,51.2596649 68.9935463,29.5093308 95.8550427,29.4786526 L95.8551676,29.4786526 Z M82.9021819,29.9439723 C79.9613984,30.7322242 77.0995952,31.7896584 74.3530939,33.102854 L74.3530939,28.1059095 C74.3539205,27.0170818 75.2371018,26.1346187 76.3268155,26.1337927 L80.9283353,26.1337927 C82.0180491,26.1346187 82.9012303,27.0170818 82.902057,28.1059095 L82.902057,29.9440971 L82.9021819,29.9439723 Z M174.862747,157.656258 C174.855313,164.166724 169.57528,169.442743 163.059517,169.450515 L64.1360861,169.450515 C57.620079,169.443087 52.3396658,164.166967 52.3322311,157.656258 L52.3322311,102.464448 C65.2281417,125.508473 93.8773644,134.497628 117.642557,122.956614 L128.604832,122.956614 C128.949786,122.956614 129.229427,122.6772 129.229427,122.332526 C129.229427,121.987852 128.949786,121.708439 128.604832,121.708439 L120.028761,121.708439 C122.856926,120.136103 125.526003,118.293721 127.998599,116.207107 L158.776041,142.319805 L159.584892,141.367822 L128.95473,115.379816 C146.107015,100.201321 150.704341,75.2991206 140.100873,55.004821 C129.497405,34.7105215 106.420539,24.2441665 84.1513728,29.6293073 L84.1513728,28.1065336 C84.1496512,26.3287284 82.7077121,24.8879618 80.9284602,24.8862416 L76.3256913,24.8862416 C74.5464394,24.8879618 73.1045002,26.3287284 73.1027786,28.1065336 L73.1027786,33.7366774 C64.3715474,38.231011 57.1500918,45.1837545 52.3313566,53.7351898 L52.3313566,13.041808 C52.3391355,6.53134307 57.6194481,1.25560321 64.1352117,1.24817518 L163.058642,1.24817518 C169.574162,1.25594703 174.854094,6.53158638 174.861872,13.041808 L174.861872,157.656258 L174.862747,157.656258 Z" id="Shape" fill="#ECECEC" fill-rule="nonzero"></path>
                    <path d="M148.250358,116.849418 L138.259828,116.849418 C137.914874,116.849418 137.635233,117.128831 137.635233,117.473505 C137.635233,117.818179 137.914874,118.097593 138.259828,118.097593 L148.250358,118.097593 C149.213144,118.098624 149.993476,118.878042 149.994853,119.840045 L149.994853,119.964863 C149.993752,120.927081 149.213359,121.706839 148.250358,121.707939 L142.316701,121.707939 C141.971746,121.707939 141.692106,121.987353 141.692106,122.332027 C141.692106,122.676701 141.971746,122.956115 142.316701,122.956115 L148.250358,122.956115 C149.902898,122.95412 151.242048,121.616059 151.244044,119.964863 L151.244044,119.840045 C151.241979,118.188979 149.902768,116.851137 148.250358,116.849418 Z" id="Shape" fill="#ECECEC" fill-rule="nonzero"></path>
                    <path d="M73.7282485,133.688799 L141.837261,133.688799 C142.182216,133.688799 142.461857,133.409385 142.461857,133.064711 C142.461857,132.720037 142.182216,132.440623 141.837261,132.440623 L73.7282485,132.440623 C73.383294,132.440623 73.1036531,132.720037 73.1036531,133.064711 C73.1036531,133.409385 73.383294,133.688799 73.7282485,133.688799 Z" id="Shape" fill="#ECECEC" fill-rule="nonzero"></path>
                    <path d="M152.870116,103.418179 L144.75712,103.418179 C144.412166,103.418179 144.132525,103.697592 144.132525,104.042266 C144.132525,104.38694 144.412166,104.666354 144.75712,104.666354 L152.870116,104.666354 C153.21507,104.666354 153.494711,104.38694 153.494711,104.042266 C153.494711,103.697592 153.21507,103.418179 152.870116,103.418179 Z" id="Shape" fill="#ECECEC" fill-rule="nonzero"></path>
                    <path d="M148.250358,60.0532029 C149.213144,60.0542341 149.993476,60.8336523 149.994853,61.7956555 L149.994853,61.920473 C149.993752,62.8826914 149.213359,63.6624491 148.250358,63.6635496 C147.905403,63.6635496 147.625762,63.9429632 147.625762,64.2876372 C147.625762,64.6323113 147.905403,64.9117248 148.250358,64.9117248 C149.902898,64.9097303 151.242048,63.5716689 151.244044,61.920473 L151.244044,61.7956555 C151.241979,60.1445894 149.902768,58.806747 148.250358,58.8050277 L146.111118,58.8050277 C145.766164,58.8050277 145.486523,59.0844413 145.486523,59.4291153 C145.486523,59.7737894 145.766164,60.0532029 146.111118,60.0532029 L148.250233,60.0532029 L148.250358,60.0532029 Z" id="Shape" fill="#ECECEC" fill-rule="nonzero"></path>
                    <path d="M152.870116,74.3956095 L149.968495,74.3956095 C149.623541,74.3956095 149.3439,74.675023 149.3439,75.0196971 C149.3439,75.3643711 149.623541,75.6437847 149.968495,75.6437847 L152.870116,75.6437847 C153.21507,75.6437847 153.494711,75.3643711 153.494711,75.0196971 C153.494711,74.675023 153.21507,74.3956095 152.870116,74.3956095 Z" id="Shape" fill="#ECECEC" fill-rule="nonzero"></path>
                    <path d="M141.163323,32.8986526 L141.163323,32.773835 C141.161602,31.1228294 139.822611,29.7848152 138.170261,29.7829577 L119.357446,29.7829577 C119.012491,29.7829577 118.73285,30.0623712 118.73285,30.4070453 C118.73285,30.7517193 119.012491,31.0311328 119.357446,31.0311328 L138.170261,31.0311328 C139.132918,31.0322334 139.913031,31.8117117 139.914132,32.7735854 L139.914132,32.8984029 C139.912825,33.8601913 139.132833,34.6395491 138.170261,34.6408555 L127.887671,34.6408555 C127.542717,34.6408555 127.263076,34.920269 127.263076,35.2649431 C127.263076,35.6096171 127.542717,35.8890307 127.887671,35.8890307 L138.170261,35.8890307 C139.822473,35.887311 141.161464,34.5495202 141.163323,32.8986526 Z" id="Shape" fill="#ECECEC" fill-rule="nonzero"></path>
                    <path d="M152.870116,45.3736642 L139.366362,45.3736642 C139.021407,45.3736642 138.741766,45.6530778 138.741766,45.9977518 C138.741766,46.3424259 139.021407,46.6218394 139.366362,46.6218394 L152.870116,46.6218394 C153.21507,46.6218394 153.494711,46.3424259 153.494711,45.9977518 C153.494711,45.6530778 153.21507,45.3736642 152.870116,45.3736642 Z" id="Shape" fill="#ECECEC" fill-rule="nonzero"></path>
                    <path d="M140.538728,145.556199 L91.878743,145.556199 C90.2263329,145.557918 88.8871224,146.89576 88.885057,148.546826 L88.885057,148.671644 C88.8870531,150.32284 90.2262034,151.660901 91.878743,151.662896 L140.538603,151.662896 C142.191013,151.661176 143.530223,150.323334 143.532289,148.672268 L143.532289,148.546701 C143.530155,146.895733 142.19104,145.557986 140.538728,145.556199 Z M142.283223,148.672393 C142.281846,149.634396 141.501514,150.413814 140.538728,150.414845 L91.878743,150.414845 C90.9157416,150.413745 90.1353493,149.633987 90.1342479,148.671769 L90.1342479,148.546951 C90.1356247,147.584948 90.9159566,146.80553 91.878743,146.804499 L140.538603,146.804499 C141.501389,146.80553 142.281721,147.584948 142.283098,148.546951 L142.283098,148.672518 L142.283223,148.672393 Z" id="Shape" fill="#ECECEC" fill-rule="nonzero"></path>
                    <path d="M80.9283353,140.659857 L76.3255663,140.659857 C74.5463144,140.661577 73.1043753,142.102344 73.1026537,143.880149 L73.1026537,149.00266 C73.1043753,150.780465 74.5463144,152.221232 76.3255663,152.222952 L80.9283353,152.222952 C82.7075872,152.221232 84.1495263,150.780465 84.1512479,149.00266 L84.1512479,143.880149 C84.1495263,142.102344 82.7075872,140.661577 80.9283353,140.659857 L80.9283353,140.659857 Z M82.902057,149.002161 C82.9012303,150.090988 82.0180491,150.973451 80.9283353,150.974277 L76.3255663,150.974277 C75.2358526,150.973451 74.3526713,150.090988 74.3518447,149.002161 L74.3518447,143.87965 C74.3526713,142.790822 75.2358526,141.908359 76.3255663,141.907533 L80.9283353,141.907533 C82.0180491,141.908359 82.9012303,142.790822 82.902057,143.87965 L82.902057,149.002161 L82.902057,149.002161 Z" id="Shape" fill="#ECECEC" fill-rule="nonzero"></path>
                    <path d="M89.510277,140.659857 C89.1653225,140.659857 88.8856816,140.93927 88.8856816,141.283945 C88.8856816,141.628619 89.1653225,141.908032 89.510277,141.908032 L112.386711,141.908032 C112.731665,141.908032 113.011306,141.628619 113.011306,141.283945 C113.011306,140.93927 112.731665,140.659857 112.386711,140.659857 L89.510277,140.659857 Z" id="Shape" fill="#ECECEC" fill-rule="nonzero"></path>
                    <path d="M112.386086,25.2872803 L89.510277,25.2872803 C89.1653225,25.2872803 88.8856816,25.5666938 88.8856816,25.9113679 C88.8856816,26.2560419 89.1653225,26.5354555 89.510277,26.5354555 L112.386711,26.5354555 C112.731665,26.535283 113.011166,26.2557298 113.010994,25.9110558 C113.010821,25.5663819 112.731041,25.2871081 112.386086,25.2872803 L112.386086,25.2872803 Z" id="Shape" fill="#ECECEC" fill-rule="nonzero"></path>
                    <path d="M203.578274,126.790883 L257.317219,126.790883 C261.628504,126.785999 265.122273,123.295072 265.127161,118.987292 L265.127161,40.1067394 C265.122273,35.7989595 261.628504,32.3080319 257.317219,32.3031482 L203.578274,32.3031482 C199.266988,32.3080319 195.77322,35.7989595 195.768332,40.1067394 L195.768332,118.987791 C195.773495,123.295376 199.267183,126.786 203.578274,126.790883 Z M197.017523,40.1067394 C197.021516,36.487937 199.956526,33.5553131 203.578274,33.5513234 L257.317219,33.5513234 C260.938966,33.5553131 263.873977,36.487937 263.87797,40.1067394 L263.87797,118.987791 C263.873977,122.606594 260.938966,125.539218 257.317219,125.543207 L203.578274,125.543207 C199.956526,125.539218 197.021516,122.606594 197.017523,118.987791 L197.017523,40.1067394 L197.017523,40.1067394 Z" id="Shape" fill="#ECECEC" fill-rule="nonzero"></path>
                    <path d="M283.927234,126.790883 L337.667428,126.790883 C341.978584,126.78593 345.472133,123.294942 345.476746,118.987292 L345.476746,40.1067394 C345.472133,35.7990889 341.978584,32.3081012 337.667428,32.3031482 L283.927234,32.3031482 C279.615949,32.3080319 276.12218,35.7989595 276.117293,40.1067394 L276.117293,118.987791 C276.122456,123.295376 279.616144,126.786 283.927234,126.790883 Z M277.366483,40.1067394 C277.370477,36.487937 280.305487,33.5553131 283.927234,33.5513234 L337.667428,33.5513234 C341.28896,33.5555884 344.223631,36.4881519 344.227555,40.1067394 L344.227555,118.987791 C344.223631,122.606379 341.28896,125.538942 337.667428,125.543207 L283.927234,125.543207 C280.305487,125.539218 277.370477,122.606594 277.366483,118.987791 L277.366483,40.1067394 L277.366483,40.1067394 Z" id="Shape" fill="#ECECEC" fill-rule="nonzero"></path>
                    <path d="M384.126214,141.179722 L197.087478,141.179722 C196.742523,141.179722 196.462882,141.459135 196.462882,141.803809 C196.462882,142.148484 196.742523,142.427897 197.087478,142.427897 L384.126214,142.427897 C384.471168,142.427897 384.750809,142.148484 384.750809,141.803809 C384.750809,141.459135 384.471168,141.179722 384.126214,141.179722 Z" id="Shape" fill="#ECECEC" fill-rule="nonzero"></path>
                    <path d="M38.1331773,141.179722 L0.624595469,141.179722 C0.279640917,141.179722 0,141.459135 0,141.803809 C0,142.148484 0.279640917,142.427897 0.624595469,142.427897 L38.1331773,142.427897 C38.4781319,142.427897 38.7577728,142.148484 38.7577728,141.803809 C38.7577728,141.459135 38.4781319,141.179722 38.1331773,141.179722 Z" id="Shape" fill="#ECECEC" fill-rule="nonzero"></path>
                    <path d="M205.053194,85.9735577 L255.632935,85.9735577 C255.977889,85.9735577 256.25753,85.6941441 256.25753,85.3494701 L256.25753,47.7232292 C256.25753,47.3785551 255.977889,47.0991416 255.632935,47.0991416 L205.053194,47.0991416 C204.708239,47.0991416 204.428598,47.3785551 204.428598,47.7232292 L204.428598,85.3494701 C204.428598,85.6941441 204.708239,85.9735577 205.053194,85.9735577 Z M205.677789,48.3473168 L255.008339,48.3473168 L255.008339,84.7253825 L205.677789,84.7253825 L205.677789,48.3473168 Z" id="Shape" fill="#ECECEC" fill-rule="nonzero"></path>
                    <path d="M207.354578,99.7675161 L248.687683,99.7675161 C250.303101,99.7655896 251.61208,98.4573967 251.613663,96.8432912 L251.613663,96.0985051 C251.61208,94.4843996 250.303101,93.1762067 248.687683,93.1742803 L207.354578,93.1742803 C205.739159,93.1762067 204.430181,94.4843996 204.428598,96.0985051 L204.428598,96.8432912 C204.430181,98.4573967 205.739159,99.7655896 207.354578,99.7675161 L207.354578,99.7675161 Z M205.677789,96.0985051 C205.678684,95.1734626 206.428783,94.4236938 207.354578,94.4224555 L248.687683,94.4224555 C249.613478,94.4236938 250.363577,95.1734626 250.364472,96.0985051 L250.364472,96.8432912 C250.363577,97.7683338 249.613478,98.5181025 248.687683,98.5193409 L207.354578,98.5193409 C206.428783,98.5181025 205.678684,97.7683338 205.677789,96.8432912 L205.677789,96.0985051 L205.677789,96.0985051 Z" id="Shape" fill="#ECECEC" fill-rule="nonzero"></path>
                    <path d="M206.815302,109.479193 L230.215022,109.479193 C231.532592,109.477817 232.600349,108.410927 232.601726,107.094429 L232.601726,105.270346 C232.600349,103.953848 231.532592,102.886958 230.215022,102.885582 L206.815302,102.885582 C205.497733,102.886958 204.429975,103.953848 204.428598,105.270346 L204.428598,107.093805 C204.429631,108.410547 205.497489,109.477816 206.815302,109.479193 L206.815302,109.479193 Z M205.677789,105.270845 C205.678683,104.643495 206.187442,104.135151 206.815302,104.134257 L230.215022,104.134257 C230.842882,104.135151 231.351641,104.643495 231.352535,105.270845 L231.352535,107.094304 C231.351641,107.721654 230.842882,108.229999 230.215022,108.230893 L206.815302,108.230893 C206.187442,108.229999 205.678683,107.721654 205.677789,107.094304 L205.677789,105.270346 L205.677789,105.270845 Z" id="Shape" fill="#ECECEC" fill-rule="nonzero"></path>
                    <path d="M285.506461,77.4965759 L336.087077,77.4965759 C336.432032,77.4965759 336.711672,77.2171624 336.711672,76.8724883 L336.711672,47.7226051 C336.711672,47.3779311 336.432032,47.0985175 336.087077,47.0985175 L285.506461,47.0985175 C285.161507,47.0985175 284.881866,47.3779311 284.881866,47.7226051 L284.881866,76.8724883 C284.881866,77.2171624 285.161507,77.4965759 285.506461,77.4965759 Z M286.131057,48.3466927 L335.462482,48.3466927 L335.462482,76.2484007 L286.131057,76.2484007 L286.131057,48.3466927 Z" id="Shape" fill="#ECECEC" fill-rule="nonzero"></path>
                    <path d="M285.506461,109.321423 L314.680691,109.321423 C315.025646,109.321423 315.305287,109.04201 315.305287,108.697336 L315.305287,83.8794942 C315.305287,83.5348201 315.025646,83.2554066 314.680691,83.2554066 L285.506461,83.2554066 C285.161507,83.2554066 284.881866,83.5348201 284.881866,83.8794942 L284.881866,108.697336 C284.881866,109.04201 285.161507,109.321423 285.506461,109.321423 Z M286.131057,84.5035818 L314.056096,84.5035818 L314.056096,108.073248 L286.131057,108.073248 L286.131057,84.5035818 Z" id="Shape" fill="#ECECEC" fill-rule="nonzero"></path>
                    <path d="M335.813254,83.2554066 L320.908408,83.2554066 C320.563453,83.2554066 320.283812,83.5348201 320.283812,83.8794942 L320.283812,93.5217723 C320.283812,93.8664463 320.563453,94.1458599 320.908408,94.1458599 L335.813254,94.1458599 C336.158209,94.1458599 336.43785,93.8664463 336.43785,93.5217723 L336.43785,83.8794942 C336.43785,83.5348201 336.158209,83.2554066 335.813254,83.2554066 Z M335.188659,92.8976847 L321.533003,92.8976847 L321.533003,84.5035818 L335.188659,84.5035818 L335.188659,92.8976847 Z" id="Shape" fill="#ECECEC" fill-rule="nonzero"></path>
                    <path d="M335.813254,98.5193409 L320.908408,98.5193409 C320.563453,98.5193409 320.283812,98.7987544 320.283812,99.1434285 L320.283812,108.64978 C320.283812,108.994454 320.563453,109.273868 320.908408,109.273868 L335.813254,109.273868 C336.158209,109.273868 336.43785,108.994454 336.43785,108.64978 L336.43785,99.1434285 C336.43785,98.7987544 336.158209,98.5193409 335.813254,98.5193409 Z M335.188659,108.025693 L321.533003,108.025693 L321.533003,99.7675161 L335.188659,99.7675161 L335.188659,108.025693 Z" id="Shape" fill="#ECECEC" fill-rule="nonzero"></path>
                    <path d="M367.722463,104.134507 L384.750559,104.134507 C385.095514,104.134507 385.375155,103.855093 385.375155,103.510419 C385.375155,103.165745 385.095514,102.886331 384.750559,102.886331 L367.722463,102.886331 C366.404893,102.887707 365.337136,103.954597 365.335759,105.271095 L365.335759,107.094554 C365.337136,108.411052 366.404893,109.477942 367.722463,109.479318 L384.750559,109.479318 C385.095514,109.479318 385.375155,109.199904 385.375155,108.85523 C385.375155,108.510556 385.095514,108.231142 384.750559,108.231142 L367.722463,108.231142 C367.094602,108.230249 366.585844,107.721904 366.58495,107.094554 L366.58495,105.270346 C366.586256,104.643289 367.094894,104.135399 367.722463,104.134507 L367.722463,104.134507 Z" id="Shape" fill="#ECECEC" fill-rule="nonzero"></path>
                    <path d="M384.750684,95.8466234 L366.58495,95.8466234 L366.58495,48.3466927 L384.750684,48.3466927 C385.095639,48.3466927 385.37528,48.0672792 385.37528,47.7226051 C385.37528,47.3779311 385.095639,47.0985175 384.750684,47.0985175 L365.960354,47.0985175 C365.615399,47.0985175 365.335759,47.3779311 365.335759,47.7226051 L365.335759,96.4707109 C365.335759,96.815385 365.615399,97.0947985 365.960354,97.0947985 L384.750684,97.0947985 C385.095639,97.0947985 385.37528,96.815385 385.37528,96.4707109 C385.37528,96.1260369 385.095639,95.8466234 384.750684,95.8466234 Z" id="Shape" fill="#ECECEC" fill-rule="nonzero"></path>
                    <path d="M3.07338447,48.3466927 L20.9207003,48.3466927 L20.9207003,84.7442299 L3.05377217,84.7253825 C2.70881762,84.7305871 2.43339928,85.0142197 2.43860809,85.3588938 C2.4438169,85.7035679 2.7276804,85.9787622 3.07263495,85.9735577 L3.09274693,85.9735577 L21.5646583,85.9735577 C21.9019794,85.9630367 22.1699306,85.686681 22.1697663,85.3494701 L22.1697663,47.7232292 C22.1697663,47.3785551 21.8901254,47.0991416 21.5451709,47.0991416 L3.07325955,47.0991416 C2.73616338,47.1098305 2.46844167,47.385986 2.46847542,47.7229776 C2.46850916,48.0599692 2.73628616,48.3360712 3.07338447,48.3466927 Z" id="Shape" fill="#ECECEC" fill-rule="nonzero"></path>
                    <path d="M3.07338447,92.3295153 L20.9207003,92.3295153 L20.9207003,107.002064 L3.05389709,106.982842 C2.83075062,106.986209 2.62635239,107.108271 2.51769724,107.303047 C2.40904209,107.497824 2.41263731,107.735725 2.52712863,107.927135 C2.64161995,108.118545 2.8496134,108.234384 3.07275987,108.231018 L3.09287184,108.231018 L21.5647832,108.231018 C21.9021043,108.220497 22.1700556,107.944141 22.1698913,107.60693 L22.1698913,91.7051781 C22.1698913,91.360504 21.8902503,91.0810905 21.5452958,91.0810905 L3.07338447,91.0810905 C2.72836092,91.0810905 2.44866408,91.3605599 2.44866408,91.7053029 C2.44866408,92.0500459 2.72836092,92.3295153 3.07338447,92.3295153 Z" id="Shape" fill="#ECECEC" fill-rule="nonzero"></path>
                    <path d="M23.5477489,32.303273 L3.07350939,32.303273 C2.72855483,32.303273 2.44891392,32.5826865 2.44891392,32.9273606 C2.44891392,33.2720346 2.72855483,33.5514482 3.07350939,33.5514482 L23.5477489,33.5514482 C27.1692808,33.5557132 30.1039514,36.4882767 30.1078751,40.1068642 L30.1078751,118.987791 C30.1039514,122.606379 27.1692808,125.538942 23.5477489,125.543207 L3.07350939,125.543207 C2.72855483,125.543207 2.44891392,125.822621 2.44891392,126.167295 C2.44891392,126.511969 2.72855483,126.791382 3.07350939,126.791382 L23.5477489,126.791382 C27.8589045,126.786429 31.3524537,123.295442 31.357066,118.987791 L31.357066,40.1067394 C31.3523849,35.7991377 27.8588558,32.3082259 23.5477489,32.303273 L23.5477489,32.303273 Z" id="Shape" fill="#ECECEC" fill-rule="nonzero"></path>
                    <path d="M384.750684,125.542708 L364.276445,125.542708 C360.654913,125.538443 357.720242,122.60588 357.716318,118.987292 L357.716318,40.1067394 C357.720242,36.4881519 360.654913,33.5555884 364.276445,33.5513234 L384.750684,33.5513234 C385.095639,33.5513234 385.37528,33.2719098 385.37528,32.9272358 C385.37528,32.5825617 385.095639,32.3031482 384.750684,32.3031482 L364.276445,32.3031482 C359.965289,32.3081012 356.47174,35.7990889 356.467128,40.1067394 L356.467128,118.987791 C356.47174,123.295442 359.965289,126.786429 364.276445,126.791382 L384.750684,126.791382 C384.97392,126.791382 385.180198,126.672384 385.291816,126.479214 C385.403434,126.286043 385.403434,126.048047 385.291816,125.854877 C385.180198,125.661706 384.97392,125.542708 384.750684,125.542708 Z" id="Shape" fill="#ECECEC" fill-rule="nonzero"></path>
                </g>
            </g>
        </g>
    </g>
</svg>