<svg xmlns="http://www.w3.org/2000/svg" width="96" height="96" viewBox="0 0 96 96" xmlns:xlink="http://www.w3.org/1999/xlink"><defs><linearGradient id="b" x1="50%" x2="50%" y1="0%" y2="100%"><stop stop-color="#00B4A0" stop-opacity=".07" offset="0%"/><stop stop-color="#0F1F29" stop-opacity="0" offset="100%"/></linearGradient><linearGradient id="c" x1="54.963%" x2="54.963%" y1="0%" y2="100%"><stop stop-color="#5AAAFA" stop-opacity=".4" offset="0%"/><stop stop-color="#010205" stop-opacity=".1" offset="100%"/></linearGradient><rect id="a" width="96" height="96" rx="16"/><linearGradient id="f" x1="91.722%" x2="10.978%" y1="26.562%" y2="75.43%"><stop stop-color="#4178BE" offset="0%"/><stop stop-color="#00B4A0" offset="100%"/></linearGradient><path id="e" d="M48 82.8c-9.296 0-18.034-3.62-24.606-10.192a2.799 2.799 0 1 1 3.958-3.96C32.867 74.163 40.2 77.2 48 77.2c16.1 0 29.2-13.1 29.2-29.2v-.166c0-1.05-.154-4.472-2.123-4.472-1.27 0-2.35 3.332-3.14 5.766-1.294 3.994-2.903 8.965-7.69 8.965-6.274 0-7.505-8.021-8.59-15.096-.454-2.959-.987-9.403-2.393-9.413-1.851.045-2.14 9.893-2.467 14.482l-.072 1.027c-.683 9.633-1.327 18.736-8.104 18.822h-.088c-5.663 0-6.743-7.2-7.786-14.163-.385-2.571-1.18-10.42-2.993-10.395-1.394.019-1.914 3.696-2.364 5.088-1.32 4.069-3.124 9.641-8.467 9.641-3.563 0-7.723-2.638-7.723-10.072l.005-.17C13.2 28.812 28.81 13.2 48 13.2c9.27 0 17.994 3.603 24.562 10.147a2.8 2.8 0 1 1-3.952 3.968C63.1 21.824 55.78 18.8 48 18.8c-16.1 0-29.2 13.1-29.2 29.2l-.005.168c.005.894.159 4.318 2.128 4.318 1.27 0 2.35-3.332 3.14-5.768 1.294-3.992 2.903-8.961 7.69-8.961 6.257 0 7.466 8.056 8.532 15.165.443 2.955 1.117 9.497 2.35 9.382 1.624-.022 2.269-10.306 2.503-13.606l.068-.975c.746-10.411 1.413-20.14 8.373-19.787 5.483.32 6.565 7.382 7.613 14.211.435 2.829 1.587 10.363 3.054 10.346 1.004-.015 1.914-3.7 2.364-5.09 1.32-4.07 3.124-9.641 8.467-9.641 3.563 0 7.723 2.636 7.723 10.072V48c0 19.189-15.611 34.8-34.8 34.8"/><filter id="d" width="128.7%" height="128.7%" x="-14.4%" y="-11.5%" filterUnits="objectBoundingBox"><feOffset dy="2" in="SourceAlpha" result="shadowOffsetOuter1"/><feGaussianBlur stdDeviation="3" in="shadowOffsetOuter1" result="shadowBlurOuter1"/><feColorMatrix values="0 0 0 0 0.00392156863 0 0 0 0 0.00784313725 0 0 0 0 0.0196078431 0 0 0 0.12 0" in="shadowBlurOuter1"/></filter><filter id="g" width="124.4%" height="124.4%" x="-12.2%" y="-9.3%" filterUnits="objectBoundingBox"><feGaussianBlur stdDeviation="1.5" in="SourceAlpha" result="shadowBlurInner1"/><feOffset dy="2" in="shadowBlurInner1" result="shadowOffsetInner1"/><feComposite in="shadowOffsetInner1" in2="SourceAlpha" operator="arithmetic" k2="-1" k3="1" result="shadowInnerInner1"/><feColorMatrix values="0 0 0 0 0.752941176 0 0 0 0 0.901960784 0 0 0 0 1 0 0 0 0.2 0" in="shadowInnerInner1"/></filter></defs><g fill="none" fill-rule="evenodd"><use fill="#152935" xlink:href="#a"/><use fill="url(#b)" fill-opacity=".3" xlink:href="#a"/><use fill="url(#c)" fill-opacity=".3" style="mix-blend-mode:overlay" xlink:href="#a"/><use fill="#000" filter="url(#d)" xlink:href="#e"/><use fill="url(#f)" xlink:href="#e"/><use fill="#000" filter="url(#g)" xlink:href="#e"/></g></svg>