<?xml version="1.0" encoding="UTF-8"?>
<svg width="160px" height="160px" viewBox="0 0 160 160" version="1.1" xmlns="http://www.w3.org/2000/svg" xmlns:xlink="http://www.w3.org/1999/xlink">
    <!-- Generator: Sketch 43 (38999) - http://www.bohemiancoding.com/sketch -->
    <title>idea</title>
    <desc>Created with Sketch.</desc>
    <defs></defs>
    <g id="Page-1" stroke="none" stroke-width="1" fill="none" fill-rule="evenodd">
        <g id="Help-Center---Home-Copy-14" transform="translate(-121.000000, -1683.000000)">
            <g id="Part-4" transform="translate(121.000000, 1683.000000)">
                <g id="submit">
                    <g id="idea">
                        <path d="M160,80 C160,124.18278 124.18278,160 80,160 C35.81722,160 0,124.18278 0,80 C0,35.81722 35.81722,0 80,0 C124.18278,1.428258e-13 160,35.81722 160,80 L160,80 Z" id="Shape" fill="#FFFFFF"></path>
                        <path d="M70.0991257,107.75 C69.6849122,107.75 69.3491257,107.414214 69.3491257,107 C69.3491257,106.585786 69.6849122,106.25 70.0991257,106.25 L89.1518651,106.25 C89.5660786,106.25 89.9018651,106.585786 89.9018651,107 C89.9018651,107.414214 89.5660786,107.75 89.1518651,107.75 L70.0991257,107.75 Z M70.8491257,99.86675 L88.4018651,99.86675 L88.4018651,99.299 C88.4018651,93.8915583 90.2877928,89.6752605 95.6826366,84.0658108 C100.548874,79.324657 103.420783,72.9051794 103.711084,66.1481707 C103.756978,52.8032664 92.9726952,41.9475352 79.6229918,41.9007454 C79.2087807,41.8992936 78.8741733,41.5623323 78.875625,41.1481213 C78.8770768,40.7339103 79.2140381,40.3993028 79.6282491,40.4007546 C93.8062217,40.4504474 105.259818,51.9799269 105.210391,66.1828779 C104.903027,73.3514443 101.869476,80.1322347 96.7466141,85.1228611 C91.6251108,90.4486415 89.9018651,94.3012374 89.9018651,99.299 L89.9018651,100.61675 C89.9018651,101.030964 89.5660786,101.36675 89.1518651,101.36675 L70.0991257,101.36675 C69.6849122,101.36675 69.3491257,101.030964 69.3491257,100.61675 L69.3491257,99.299 C69.3491257,94.3013416 67.6259378,90.4489264 62.521592,85.1401892 C57.3815147,80.1322347 54.3479637,73.3514443 54.0399158,66.1533293 C53.9911725,51.9799269 65.4447691,40.4504474 79.6227417,40.4007546 C80.0369527,40.3993028 80.373914,40.7339103 80.3753658,41.1481213 C80.3768175,41.5623323 80.0422101,41.8992936 79.627999,41.9007454 C66.2782956,41.9475352 55.4940129,52.8032664 55.539223,66.1186221 C55.8302075,72.9051794 58.7021165,79.324657 63.5855804,84.0831503 C68.9632602,89.675561 70.8491257,93.8916638 70.8491257,99.299 L70.8491257,99.86675 Z M70.0991257,113.75 C69.6849122,113.75 69.3491257,113.414214 69.3491257,113 C69.3491257,112.585786 69.6849122,112.25 70.0991257,112.25 L89.1518651,112.25 C89.5660786,112.25 89.9018651,112.585786 89.9018651,113 C89.9018651,113.414214 89.5660786,113.75 89.1518651,113.75 L70.0991257,113.75 Z M73.8026371,120.75 C73.3884236,120.75 73.0526371,120.414214 73.0526371,120 C73.0526371,119.585786 73.3884236,119.25 73.8026371,119.25 L85.4486037,119.25 C85.8628173,119.25 86.1986037,119.585786 86.1986037,120 C86.1986037,120.414214 85.8628173,120.75 85.4486037,120.75 L73.8026371,120.75 Z" id="Combined-Shape" fill="#8B5BDC" fill-rule="nonzero"></path>
                    </g>
                </g>
            </g>
        </g>
    </g>
</svg>